<svg width="359" height="112" viewBox="0 0 359 112" fill="none" xmlns="http://www.w3.org/2000/svg">
<path d="M0 24C0 10.7452 10.7452 0 24 0H335C348.255 0 359 10.7452 359 24V88C359 101.255 348.255 112 335 112H24C10.7452 112 0 101.255 0 88V24Z" fill="url(#paint0_linear_1_2128)"/>
<g clip-path="url(#clip0_1_2128)">
<rect x="12" y="12" width="335" height="88" rx="16" fill="#9E1838"/>
<rect x="12" y="32" width="335" height="2" fill="url(#paint1_linear_1_2128)"/>
<rect width="335" height="2" transform="matrix(1 0 0 -1 12 80)" fill="url(#paint2_linear_1_2128)"/>
<path d="M12 12H347V32H12V12Z" fill="#E03459"/>
<path d="M347 100H12V80H347V100Z" fill="#720D2E"/>
<path d="M331 32L347 12V100L331 80V32Z" fill="#8E1031"/>
<path d="M28 32H30V57C30 57.5523 29.5523 58 29 58C28.4477 58 28 57.5523 28 57V32Z" fill="url(#paint3_linear_1_2128)"/>
<path fill-rule="evenodd" clip-rule="evenodd" d="M41 32H28V45H30.0117C30.0039 44.8343 30 44.6676 30 44.5C30 38.701 34.701 34 40.5 34C40.6676 34 40.8343 34.0039 41 34.0117V32Z" fill="#FF83A9"/>
<g clip-path="url(#clip1_1_2128)">
<path d="M331 32H329V47C329 47.5523 329.448 48 330 48C330.552 48 331 47.5523 331 47V32Z" fill="url(#paint4_linear_1_2128)"/>
<path fill-rule="evenodd" clip-rule="evenodd" d="M318 32H331V45H328.988C328.996 44.8343 329 44.6676 329 44.5C329 38.701 324.299 34 318.5 34C318.332 34 318.166 34.0039 318 34.0117V32Z" fill="#FF83A9"/>
</g>
<path d="M28 32L12 12V100L28 80V32Z" fill="#B21844"/>
<g clip-path="url(#clip2_1_2128)">
<path d="M28 80H30V65C30 64.4477 29.5523 64 29 64C28.4477 64 28 64.4477 28 65V80Z" fill="url(#paint5_linear_1_2128)"/>
<path fill-rule="evenodd" clip-rule="evenodd" d="M41 80H28V67H30.0117C30.0039 67.1657 30 67.3324 30 67.5C30 73.299 34.701 78 40.5 78C40.6676 78 40.8343 77.9961 41 77.9883V80Z" fill="#DB2C5A"/>
</g>
<g clip-path="url(#clip3_1_2128)">
<path d="M331 80H329V55C329 54.4477 329.448 54 330 54C330.552 54 331 54.4477 331 55V80Z" fill="url(#paint6_linear_1_2128)"/>
<path fill-rule="evenodd" clip-rule="evenodd" d="M318 80H331V67H328.988C328.996 67.1657 329 67.3324 329 67.5C329 73.299 324.299 78 318.5 78C318.332 78 318.166 77.9961 318 77.9883V80Z" fill="#DB2C5A"/>
</g>
<g filter="url(#filter0_i_1_2128)">
<path d="M48.3451 69H45.6549C44.1681 69 43 67.8667 43 66.5C43 65.1 44.2035 64 45.6549 64H48.3451C49.8319 64 51 65.1333 51 66.5C51 67.9 49.7965 69 48.3451 69Z" fill="#9E1838"/>
</g>
<g filter="url(#filter1_i_1_2128)">
<path d="M307.345 51H304.655C303.168 51 302 49.8667 302 48.5C302 47.1 303.204 46 304.655 46H307.345C308.832 46 310 47.1333 310 48.5C310 49.9 308.796 51 307.345 51Z" fill="#9E1838"/>
</g>
<g filter="url(#filter2_i_1_2128)">
<path d="M98.677 24H96.323C95.0221 24 94 23.0933 94 22C94 20.88 95.0531 20 96.323 20H98.677C99.9779 20 101 20.9067 101 22C101 23.12 99.9469 24 98.677 24Z" fill="#E03459"/>
</g>
<g filter="url(#filter3_i_1_2128)">
<path d="M278.345 94H275.655C274.168 94 273 93.0933 273 92C273 90.88 274.204 90 275.655 90H278.345C279.832 90 281 90.9067 281 92C281 93.12 279.796 94 278.345 94Z" fill="#720D2E"/>
</g>
<g filter="url(#filter4_d_1_2128)">
<mask id="path-22-outside-1_1_2128" maskUnits="userSpaceOnUse" x="63" y="41" width="233" height="33" fill="black">
<rect fill="white" x="63" y="41" width="233" height="33"/>
<path d="M63.9679 70.6L66.9439 69.544V47.368L63.9679 46.312V43.912H78.0799C80.5759 43.912 82.4319 44.472 83.6479 45.592C84.8639 46.68 85.4719 48.6 85.4719 51.352C85.4719 52.632 85.2159 53.704 84.7039 54.568C84.2239 55.4 83.6959 56.024 83.1199 56.44C82.5439 56.824 81.8559 57.224 81.0559 57.64V57.928C82.8799 58.248 84.3519 59 85.4719 60.184C86.5919 61.368 87.1519 62.856 87.1519 64.648C87.1519 67.656 86.3519 69.8 84.7519 71.08C83.1839 72.36 81.0719 73 78.4159 73H63.9679V70.6ZM75.7279 56.776C76.9759 56.776 77.8719 56.472 78.4159 55.864C78.9599 55.256 79.2319 54.056 79.2319 52.264C79.2319 50.312 79.0719 48.92 78.7519 48.088C78.4639 47.224 77.9359 46.824 77.1679 46.888L73.0399 47.368V56.776H75.7279ZM78.1759 70.024C79.1359 70.088 79.8239 69.672 80.2399 68.776C80.6559 67.848 80.8639 66.28 80.8639 64.072C80.8639 62.888 80.7199 62.024 80.4319 61.48C80.1439 60.904 79.7439 60.552 79.2319 60.424C78.7519 60.264 78.0479 60.184 77.1199 60.184H73.0399V69.448L78.1759 70.024ZM98.3858 73.48C95.9858 73.48 94.1778 72.92 92.9618 71.8C91.7778 70.648 91.1858 68.664 91.1858 65.848V54.664L89.4098 53.944V51.64C92.8338 51.064 94.6898 50.776 94.9778 50.776C95.1378 50.776 95.5058 51.032 96.0818 51.544C96.6578 52.024 96.9458 52.344 96.9458 52.504V65.8C96.9458 68.104 97.7138 69.256 99.2498 69.256C99.5378 69.256 100.722 68.744 102.802 67.72V54.664L101.026 53.944V51.64C104.418 51.064 106.29 50.776 106.642 50.776C106.802 50.776 107.154 51.032 107.698 51.544C108.274 52.024 108.562 52.344 108.562 52.504V69.592L110.386 70.312V72.616C106.962 73.192 105.058 73.48 104.674 73.48C104.514 73.48 104.194 73.24 103.714 72.76C103.266 72.248 103.042 71.912 103.042 71.752V70.264C102.146 70.936 101.17 71.64 100.114 72.376C99.0898 73.112 98.5138 73.48 98.3858 73.48ZM118.658 73.48C118.306 73.48 117.826 73.224 117.218 72.712C116.642 72.2 116.114 71.624 115.634 70.984C115.186 70.312 114.962 69.768 114.962 69.352V54.376H111.698V52.312L114.962 50.872L118.562 46.648C118.818 46.552 119.538 46.776 120.722 47.32V51.256H125.474V54.52H120.722V67.288C120.722 68.152 120.802 68.744 120.962 69.064C121.122 69.352 121.41 69.496 121.826 69.496L125.954 69.688V72.568C124.61 72.792 123.154 73 121.586 73.192C120.018 73.384 119.042 73.48 118.658 73.48ZM133.47 73.48C133.118 73.48 132.638 73.224 132.03 72.712C131.454 72.2 130.926 71.624 130.446 70.984C129.998 70.312 129.774 69.768 129.774 69.352V54.376H126.51V52.312L129.774 50.872L133.374 46.648C133.63 46.552 134.35 46.776 135.534 47.32V51.256H140.286V54.52H135.534V67.288C135.534 68.152 135.614 68.744 135.774 69.064C135.934 69.352 136.222 69.496 136.638 69.496L140.766 69.688V72.568C139.422 72.792 137.966 73 136.398 73.192C134.83 73.384 133.854 73.48 133.47 73.48ZM153.419 73.48C149.899 73.48 147.243 72.632 145.451 70.936C143.659 69.208 142.763 66.568 142.763 63.016C142.763 61.576 142.875 60.184 143.099 58.84C143.323 57.464 143.611 56.44 143.963 55.768C144.315 55.288 145.051 54.632 146.171 53.8C147.323 52.968 148.459 52.232 149.579 51.592C150.731 50.952 151.515 50.632 151.931 50.632C155.387 50.632 157.995 51.512 159.755 53.272C161.547 55.032 162.443 57.592 162.443 60.952C162.443 62.456 162.331 63.88 162.107 65.224C161.883 66.568 161.611 67.672 161.291 68.536C160.715 69.24 159.419 70.248 157.403 71.56C155.387 72.84 154.059 73.48 153.419 73.48ZM153.563 70.36C153.755 70.296 154.443 69.96 155.627 69.352C156.075 67.112 156.299 64.536 156.299 61.624C156.299 59.256 155.915 57.368 155.147 55.96C154.411 54.52 153.275 53.8 151.739 53.8C151.131 53.8 150.635 53.896 150.251 54.088C149.835 54.28 149.499 55.112 149.243 56.584C148.987 58.024 148.859 59.928 148.859 62.296C148.859 65.272 149.307 67.368 150.203 68.584C151.131 69.768 152.251 70.36 153.563 70.36ZM168.953 73.48C168.793 73.48 168.425 73.24 167.849 72.76C167.305 72.248 167.033 71.912 167.033 71.752V54.664L165.209 53.944V51.64C168.633 51.064 170.521 50.776 170.873 50.776C171.033 50.776 171.353 51.032 171.833 51.544C172.313 52.024 172.553 52.344 172.553 52.504V53.992C175.465 51.848 177.049 50.776 177.305 50.776C179.705 50.776 181.497 51.352 182.681 52.504C183.897 53.624 184.505 55.592 184.505 58.408V69.544L186.329 70.264V72.568C182.905 73.176 181.033 73.48 180.713 73.48C180.553 73.48 180.185 73.24 179.609 72.76C179.033 72.248 178.745 71.912 178.745 71.752V58.456C178.745 56.184 177.993 55.048 176.489 55.048C176.233 55.048 175.001 55.544 172.793 56.536V69.544L174.569 70.264V72.568C171.177 73.176 169.305 73.48 168.953 73.48ZM206.984 73.48C205.224 73.48 201.88 73.288 196.952 72.904L197.288 63.832H200.552L201.416 69.016C204.744 69.528 207 69.784 208.184 69.784C208.312 69.784 208.504 69.624 208.76 69.304C209.016 68.952 209.24 68.536 209.432 68.056C209.624 67.544 209.72 67.064 209.72 66.616C209.72 65.464 209.288 64.488 208.424 63.688C207.56 62.888 206.232 61.976 204.44 60.952C202.904 60.056 201.656 59.256 200.696 58.552C199.736 57.848 198.92 56.952 198.248 55.864C197.576 54.776 197.24 53.512 197.24 52.072C197.24 51.208 197.32 50.392 197.48 49.624C197.864 48.888 198.632 48.04 199.784 47.08C200.936 46.088 202.12 45.24 203.336 44.536C204.552 43.8 205.448 43.432 206.024 43.432C206.92 43.432 209.88 43.736 214.904 44.344L214.568 52.84H211.304L210.632 48.136C209.576 47.944 208.392 47.752 207.08 47.56C205.768 47.368 204.808 47.272 204.2 47.272C203.88 47.272 203.592 47.528 203.336 48.04C203.112 48.552 203 49.272 203 50.2C203 51.384 203.416 52.408 204.248 53.272C205.08 54.104 206.296 54.984 207.896 55.912L208.76 56.392C210.296 57.288 211.512 58.088 212.408 58.792C213.336 59.464 214.12 60.312 214.76 61.336C215.432 62.328 215.768 63.512 215.768 64.888C215.768 65.688 215.672 66.504 215.48 67.336C215.064 68.168 214.296 69.064 213.176 70.024C212.088 70.984 210.952 71.8 209.768 72.472C208.584 73.144 207.656 73.48 206.984 73.48ZM221.875 73.48C221.715 73.48 221.347 73.24 220.771 72.76C220.227 72.248 219.955 71.912 219.955 71.752V54.664L218.131 53.944V51.64C221.555 51.064 223.443 50.776 223.795 50.776C223.955 50.776 224.275 51.032 224.755 51.544C225.235 52.024 225.475 52.344 225.475 52.504V53.992C228.035 51.848 229.443 50.776 229.699 50.776C231.363 50.776 232.739 51.032 233.827 51.544C234.915 52.024 235.715 52.84 236.227 53.992C236.995 53.32 237.811 52.616 238.675 51.88C239.571 51.144 240.067 50.776 240.163 50.776C242.787 50.776 244.755 51.352 246.067 52.504C247.379 53.624 248.035 55.592 248.035 58.408V69.544L249.811 70.264V72.568C246.419 73.176 244.563 73.48 244.243 73.48C244.083 73.48 243.715 73.24 243.139 72.76C242.563 72.248 242.275 71.912 242.275 71.752V58.456C242.275 56.184 241.459 55.048 239.827 55.048C239.603 55.048 238.611 55.544 236.851 56.536V69.544L238.579 70.264V72.568C235.219 73.176 233.395 73.48 233.107 73.48C232.915 73.48 232.531 73.24 231.955 72.76C231.379 72.248 231.091 71.912 231.091 71.752V58.456C231.091 56.184 230.339 55.048 228.835 55.048C228.579 55.048 227.539 55.544 225.715 56.536V69.544L227.395 70.264V72.568C224.067 73.176 222.227 73.48 221.875 73.48ZM260.416 73.48C258.08 73.48 256.176 72.584 254.704 70.792C253.264 68.968 252.544 66.376 252.544 63.016C252.544 61.544 252.656 60.152 252.88 58.84C253.104 57.496 253.392 56.456 253.744 55.72C254.32 54.984 255.6 53.976 257.584 52.696C259.6 51.384 260.912 50.728 261.52 50.728C261.872 50.728 263.184 50.904 265.456 51.256C267.76 51.576 269.472 51.832 270.592 52.024V69.592L272.368 70.312V72.616C269.008 73.192 267.136 73.48 266.752 73.48C266.624 73.48 266.304 73.24 265.792 72.76C265.28 72.248 265.024 71.912 265.024 71.752V70.168C264.192 70.84 263.248 71.56 262.192 72.328C261.168 73.096 260.576 73.48 260.416 73.48ZM261.232 69.256C261.456 69.256 262.656 68.712 264.832 67.624V55.048C264.192 54.76 263.408 54.488 262.48 54.232C261.584 53.944 260.912 53.8 260.464 53.8C259.856 53.8 259.392 54.456 259.072 55.768C258.784 57.08 258.64 59.352 258.64 62.584C258.64 63.96 258.768 65.16 259.024 66.184C259.312 67.176 259.664 67.944 260.08 68.488C260.496 69 260.88 69.256 261.232 69.256ZM278.26 73.48C278.1 73.48 277.732 73.24 277.156 72.76C276.612 72.248 276.34 71.912 276.34 71.752V45.544L274.516 44.872V42.568C278.068 41.96 280.02 41.656 280.372 41.656C280.532 41.656 280.852 41.912 281.332 42.424C281.844 42.904 282.1 43.24 282.1 43.432V69.544L283.876 70.264V72.568C280.484 73.176 278.612 73.48 278.26 73.48ZM289.838 73.48C289.678 73.48 289.31 73.24 288.734 72.76C288.19 72.248 287.918 71.912 287.918 71.752V45.544L286.094 44.872V42.568C289.646 41.96 291.598 41.656 291.95 41.656C292.11 41.656 292.43 41.912 292.91 42.424C293.422 42.904 293.678 43.24 293.678 43.432V69.544L295.454 70.264V72.568C292.062 73.176 290.19 73.48 289.838 73.48Z"/>
</mask>
<path d="M63.9679 70.6L66.9439 69.544V47.368L63.9679 46.312V43.912H78.0799C80.5759 43.912 82.4319 44.472 83.6479 45.592C84.8639 46.68 85.4719 48.6 85.4719 51.352C85.4719 52.632 85.2159 53.704 84.7039 54.568C84.2239 55.4 83.6959 56.024 83.1199 56.44C82.5439 56.824 81.8559 57.224 81.0559 57.64V57.928C82.8799 58.248 84.3519 59 85.4719 60.184C86.5919 61.368 87.1519 62.856 87.1519 64.648C87.1519 67.656 86.3519 69.8 84.7519 71.08C83.1839 72.36 81.0719 73 78.4159 73H63.9679V70.6ZM75.7279 56.776C76.9759 56.776 77.8719 56.472 78.4159 55.864C78.9599 55.256 79.2319 54.056 79.2319 52.264C79.2319 50.312 79.0719 48.92 78.7519 48.088C78.4639 47.224 77.9359 46.824 77.1679 46.888L73.0399 47.368V56.776H75.7279ZM78.1759 70.024C79.1359 70.088 79.8239 69.672 80.2399 68.776C80.6559 67.848 80.8639 66.28 80.8639 64.072C80.8639 62.888 80.7199 62.024 80.4319 61.48C80.1439 60.904 79.7439 60.552 79.2319 60.424C78.7519 60.264 78.0479 60.184 77.1199 60.184H73.0399V69.448L78.1759 70.024ZM98.3858 73.48C95.9858 73.48 94.1778 72.92 92.9618 71.8C91.7778 70.648 91.1858 68.664 91.1858 65.848V54.664L89.4098 53.944V51.64C92.8338 51.064 94.6898 50.776 94.9778 50.776C95.1378 50.776 95.5058 51.032 96.0818 51.544C96.6578 52.024 96.9458 52.344 96.9458 52.504V65.8C96.9458 68.104 97.7138 69.256 99.2498 69.256C99.5378 69.256 100.722 68.744 102.802 67.72V54.664L101.026 53.944V51.64C104.418 51.064 106.29 50.776 106.642 50.776C106.802 50.776 107.154 51.032 107.698 51.544C108.274 52.024 108.562 52.344 108.562 52.504V69.592L110.386 70.312V72.616C106.962 73.192 105.058 73.48 104.674 73.48C104.514 73.48 104.194 73.24 103.714 72.76C103.266 72.248 103.042 71.912 103.042 71.752V70.264C102.146 70.936 101.17 71.64 100.114 72.376C99.0898 73.112 98.5138 73.48 98.3858 73.48ZM118.658 73.48C118.306 73.48 117.826 73.224 117.218 72.712C116.642 72.2 116.114 71.624 115.634 70.984C115.186 70.312 114.962 69.768 114.962 69.352V54.376H111.698V52.312L114.962 50.872L118.562 46.648C118.818 46.552 119.538 46.776 120.722 47.32V51.256H125.474V54.52H120.722V67.288C120.722 68.152 120.802 68.744 120.962 69.064C121.122 69.352 121.41 69.496 121.826 69.496L125.954 69.688V72.568C124.61 72.792 123.154 73 121.586 73.192C120.018 73.384 119.042 73.48 118.658 73.48ZM133.47 73.48C133.118 73.48 132.638 73.224 132.03 72.712C131.454 72.2 130.926 71.624 130.446 70.984C129.998 70.312 129.774 69.768 129.774 69.352V54.376H126.51V52.312L129.774 50.872L133.374 46.648C133.63 46.552 134.35 46.776 135.534 47.32V51.256H140.286V54.52H135.534V67.288C135.534 68.152 135.614 68.744 135.774 69.064C135.934 69.352 136.222 69.496 136.638 69.496L140.766 69.688V72.568C139.422 72.792 137.966 73 136.398 73.192C134.83 73.384 133.854 73.48 133.47 73.48ZM153.419 73.48C149.899 73.48 147.243 72.632 145.451 70.936C143.659 69.208 142.763 66.568 142.763 63.016C142.763 61.576 142.875 60.184 143.099 58.84C143.323 57.464 143.611 56.44 143.963 55.768C144.315 55.288 145.051 54.632 146.171 53.8C147.323 52.968 148.459 52.232 149.579 51.592C150.731 50.952 151.515 50.632 151.931 50.632C155.387 50.632 157.995 51.512 159.755 53.272C161.547 55.032 162.443 57.592 162.443 60.952C162.443 62.456 162.331 63.88 162.107 65.224C161.883 66.568 161.611 67.672 161.291 68.536C160.715 69.24 159.419 70.248 157.403 71.56C155.387 72.84 154.059 73.48 153.419 73.48ZM153.563 70.36C153.755 70.296 154.443 69.96 155.627 69.352C156.075 67.112 156.299 64.536 156.299 61.624C156.299 59.256 155.915 57.368 155.147 55.96C154.411 54.52 153.275 53.8 151.739 53.8C151.131 53.8 150.635 53.896 150.251 54.088C149.835 54.28 149.499 55.112 149.243 56.584C148.987 58.024 148.859 59.928 148.859 62.296C148.859 65.272 149.307 67.368 150.203 68.584C151.131 69.768 152.251 70.36 153.563 70.36ZM168.953 73.48C168.793 73.48 168.425 73.24 167.849 72.76C167.305 72.248 167.033 71.912 167.033 71.752V54.664L165.209 53.944V51.64C168.633 51.064 170.521 50.776 170.873 50.776C171.033 50.776 171.353 51.032 171.833 51.544C172.313 52.024 172.553 52.344 172.553 52.504V53.992C175.465 51.848 177.049 50.776 177.305 50.776C179.705 50.776 181.497 51.352 182.681 52.504C183.897 53.624 184.505 55.592 184.505 58.408V69.544L186.329 70.264V72.568C182.905 73.176 181.033 73.48 180.713 73.48C180.553 73.48 180.185 73.24 179.609 72.76C179.033 72.248 178.745 71.912 178.745 71.752V58.456C178.745 56.184 177.993 55.048 176.489 55.048C176.233 55.048 175.001 55.544 172.793 56.536V69.544L174.569 70.264V72.568C171.177 73.176 169.305 73.48 168.953 73.48ZM206.984 73.48C205.224 73.48 201.88 73.288 196.952 72.904L197.288 63.832H200.552L201.416 69.016C204.744 69.528 207 69.784 208.184 69.784C208.312 69.784 208.504 69.624 208.76 69.304C209.016 68.952 209.24 68.536 209.432 68.056C209.624 67.544 209.72 67.064 209.72 66.616C209.72 65.464 209.288 64.488 208.424 63.688C207.56 62.888 206.232 61.976 204.44 60.952C202.904 60.056 201.656 59.256 200.696 58.552C199.736 57.848 198.92 56.952 198.248 55.864C197.576 54.776 197.24 53.512 197.24 52.072C197.24 51.208 197.32 50.392 197.48 49.624C197.864 48.888 198.632 48.04 199.784 47.08C200.936 46.088 202.12 45.24 203.336 44.536C204.552 43.8 205.448 43.432 206.024 43.432C206.92 43.432 209.88 43.736 214.904 44.344L214.568 52.84H211.304L210.632 48.136C209.576 47.944 208.392 47.752 207.08 47.56C205.768 47.368 204.808 47.272 204.2 47.272C203.88 47.272 203.592 47.528 203.336 48.04C203.112 48.552 203 49.272 203 50.2C203 51.384 203.416 52.408 204.248 53.272C205.08 54.104 206.296 54.984 207.896 55.912L208.76 56.392C210.296 57.288 211.512 58.088 212.408 58.792C213.336 59.464 214.12 60.312 214.76 61.336C215.432 62.328 215.768 63.512 215.768 64.888C215.768 65.688 215.672 66.504 215.48 67.336C215.064 68.168 214.296 69.064 213.176 70.024C212.088 70.984 210.952 71.8 209.768 72.472C208.584 73.144 207.656 73.48 206.984 73.48ZM221.875 73.48C221.715 73.48 221.347 73.24 220.771 72.76C220.227 72.248 219.955 71.912 219.955 71.752V54.664L218.131 53.944V51.64C221.555 51.064 223.443 50.776 223.795 50.776C223.955 50.776 224.275 51.032 224.755 51.544C225.235 52.024 225.475 52.344 225.475 52.504V53.992C228.035 51.848 229.443 50.776 229.699 50.776C231.363 50.776 232.739 51.032 233.827 51.544C234.915 52.024 235.715 52.84 236.227 53.992C236.995 53.32 237.811 52.616 238.675 51.88C239.571 51.144 240.067 50.776 240.163 50.776C242.787 50.776 244.755 51.352 246.067 52.504C247.379 53.624 248.035 55.592 248.035 58.408V69.544L249.811 70.264V72.568C246.419 73.176 244.563 73.48 244.243 73.48C244.083 73.48 243.715 73.24 243.139 72.76C242.563 72.248 242.275 71.912 242.275 71.752V58.456C242.275 56.184 241.459 55.048 239.827 55.048C239.603 55.048 238.611 55.544 236.851 56.536V69.544L238.579 70.264V72.568C235.219 73.176 233.395 73.48 233.107 73.48C232.915 73.48 232.531 73.24 231.955 72.76C231.379 72.248 231.091 71.912 231.091 71.752V58.456C231.091 56.184 230.339 55.048 228.835 55.048C228.579 55.048 227.539 55.544 225.715 56.536V69.544L227.395 70.264V72.568C224.067 73.176 222.227 73.48 221.875 73.48ZM260.416 73.48C258.08 73.48 256.176 72.584 254.704 70.792C253.264 68.968 252.544 66.376 252.544 63.016C252.544 61.544 252.656 60.152 252.88 58.84C253.104 57.496 253.392 56.456 253.744 55.72C254.32 54.984 255.6 53.976 257.584 52.696C259.6 51.384 260.912 50.728 261.52 50.728C261.872 50.728 263.184 50.904 265.456 51.256C267.76 51.576 269.472 51.832 270.592 52.024V69.592L272.368 70.312V72.616C269.008 73.192 267.136 73.48 266.752 73.48C266.624 73.48 266.304 73.24 265.792 72.76C265.28 72.248 265.024 71.912 265.024 71.752V70.168C264.192 70.84 263.248 71.56 262.192 72.328C261.168 73.096 260.576 73.48 260.416 73.48ZM261.232 69.256C261.456 69.256 262.656 68.712 264.832 67.624V55.048C264.192 54.76 263.408 54.488 262.48 54.232C261.584 53.944 260.912 53.8 260.464 53.8C259.856 53.8 259.392 54.456 259.072 55.768C258.784 57.08 258.64 59.352 258.64 62.584C258.64 63.96 258.768 65.16 259.024 66.184C259.312 67.176 259.664 67.944 260.08 68.488C260.496 69 260.88 69.256 261.232 69.256ZM278.26 73.48C278.1 73.48 277.732 73.24 277.156 72.76C276.612 72.248 276.34 71.912 276.34 71.752V45.544L274.516 44.872V42.568C278.068 41.96 280.02 41.656 280.372 41.656C280.532 41.656 280.852 41.912 281.332 42.424C281.844 42.904 282.1 43.24 282.1 43.432V69.544L283.876 70.264V72.568C280.484 73.176 278.612 73.48 278.26 73.48ZM289.838 73.48C289.678 73.48 289.31 73.24 288.734 72.76C288.19 72.248 287.918 71.912 287.918 71.752V45.544L286.094 44.872V42.568C289.646 41.96 291.598 41.656 291.95 41.656C292.11 41.656 292.43 41.912 292.91 42.424C293.422 42.904 293.678 43.24 293.678 43.432V69.544L295.454 70.264V72.568C292.062 73.176 290.19 73.48 289.838 73.48Z" fill="white"/>
<path d="M63.9679 70.6L63.8007 70.1288L63.4679 70.2469V70.6H63.9679ZM66.9439 69.544L67.1111 70.0152L67.4439 69.8971V69.544H66.9439ZM66.9439 47.368H67.4439V47.0149L67.1111 46.8968L66.9439 47.368ZM63.9679 46.312H63.4679V46.6651L63.8007 46.7832L63.9679 46.312ZM63.9679 43.912V43.412H63.4679V43.912H63.9679ZM83.6479 45.592L83.3092 45.9598L83.3145 45.9646L83.6479 45.592ZM84.7039 54.568L84.2738 54.3131L84.2708 54.3181L84.7039 54.568ZM83.1199 56.44L83.3973 56.856L83.4051 56.8508L83.4127 56.8453L83.1199 56.44ZM81.0559 57.64L80.8253 57.1964L80.5559 57.3364V57.64H81.0559ZM81.0559 57.928H80.5559V58.3479L80.9695 58.4205L81.0559 57.928ZM85.4719 60.184L85.8352 59.8404L85.4719 60.184ZM84.7519 71.08L84.4396 70.6895L84.4357 70.6927L84.7519 71.08ZM63.9679 73H63.4679V73.5H63.9679V73ZM78.4159 55.864L78.0433 55.5306L78.4159 55.864ZM78.7519 48.088L78.2776 48.2461L78.2812 48.2569L78.2853 48.2675L78.7519 48.088ZM77.1679 46.888L77.1264 46.3897L77.1183 46.3904L77.1102 46.3913L77.1679 46.888ZM73.0399 47.368L72.9822 46.8713L72.5399 46.9228V47.368H73.0399ZM73.0399 56.776H72.5399V57.276H73.0399V56.776ZM78.1759 70.024L78.1202 70.5209L78.1314 70.5221L78.1427 70.5229L78.1759 70.024ZM80.2399 68.776L80.6935 68.9866L80.6962 68.9805L80.2399 68.776ZM80.4319 61.48L79.9846 61.7037L79.99 61.7139L80.4319 61.48ZM79.2319 60.424L79.0738 60.8983L79.092 60.9044L79.1107 60.9091L79.2319 60.424ZM73.0399 60.184V59.684H72.5399V60.184H73.0399ZM73.0399 69.448H72.5399V69.8951L72.9842 69.9449L73.0399 69.448ZM64.1351 71.0712L67.1111 70.0152L66.7767 69.0728L63.8007 70.1288L64.1351 71.0712ZM67.4439 69.544V47.368H66.4439V69.544H67.4439ZM67.1111 46.8968L64.1351 45.8408L63.8007 46.7832L66.7767 47.8392L67.1111 46.8968ZM64.4679 46.312V43.912H63.4679V46.312H64.4679ZM63.9679 44.412H78.0799V43.412H63.9679V44.412ZM78.0799 44.412C80.5127 44.412 82.2229 44.9592 83.3092 45.9598L83.9867 45.2242C82.641 43.9848 80.6391 43.412 78.0799 43.412V44.412ZM83.3145 45.9646C84.3706 46.9095 84.9719 48.6488 84.9719 51.352H85.9719C85.9719 48.5512 85.3573 46.4505 83.9813 45.2194L83.3145 45.9646ZM84.9719 51.352C84.9719 52.5665 84.7291 53.5447 84.2738 54.3131L85.1341 54.8229C85.7028 53.8633 85.9719 52.6975 85.9719 51.352H84.9719ZM84.2708 54.3181C83.8144 55.1093 83.3296 55.6718 82.8272 56.0347L83.4127 56.8453C84.0623 56.3762 84.6335 55.6907 85.137 54.8179L84.2708 54.3181ZM82.8426 56.024C82.2853 56.3955 81.6137 56.7864 80.8253 57.1964L81.2866 58.0836C82.0982 57.6616 82.8025 57.2525 83.3973 56.856L82.8426 56.024ZM80.5559 57.64V57.928H81.5559V57.64H80.5559ZM80.9695 58.4205C82.7027 58.7245 84.0724 59.4321 85.1087 60.5276L85.8352 59.8404C84.6314 58.5679 83.0572 57.7715 81.1423 57.4355L80.9695 58.4205ZM85.1087 60.5276C86.1318 61.6092 86.6519 62.9699 86.6519 64.648H87.6519C87.6519 62.7421 87.0521 61.1268 85.8352 59.8404L85.1087 60.5276ZM86.6519 64.648C86.6519 67.5776 85.8735 69.5424 84.4396 70.6896L85.0643 71.4704C86.8304 70.0576 87.6519 67.7344 87.6519 64.648H86.6519ZM84.4357 70.6927C82.9816 71.8797 80.993 72.5 78.4159 72.5V73.5C81.1509 73.5 83.3863 72.8403 85.0681 71.4673L84.4357 70.6927ZM78.4159 72.5H63.9679V73.5H78.4159V72.5ZM64.4679 73V70.6H63.4679V73H64.4679ZM75.7279 57.276C77.043 57.276 78.1091 56.9568 78.7886 56.1974L78.0433 55.5306C77.6348 55.9872 76.9089 56.276 75.7279 56.276V57.276ZM78.7886 56.1974C79.1388 55.8059 79.3696 55.2626 79.5156 54.6185C79.6626 53.9699 79.7319 53.1819 79.7319 52.264H78.7319C78.7319 53.1381 78.6653 53.8461 78.5403 54.3975C78.4143 54.9534 78.237 55.3141 78.0433 55.5306L78.7886 56.1974ZM79.7319 52.264C79.7319 50.3062 79.5743 48.8334 79.2186 47.9085L78.2853 48.2675C78.5696 49.0066 78.7319 50.3178 78.7319 52.264H79.7319ZM79.2263 47.9299C79.062 47.4371 78.8113 47.0213 78.4419 46.7415C78.0638 46.455 77.6119 46.3493 77.1264 46.3897L77.2095 47.3863C77.4919 47.3627 77.6881 47.425 77.838 47.5385C77.9966 47.6587 78.1539 47.8749 78.2776 48.2461L79.2263 47.9299ZM77.1102 46.3913L72.9822 46.8713L73.0977 47.8647L77.2257 47.3847L77.1102 46.3913ZM72.5399 47.368V56.776H73.5399V47.368H72.5399ZM73.0399 57.276H75.7279V56.276H73.0399V57.276ZM78.1427 70.5229C78.7044 70.5603 79.2228 70.4587 79.6706 70.1879C80.1175 69.9177 80.4532 69.504 80.6934 68.9866L79.7864 68.5654C79.6107 68.944 79.3944 69.1863 79.1532 69.3321C78.9131 69.4773 78.6074 69.5517 78.2092 69.5251L78.1427 70.5229ZM80.6962 68.9805C81.1589 67.9482 81.3639 66.2869 81.3639 64.072H80.3639C80.3639 66.2731 80.1529 67.7478 79.7837 68.5715L80.6962 68.9805ZM81.3639 64.072C81.3639 62.8687 81.2212 61.9021 80.8738 61.2461L79.99 61.7139C80.2187 62.1459 80.3639 62.9073 80.3639 64.072H81.3639ZM80.8792 61.2564C80.5416 60.5812 80.0376 60.11 79.3532 59.9389L79.1107 60.9091C79.4502 60.994 79.7463 61.2268 79.9847 61.7036L80.8792 61.2564ZM79.3901 59.9497C78.833 59.764 78.0647 59.684 77.1199 59.684V60.684C78.0312 60.684 78.6709 60.764 79.0738 60.8983L79.3901 59.9497ZM77.1199 59.684H73.0399V60.684H77.1199V59.684ZM72.5399 60.184V69.448H73.5399V60.184H72.5399ZM72.9842 69.9449L78.1202 70.5209L78.2317 69.5271L73.0957 68.9511L72.9842 69.9449ZM92.9618 71.8L92.613 72.1585L92.6231 72.1678L92.9618 71.8ZM91.1858 54.664H91.6858V54.3272L91.3737 54.2006L91.1858 54.664ZM89.4098 53.944H88.9098V54.2808L89.222 54.4074L89.4098 53.944ZM89.4098 51.64L89.3269 51.1469L88.9098 51.2171V51.64H89.4098ZM96.0818 51.544L95.7496 51.9177L95.7556 51.923L95.7617 51.9281L96.0818 51.544ZM102.802 67.72L103.023 68.1686L103.302 68.0312V67.72H102.802ZM102.802 54.664H103.302V54.3272L102.99 54.2006L102.802 54.664ZM101.026 53.944H100.526V54.2808L100.838 54.4074L101.026 53.944ZM101.026 51.64L100.942 51.1471L100.526 51.2177V51.64H101.026ZM107.698 51.544L107.355 51.9081L107.366 51.9184L107.378 51.9281L107.698 51.544ZM108.562 69.592H108.062V69.9322L108.378 70.0571L108.562 69.592ZM110.386 70.312H110.886V69.9718L110.569 69.8469L110.386 70.312ZM110.386 72.616L110.469 73.1091L110.886 73.0389V72.616H110.386ZM103.714 72.76L103.338 73.0893L103.348 73.1018L103.36 73.1136L103.714 72.76ZM103.042 70.264H103.542V69.264L102.742 69.864L103.042 70.264ZM100.114 72.376L99.8279 71.9658L99.822 71.97L100.114 72.376ZM98.3858 72.98C96.0553 72.98 94.3899 72.4356 93.3006 71.4322L92.6231 72.1678C93.9657 73.4044 95.9164 73.98 98.3858 73.98V72.98ZM93.3105 71.4416C92.2726 70.4318 91.6858 68.6184 91.6858 65.848H90.6858C90.6858 68.7096 91.283 70.8642 92.6131 72.1584L93.3105 71.4416ZM91.6858 65.848V54.664H90.6858V65.848H91.6858ZM91.3737 54.2006L89.5977 53.4806L89.222 54.4074L90.998 55.1274L91.3737 54.2006ZM89.9098 53.944V51.64H88.9098V53.944H89.9098ZM89.4928 52.1331C91.2041 51.8452 92.5216 51.6296 93.4465 51.4861C93.9092 51.4143 94.2713 51.3609 94.5344 51.3255C94.6661 51.3079 94.7705 51.295 94.849 51.2867C94.8882 51.2826 94.9191 51.2797 94.9425 51.278C94.9542 51.2771 94.963 51.2766 94.9695 51.2763C94.9762 51.276 94.9787 51.276 94.9778 51.276V50.276C94.8652 50.276 94.6582 50.2999 94.4012 50.3344C94.1283 50.3711 93.7585 50.4257 93.2931 50.4979C92.362 50.6424 91.0395 50.8588 89.3269 51.1469L89.4928 52.1331ZM94.9778 51.276C94.9029 51.276 94.8731 51.2518 94.9187 51.2739C94.9524 51.2903 95.0078 51.3224 95.0883 51.3785C95.2485 51.4899 95.4675 51.667 95.7496 51.9177L96.414 51.1703C96.1201 50.909 95.8671 50.7021 95.6593 50.5575C95.5559 50.4856 95.4532 50.4217 95.3549 50.3741C95.2685 50.3322 95.1327 50.276 94.9778 50.276V51.276ZM95.7617 51.9281C96.0427 52.1622 96.2376 52.3446 96.3582 52.4785C96.4188 52.5459 96.4499 52.5893 96.4631 52.6112C96.4829 52.6443 96.4458 52.5996 96.4458 52.504H97.4458C97.4458 52.3284 97.3727 52.1837 97.3206 52.0968C97.2617 51.9987 97.1848 51.9021 97.1015 51.8095C96.934 51.6234 96.6969 51.4058 96.4019 51.1599L95.7617 51.9281ZM96.4458 52.504V65.8H97.4458V52.504H96.4458ZM96.4458 65.8C96.4458 66.9918 96.6416 67.973 97.1058 68.6693C97.5939 69.4015 98.3362 69.756 99.2498 69.756V68.756C98.6275 68.756 98.2178 68.5345 97.9378 68.1147C97.6341 67.659 97.4458 66.9122 97.4458 65.8H96.4458ZM99.2498 69.756C99.4181 69.756 99.6221 69.6934 99.7981 69.6322C99.9986 69.5625 100.251 69.4611 100.552 69.3309C101.156 69.0701 101.98 68.6819 103.023 68.1686L102.581 67.2714C101.544 67.7822 100.736 68.1619 100.155 68.4131C99.8644 68.5389 99.637 68.6295 99.4696 68.6878C99.2775 68.7546 99.2255 68.756 99.2498 68.756V69.756ZM103.302 67.72V54.664H102.302V67.72H103.302ZM102.99 54.2006L101.214 53.4806L100.838 54.4074L102.614 55.1274L102.99 54.2006ZM101.526 53.944V51.64H100.526V53.944H101.526ZM101.11 52.1329C102.805 51.8451 104.118 51.6296 105.05 51.4862C105.516 51.4144 105.885 51.3611 106.157 51.3259C106.442 51.289 106.592 51.276 106.642 51.276V50.276C106.516 50.276 106.3 50.299 106.029 50.3341C105.745 50.3709 105.367 50.4256 104.898 50.4978C103.958 50.6424 102.639 50.8589 100.942 51.1471L101.11 52.1329ZM106.642 51.276C106.565 51.276 106.533 51.2506 106.574 51.2712C106.604 51.2863 106.656 51.3171 106.732 51.3724C106.883 51.4823 107.089 51.6579 107.355 51.9081L108.04 51.1799C107.762 50.9181 107.521 50.7097 107.32 50.5636C107.22 50.4909 107.119 50.4257 107.021 50.3768C106.935 50.3334 106.799 50.276 106.642 50.276V51.276ZM107.378 51.9281C107.659 52.1622 107.854 52.3446 107.974 52.4785C108.035 52.5459 108.066 52.5893 108.079 52.6112C108.099 52.6443 108.062 52.5996 108.062 52.504H109.062C109.062 52.3284 108.989 52.1837 108.937 52.0968C108.878 51.9987 108.801 51.9021 108.717 51.8095C108.55 51.6234 108.313 51.4058 108.018 51.1599L107.378 51.9281ZM108.062 52.504V69.592H109.062V52.504H108.062ZM108.378 70.0571L110.202 70.7771L110.569 69.8469L108.745 69.1269L108.378 70.0571ZM109.886 70.312V72.616H110.886V70.312H109.886ZM110.303 72.1229C108.592 72.4108 107.263 72.6262 106.315 72.7696C105.344 72.9166 104.818 72.98 104.674 72.98V73.98C104.913 73.98 105.532 73.8994 106.465 73.7584C107.421 73.6138 108.756 73.3972 110.469 73.1091L110.303 72.1229ZM104.674 72.98C104.747 72.98 104.779 73.0036 104.747 72.9878C104.724 72.976 104.68 72.9498 104.614 72.9C104.481 72.8006 104.3 72.6395 104.067 72.4064L103.36 73.1136C103.607 73.3605 103.826 73.5594 104.014 73.7C104.107 73.7702 104.204 73.834 104.3 73.8822C104.389 73.9264 104.521 73.98 104.674 73.98V72.98ZM104.09 72.4307C103.872 72.1817 103.72 71.9884 103.626 71.8466C103.578 71.7756 103.552 71.7275 103.539 71.6992C103.523 71.6627 103.542 71.6879 103.542 71.752H102.542C102.542 71.8961 102.589 72.0233 102.628 72.1108C102.671 72.2065 102.729 72.3044 102.794 72.4014C102.923 72.5956 103.107 72.8263 103.338 73.0893L104.09 72.4307ZM103.542 71.752V70.264H102.542V71.752H103.542ZM102.742 69.864C101.851 70.5321 100.88 71.2326 99.8279 71.9658L100.4 72.7862C101.46 72.0474 102.441 71.3399 103.342 70.664L102.742 69.864ZM99.822 71.97C99.3123 72.3363 98.9211 72.606 98.6446 72.7827C98.5055 72.8715 98.4034 72.9317 98.3342 72.9679C98.2991 72.9862 98.2809 72.9939 98.2758 72.9959C98.2572 73.003 98.3057 72.98 98.3858 72.98V73.98C98.4979 73.98 98.5924 73.9455 98.6338 73.9296C98.6887 73.9086 98.7445 73.8818 98.7974 73.8541C98.9042 73.7983 99.0341 73.7205 99.183 73.6253C99.4826 73.434 99.8913 73.1517 100.406 72.782L99.822 71.97ZM117.218 72.712L116.885 73.0858L116.895 73.0945L117.218 72.712ZM115.634 70.984L115.218 71.2613L115.225 71.2729L115.234 71.284L115.634 70.984ZM114.962 54.376H115.462V53.876H114.962V54.376ZM111.698 54.376H111.198V54.876H111.698V54.376ZM111.698 52.312L111.496 51.8545L111.198 51.9861V52.312H111.698ZM114.962 50.872L115.163 51.3295L115.268 51.2833L115.342 51.1963L114.962 50.872ZM118.562 46.648L118.386 46.1798L118.265 46.2252L118.181 46.3237L118.562 46.648ZM120.722 47.32H121.222V46.9995L120.93 46.8657L120.722 47.32ZM120.722 51.256H120.222V51.756H120.722V51.256ZM125.474 51.256H125.974V50.756H125.474V51.256ZM125.474 54.52V55.02H125.974V54.52H125.474ZM120.722 54.52V54.02H120.222V54.52H120.722ZM120.962 69.064L120.514 69.2876L120.519 69.2973L120.524 69.3068L120.962 69.064ZM121.826 69.496L121.849 68.9965L121.837 68.996H121.826V69.496ZM125.954 69.688H126.454V69.2107L125.977 69.1885L125.954 69.688ZM125.954 72.568L126.036 73.0612L126.454 72.9916V72.568H125.954ZM121.586 73.192L121.525 72.6957L121.586 73.192ZM118.658 72.98C118.596 72.98 118.472 72.9554 118.269 72.8468C118.07 72.7409 117.828 72.5723 117.54 72.3295L116.895 73.0945C117.215 73.3637 117.517 73.5791 117.798 73.7292C118.075 73.8766 118.367 73.98 118.658 73.98V72.98ZM117.55 72.3383C117 71.8494 116.494 71.2982 116.034 70.684L115.234 71.284C115.733 71.9498 116.283 72.5506 116.885 73.0857L117.55 72.3383ZM116.05 70.7066C115.613 70.052 115.462 69.6128 115.462 69.352H114.462C114.462 69.9232 114.758 70.572 115.218 71.2613L116.05 70.7066ZM115.462 69.352V54.376H114.462V69.352H115.462ZM114.962 53.876H111.698V54.876H114.962V53.876ZM112.198 54.376V52.312H111.198V54.376H112.198ZM111.899 52.7695L115.163 51.3295L114.76 50.4145L111.496 51.8545L111.899 52.7695ZM115.342 51.1963L118.942 46.9723L118.181 46.3237L114.581 50.5477L115.342 51.1963ZM118.737 47.1162C118.685 47.1356 118.679 47.1191 118.776 47.1318C118.859 47.1426 118.98 47.1699 119.145 47.2214C119.475 47.3241 119.929 47.5059 120.513 47.7743L120.93 46.8657C120.331 46.5901 119.832 46.3879 119.442 46.2666C119.248 46.206 119.067 46.1614 118.906 46.1402C118.758 46.1209 118.566 46.1124 118.386 46.1798L118.737 47.1162ZM120.222 47.32V51.256H121.222V47.32H120.222ZM120.722 51.756H125.474V50.756H120.722V51.756ZM124.974 51.256V54.52H125.974V51.256H124.974ZM125.474 54.02H120.722V55.02H125.474V54.02ZM120.222 54.52V67.288H121.222V54.52H120.222ZM120.222 67.288C120.222 67.7334 120.242 68.1214 120.286 68.447C120.329 68.7661 120.399 69.0564 120.514 69.2876L121.409 68.8404C121.364 68.7516 121.314 68.5859 121.277 68.313C121.241 68.0466 121.222 67.7066 121.222 67.288H120.222ZM120.524 69.3068C120.797 69.797 121.284 69.996 121.826 69.996V68.996C121.535 68.996 121.446 68.907 121.399 68.8212L120.524 69.3068ZM121.802 69.9955L125.93 70.1875L125.977 69.1885L121.849 68.9965L121.802 69.9955ZM125.454 69.688V72.568H126.454V69.688H125.454ZM125.871 72.0748C124.535 72.2974 123.087 72.5044 121.525 72.6957L121.646 73.6883C123.22 73.4956 124.684 73.2866 126.036 73.0612L125.871 72.0748ZM121.525 72.6957C119.945 72.8892 119.004 72.98 118.658 72.98V73.98C119.079 73.98 120.09 73.8788 121.646 73.6883L121.525 72.6957ZM132.03 72.712L131.698 73.0858L131.708 73.0945L132.03 72.712ZM130.446 70.984L130.03 71.2613L130.038 71.2729L130.046 71.284L130.446 70.984ZM129.774 54.376H130.274V53.876H129.774V54.376ZM126.51 54.376H126.01V54.876H126.51V54.376ZM126.51 52.312L126.308 51.8545L126.01 51.9861V52.312H126.51ZM129.774 50.872L129.976 51.3295L130.08 51.2833L130.155 51.1963L129.774 50.872ZM133.374 46.648L133.199 46.1798L133.077 46.2252L132.994 46.3237L133.374 46.648ZM135.534 47.32H136.034V46.9995L135.743 46.8657L135.534 47.32ZM135.534 51.256H135.034V51.756H135.534V51.256ZM140.286 51.256H140.786V50.756H140.286V51.256ZM140.286 54.52V55.02H140.786V54.52H140.286ZM135.534 54.52V54.02H135.034V54.52H135.534ZM135.774 69.064L135.327 69.2876L135.332 69.2973L135.337 69.3068L135.774 69.064ZM136.638 69.496L136.661 68.9965L136.65 68.996H136.638V69.496ZM140.766 69.688H141.266V69.2107L140.789 69.1885L140.766 69.688ZM140.766 72.568L140.848 73.0612L141.266 72.9916V72.568H140.766ZM136.398 73.192L136.337 72.6957L136.398 73.192ZM133.47 72.98C133.409 72.98 133.285 72.9554 133.081 72.8468C132.883 72.7409 132.64 72.5723 132.352 72.3295L131.708 73.0945C132.028 73.3637 132.329 73.5791 132.611 73.7292C132.887 73.8766 133.179 73.98 133.47 73.98V72.98ZM132.362 72.3383C131.812 71.8494 131.307 71.2982 130.846 70.684L130.046 71.284C130.545 71.9498 131.096 72.5506 131.698 73.0857L132.362 72.3383ZM130.862 70.7066C130.426 70.052 130.274 69.6128 130.274 69.352H129.274C129.274 69.9232 129.571 70.572 130.03 71.2613L130.862 70.7066ZM130.274 69.352V54.376H129.274V69.352H130.274ZM129.774 53.876H126.51V54.876H129.774V53.876ZM127.01 54.376V52.312H126.01V54.376H127.01ZM126.712 52.7695L129.976 51.3295L129.572 50.4145L126.308 51.8545L126.712 52.7695ZM130.155 51.1963L133.755 46.9723L132.994 46.3237L129.394 50.5477L130.155 51.1963ZM133.55 47.1162C133.498 47.1356 133.492 47.1191 133.588 47.1318C133.671 47.1426 133.792 47.1699 133.958 47.2214C134.287 47.3241 134.741 47.5059 135.325 47.7743L135.743 46.8657C135.143 46.5901 134.645 46.3879 134.255 46.2666C134.06 46.206 133.879 46.1614 133.718 46.1402C133.57 46.1209 133.378 46.1124 133.199 46.1798L133.55 47.1162ZM135.034 47.32V51.256H136.034V47.32H135.034ZM135.534 51.756H140.286V50.756H135.534V51.756ZM139.786 51.256V54.52H140.786V51.256H139.786ZM140.286 54.02H135.534V55.02H140.286V54.02ZM135.034 54.52V67.288H136.034V54.52H135.034ZM135.034 67.288C135.034 67.7334 135.055 68.1214 135.099 68.447C135.142 68.7661 135.211 69.0564 135.327 69.2876L136.221 68.8404C136.177 68.7516 136.126 68.5859 136.09 68.313C136.054 68.0466 136.034 67.7066 136.034 67.288H135.034ZM135.337 69.3068C135.609 69.797 136.096 69.996 136.638 69.996V68.996C136.348 68.996 136.259 68.907 136.211 68.8212L135.337 69.3068ZM136.615 69.9955L140.743 70.1875L140.789 69.1885L136.661 68.9965L136.615 69.9955ZM140.266 69.688V72.568H141.266V69.688H140.266ZM140.684 72.0748C139.348 72.2974 137.899 72.5044 136.337 72.6957L136.459 73.6883C138.033 73.4956 139.496 73.2866 140.848 73.0612L140.684 72.0748ZM136.337 72.6957C134.757 72.8892 133.817 72.98 133.47 72.98V73.98C133.892 73.98 134.903 73.8788 136.459 73.6883L136.337 72.6957ZM145.451 70.936L145.103 71.2959L145.107 71.2991L145.451 70.936ZM143.099 58.84L143.592 58.9222L143.592 58.9203L143.099 58.84ZM143.963 55.768L143.559 55.4723L143.537 55.5027L143.52 55.536L143.963 55.768ZM146.171 53.8L145.878 53.3946L145.872 53.3986L146.171 53.8ZM149.579 51.592L149.336 51.1549L149.33 51.1579L149.579 51.592ZM159.755 53.272L159.401 53.6256L159.404 53.6287L159.755 53.272ZM162.107 65.224L162.6 65.3062L162.107 65.224ZM161.291 68.536L161.678 68.8526L161.73 68.788L161.759 68.7097L161.291 68.536ZM157.403 71.56L157.671 71.9821L157.675 71.9791L157.403 71.56ZM153.563 70.36V70.86H153.644L153.721 70.8343L153.563 70.36ZM155.627 69.352L155.855 69.7968L156.07 69.6866L156.117 69.4501L155.627 69.352ZM155.147 55.96L154.701 56.1876L154.708 56.1994L155.147 55.96ZM150.251 54.088L150.46 54.542L150.467 54.5387L150.474 54.5352L150.251 54.088ZM149.243 56.584L149.735 56.6715L149.735 56.6697L149.243 56.584ZM150.203 68.584L149.8 68.8806L149.804 68.8866L149.809 68.8924L150.203 68.584ZM153.419 72.98C149.972 72.98 147.46 72.1496 145.794 70.5729L145.107 71.2991C147.025 73.1144 149.825 73.98 153.419 73.98V72.98ZM145.798 70.5761C144.139 68.9765 143.263 66.491 143.263 63.016H142.263C142.263 66.645 143.178 69.4395 145.103 71.2959L145.798 70.5761ZM143.263 63.016C143.263 61.602 143.373 60.2375 143.592 58.9222L142.605 58.7578C142.377 60.1305 142.263 61.55 142.263 63.016H143.263ZM143.592 58.9203C143.813 57.5607 144.091 56.6001 144.405 56L143.52 55.536C143.13 56.2799 142.832 57.3673 142.605 58.7597L143.592 58.9203ZM144.366 56.0637C144.669 55.6502 145.35 55.0328 146.469 54.2014L145.872 53.3986C144.752 54.2312 143.96 54.9258 143.559 55.4723L144.366 56.0637ZM146.463 54.2053C147.602 53.3827 148.723 52.6565 149.827 52.0261L149.33 51.1579C148.194 51.8075 147.043 52.5533 145.878 53.3947L146.463 54.2053ZM149.821 52.0291C150.388 51.7141 150.853 51.4845 151.22 51.3349C151.601 51.1793 151.825 51.132 151.931 51.132V50.132C151.62 50.132 151.244 50.2447 150.842 50.4091C150.424 50.5795 149.921 50.8299 149.336 51.1549L149.821 52.0291ZM151.931 51.132C155.306 51.132 157.766 51.9908 159.401 53.6256L160.108 52.9184C158.223 51.0332 155.467 50.132 151.931 50.132V51.132ZM159.404 53.6287C161.072 55.2663 161.943 57.6793 161.943 60.952H162.943C162.943 57.5047 162.022 54.7977 160.105 52.9153L159.404 53.6287ZM161.943 60.952C161.943 62.4313 161.832 63.8276 161.613 65.1418L162.6 65.3062C162.829 63.9324 162.943 62.4807 162.943 60.952H161.943ZM161.613 65.1418C161.392 66.4679 161.127 67.5384 160.822 68.3623L161.759 68.7097C162.094 67.8056 162.373 66.6681 162.6 65.3062L161.613 65.1418ZM160.904 68.2194C160.383 68.8553 159.151 69.8255 157.13 71.1409L157.675 71.9791C159.686 70.6705 161.046 69.6247 161.678 68.8526L160.904 68.2194ZM157.135 71.1379C156.134 71.773 155.317 72.2415 154.677 72.5496C154.015 72.8688 153.614 72.98 153.419 72.98V73.98C153.863 73.98 154.446 73.7712 155.112 73.4504C155.8 73.1185 156.655 72.627 157.671 71.9821L157.135 71.1379ZM153.721 70.8343C153.855 70.7896 154.108 70.6724 154.442 70.5093C154.79 70.3391 155.262 70.1014 155.855 69.7968L155.398 68.9072C154.807 69.2106 154.343 69.4449 154.003 69.6107C153.649 69.7836 153.462 69.8664 153.404 69.8857L153.721 70.8343ZM156.117 69.4501C156.573 67.1704 156.799 64.5604 156.799 61.624H155.799C155.799 64.5116 155.576 67.0536 155.136 69.2539L156.117 69.4501ZM156.799 61.624C156.799 59.2093 156.408 57.2288 155.586 55.7206L154.708 56.1994C155.421 57.5072 155.799 59.3027 155.799 61.624H156.799ZM155.592 55.7324C155.191 54.949 154.668 54.3344 154.01 53.9177C153.351 53.5 152.588 53.3 151.739 53.3V54.3C152.426 54.3 152.998 54.46 153.475 54.7623C153.953 55.0656 154.366 55.531 154.701 56.1876L155.592 55.7324ZM151.739 53.3C151.083 53.3 150.503 53.4027 150.027 53.6408L150.474 54.5352C150.766 54.3893 151.178 54.3 151.739 54.3V53.3ZM150.041 53.634C149.648 53.8154 149.399 54.2331 149.223 54.6688C149.036 55.1319 148.881 55.7472 148.75 56.4983L149.735 56.6697C149.861 55.9488 150.001 55.4121 150.15 55.0432C150.31 54.6469 150.437 54.5526 150.46 54.542L150.041 53.634ZM148.75 56.4965C148.487 57.9775 148.359 59.9143 148.359 62.296H149.359C149.359 59.9417 149.486 58.0705 149.735 56.6715L148.75 56.4965ZM148.359 62.296C148.359 65.2916 148.804 67.5282 149.8 68.8806L150.605 68.2874C149.81 67.2078 149.359 65.2524 149.359 62.296H148.359ZM149.809 68.8924C150.816 70.1773 152.073 70.86 153.563 70.86V69.86C152.428 69.86 151.445 69.3587 150.596 68.2756L149.809 68.8924ZM167.849 72.76L167.506 73.1241L167.517 73.1344L167.529 73.1441L167.849 72.76ZM167.033 54.664H167.533V54.3238L167.217 54.1989L167.033 54.664ZM165.209 53.944H164.709V54.2842L165.025 54.4091L165.209 53.944ZM165.209 51.64L165.126 51.1469L164.709 51.2171V51.64H165.209ZM171.833 51.544L171.468 51.886L171.474 51.8919L171.479 51.8976L171.833 51.544ZM172.553 53.992H172.053V54.981L172.849 54.3946L172.553 53.992ZM182.681 52.504L182.332 52.8625L182.342 52.8718L182.681 52.504ZM184.505 69.544H184.005V69.8842L184.321 70.0091L184.505 69.544ZM186.329 70.264H186.829V69.9238L186.513 69.7989L186.329 70.264ZM186.329 72.568L186.416 73.0603L186.829 72.987V72.568H186.329ZM179.609 72.76L179.277 73.1337L179.283 73.139L179.289 73.1441L179.609 72.76ZM172.793 56.536L172.588 56.0799L172.293 56.2125V56.536H172.793ZM172.793 69.544H172.293V69.8808L172.605 70.0074L172.793 69.544ZM174.569 70.264H175.069V69.9272L174.757 69.8006L174.569 70.264ZM174.569 72.568L174.657 73.0602L175.069 72.9863V72.568H174.569ZM168.953 72.98C169.021 72.98 169.046 73.0005 169.001 72.9798C168.966 72.9641 168.911 72.9337 168.83 72.8812C168.67 72.7767 168.451 72.6108 168.169 72.3759L167.529 73.1441C167.823 73.3892 168.076 73.5833 168.284 73.7188C168.387 73.7863 168.49 73.8459 168.587 73.8902C168.674 73.9295 168.805 73.98 168.953 73.98V72.98ZM168.192 72.3959C167.926 72.146 167.741 71.9518 167.626 71.8094C167.568 71.7378 167.537 71.6906 167.522 71.6646C167.502 71.6276 167.533 71.6659 167.533 71.752H166.533C166.533 71.9181 166.598 72.0584 166.646 72.1454C166.699 72.2434 166.77 72.3422 166.848 72.4386C167.005 72.6322 167.228 72.862 167.506 73.1241L168.192 72.3959ZM167.533 71.752V54.664H166.533V71.752H167.533ZM167.217 54.1989L165.393 53.4789L165.025 54.4091L166.849 55.1291L167.217 54.1989ZM165.709 53.944V51.64H164.709V53.944H165.709ZM165.292 52.1331C167.003 51.8452 168.328 51.6297 169.268 51.4863C169.739 51.4145 170.11 51.3612 170.385 51.3259C170.672 51.289 170.823 51.276 170.873 51.276V50.276C170.747 50.276 170.53 50.299 170.257 50.3341C169.972 50.3708 169.591 50.4255 169.118 50.4977C168.17 50.6423 166.839 50.8588 165.126 51.1469L165.292 52.1331ZM170.873 51.276C170.792 51.276 170.756 51.2482 170.788 51.2652C170.811 51.2774 170.854 51.3051 170.921 51.3584C171.053 51.4647 171.235 51.637 171.468 51.886L172.198 51.202C171.951 50.939 171.732 50.7273 171.545 50.5776C171.452 50.5029 171.355 50.4346 171.258 50.3828C171.17 50.3358 171.034 50.276 170.873 50.276V51.276ZM171.479 51.8976C171.712 52.1306 171.874 52.3115 171.973 52.444C172.023 52.5105 172.049 52.554 172.061 52.5776C172.077 52.6093 172.053 52.5773 172.053 52.504H173.053C173.053 52.3507 172.999 52.2187 172.955 52.1304C172.907 52.034 172.843 51.9375 172.773 51.844C172.632 51.6565 172.433 51.4374 172.186 51.1904L171.479 51.8976ZM172.053 52.504V53.992H173.053V52.504H172.053ZM172.849 54.3946C174.304 53.3238 175.422 52.5244 176.205 51.9941C176.598 51.7283 176.9 51.5346 177.116 51.409C177.224 51.3458 177.302 51.3048 177.354 51.2812C177.366 51.2756 177.376 51.2716 177.383 51.2688C177.39 51.266 177.393 51.265 177.393 51.2651C177.392 51.2652 177.391 51.2657 177.388 51.2665C177.385 51.2672 177.38 51.2684 177.374 51.2697C177.363 51.2718 177.339 51.276 177.305 51.276V50.276C177.213 50.276 177.135 50.2977 177.09 50.312C177.038 50.3285 176.987 50.3496 176.939 50.3713C176.844 50.4147 176.734 50.4742 176.612 50.545C176.368 50.6874 176.044 50.8957 175.645 51.1659C174.844 51.7076 173.714 52.5162 172.256 53.5894L172.849 54.3946ZM177.305 51.276C179.633 51.276 181.277 51.8352 182.332 52.8624L183.03 52.1456C181.717 50.8687 179.776 50.276 177.305 50.276V51.276ZM182.342 52.8718C183.403 53.8484 184.005 55.6385 184.005 58.408H185.005C185.005 55.5455 184.391 53.3995 183.02 52.1362L182.342 52.8718ZM184.005 58.408V69.544H185.005V58.408H184.005ZM184.321 70.0091L186.145 70.7291L186.513 69.7989L184.689 69.0789L184.321 70.0091ZM185.829 70.264V72.568H186.829V70.264H185.829ZM186.242 72.0757C184.53 72.3796 183.209 72.6071 182.277 72.7585C181.81 72.8342 181.444 72.8905 181.175 72.9277C180.892 72.967 180.752 72.98 180.713 72.98V73.98C180.834 73.98 181.048 73.955 181.313 73.9183C181.592 73.8795 181.968 73.8218 182.437 73.7455C183.377 73.5929 184.704 73.3644 186.416 73.0603L186.242 72.0757ZM180.713 72.98C180.781 72.98 180.806 73.0005 180.761 72.9798C180.726 72.9641 180.671 72.9337 180.59 72.8812C180.43 72.7767 180.211 72.6108 179.929 72.3759L179.289 73.1441C179.583 73.3892 179.836 73.5833 180.044 73.7188C180.147 73.7863 180.25 73.8459 180.347 73.8902C180.434 73.9295 180.565 73.98 180.713 73.98V72.98ZM179.941 72.3863C179.66 72.1361 179.463 71.9414 179.341 71.7986C179.279 71.7267 179.246 71.6795 179.231 71.6539C179.209 71.6163 179.245 71.6587 179.245 71.752H178.245C178.245 71.9253 178.316 72.0697 178.367 72.1561C178.424 72.2545 178.499 72.3533 178.581 72.4494C178.747 72.6426 178.982 72.8719 179.277 73.1337L179.941 72.3863ZM179.245 71.752V58.456H178.245V71.752H179.245ZM179.245 58.456C179.245 57.2807 179.053 56.312 178.598 55.624C178.118 54.8998 177.388 54.548 176.489 54.548V55.548C177.094 55.548 177.491 55.7642 177.764 56.176C178.061 56.624 178.245 57.3593 178.245 58.456H179.245ZM176.489 54.548C176.393 54.548 176.297 54.5684 176.227 54.5859C176.147 54.6058 176.056 54.6334 175.956 54.6667C175.756 54.7333 175.498 54.8306 175.186 54.9562C174.561 55.2079 173.694 55.583 172.588 56.0799L172.998 56.9921C174.1 56.497 174.953 56.1281 175.56 55.8838C175.864 55.7614 176.1 55.6727 176.272 55.6153C176.358 55.5866 176.423 55.5677 176.468 55.5565C176.522 55.5431 176.52 55.548 176.489 55.548V54.548ZM172.293 56.536V69.544H173.293V56.536H172.293ZM172.605 70.0074L174.381 70.7274L174.757 69.8006L172.981 69.0806L172.605 70.0074ZM174.069 70.264V72.568H175.069V70.264H174.069ZM174.481 72.0758C172.786 72.3797 171.473 72.6071 170.541 72.7585C170.075 72.8342 169.706 72.8904 169.434 72.9276C169.149 72.9666 169.001 72.98 168.953 72.98V73.98C169.081 73.98 169.299 73.9554 169.57 73.9184C169.854 73.8796 170.231 73.8218 170.701 73.7455C171.641 73.5929 172.96 73.3643 174.657 73.0602L174.481 72.0758ZM196.952 72.904L196.453 72.8855L196.435 73.3652L196.913 73.4025L196.952 72.904ZM197.288 63.832V63.332H196.806L196.789 63.8135L197.288 63.832ZM200.552 63.832L201.046 63.7498L200.976 63.332H200.552V63.832ZM201.416 69.016L200.923 69.0982L200.983 69.4552L201.34 69.5102L201.416 69.016ZM208.76 69.304L209.151 69.6163L209.158 69.6074L209.165 69.5981L208.76 69.304ZM209.432 68.056L209.897 68.2417L209.9 68.2316L209.432 68.056ZM208.424 63.688L208.085 64.0549V64.0549L208.424 63.688ZM204.44 60.952L204.188 61.3839L204.192 61.3861L204.44 60.952ZM200.696 58.552L200.992 58.1488L200.696 58.552ZM198.248 55.864L198.674 55.6013L198.248 55.864ZM197.48 49.624L197.037 49.3927L197.005 49.4542L196.991 49.522L197.48 49.624ZM199.784 47.08L200.104 47.4642L200.111 47.4589L199.784 47.08ZM203.336 44.536L203.587 44.9688L203.595 44.9637L203.336 44.536ZM214.904 44.344L215.404 44.3638L215.422 43.903L214.964 43.8476L214.904 44.344ZM214.568 52.84V53.34H215.049L215.068 52.8598L214.568 52.84ZM211.304 52.84L210.809 52.9107L210.871 53.34H211.304V52.84ZM210.632 48.136L211.127 48.0653L211.076 47.7085L210.722 47.6441L210.632 48.136ZM207.08 47.56L207.008 48.0547L207.08 47.56ZM203.336 48.04L202.889 47.8164L202.883 47.8279L202.878 47.8396L203.336 48.04ZM204.248 53.272L203.888 53.6189L203.895 53.6256L204.248 53.272ZM207.896 55.912L207.645 56.3446L207.653 56.3491L207.896 55.912ZM208.76 56.392L209.012 55.96L209.003 55.9549L208.76 56.392ZM212.408 58.792L212.099 59.1852L212.107 59.1912L212.115 59.197L212.408 58.792ZM214.76 61.336L214.336 61.601L214.341 61.6088L214.346 61.6164L214.76 61.336ZM215.48 67.336L215.928 67.5596L215.954 67.5064L215.968 67.4484L215.48 67.336ZM213.176 70.024L212.851 69.6443L212.846 69.6491L213.176 70.024ZM209.768 72.472L210.015 72.9068L209.768 72.472ZM206.984 72.98C205.247 72.98 201.921 72.7897 196.991 72.4055L196.913 73.4025C201.839 73.7863 205.202 73.98 206.984 73.98V72.98ZM197.452 72.9225L197.788 63.8505L196.789 63.8135L196.453 72.8855L197.452 72.9225ZM197.288 64.332H200.552V63.332H197.288V64.332ZM200.059 63.9142L200.923 69.0982L201.91 68.9338L201.046 63.7498L200.059 63.9142ZM201.34 69.5102C204.663 70.0214 206.956 70.284 208.184 70.284V69.284C207.044 69.284 204.825 69.0346 201.492 68.5218L201.34 69.5102ZM208.184 70.284C208.434 70.284 208.632 70.1419 208.744 70.0481C208.877 69.9374 209.013 69.7882 209.151 69.6163L208.37 68.9917C208.251 69.1398 208.163 69.2306 208.104 69.2799C208.075 69.3041 208.064 69.3093 208.069 69.3068C208.072 69.305 208.114 69.284 208.184 69.284V70.284ZM209.165 69.5981C209.449 69.207 209.692 68.7532 209.897 68.2417L208.968 67.8703C208.789 68.3188 208.584 68.697 208.356 69.0099L209.165 69.5981ZM209.9 68.2316C210.109 67.6754 210.22 67.1356 210.22 66.616H209.22C209.22 66.9924 209.14 67.4126 208.964 67.8804L209.9 68.2316ZM210.22 66.616C210.22 65.3213 209.728 64.2134 208.764 63.3211L208.085 64.0549C208.849 64.7626 209.22 65.6067 209.22 66.616H210.22ZM208.764 63.3211C207.859 62.483 206.493 61.5489 204.688 60.5179L204.192 61.3861C205.972 62.4031 207.262 63.293 208.085 64.0549L208.764 63.3211ZM204.692 60.5201C203.165 59.6291 201.933 58.8388 200.992 58.1488L200.401 58.9552C201.38 59.6732 202.644 60.4829 204.188 61.3839L204.692 60.5201ZM200.992 58.1488C200.088 57.4856 199.314 56.6386 198.674 55.6013L197.823 56.1267C198.526 57.2654 199.385 58.2104 200.401 58.9552L200.992 58.1488ZM198.674 55.6013C198.056 54.6018 197.74 53.4312 197.74 52.072H196.74C196.74 53.5928 197.096 54.9502 197.823 56.1267L198.674 55.6013ZM197.74 52.072C197.74 51.2388 197.817 50.4573 197.97 49.726L196.991 49.522C196.823 50.3267 196.74 51.1771 196.74 52.072H197.74ZM197.924 49.8553C198.262 49.2075 198.969 48.4104 200.104 47.4641L199.464 46.6959C198.296 47.6696 197.467 48.5685 197.037 49.3927L197.924 49.8553ZM200.111 47.4589C201.241 46.4855 202.4 45.656 203.587 44.9687L203.086 44.1033C201.841 44.824 200.632 45.6905 199.458 46.7011L200.111 47.4589ZM203.595 44.9637C204.19 44.6035 204.694 44.3413 205.11 44.1705C205.533 43.9967 205.831 43.932 206.024 43.932V42.932C205.641 42.932 205.203 43.0513 204.73 43.2455C204.25 43.4427 203.698 43.7325 203.077 44.1082L203.595 44.9637ZM206.024 43.932C206.882 43.932 209.802 44.2302 214.844 44.8404L214.964 43.8476C209.958 43.2418 206.959 42.932 206.024 42.932V43.932ZM214.405 44.3242L214.069 52.8202L215.068 52.8598L215.404 44.3638L214.405 44.3242ZM214.568 52.34H211.304V53.34H214.568V52.34ZM211.799 52.7693L211.127 48.0653L210.137 48.2067L210.809 52.9107L211.799 52.7693ZM210.722 47.6441C209.659 47.4508 208.469 47.2579 207.153 47.0653L207.008 48.0547C208.315 48.2461 209.494 48.4372 210.543 48.6279L210.722 47.6441ZM207.153 47.0653C205.838 46.8729 204.847 46.772 204.2 46.772V47.772C204.769 47.772 205.699 47.8631 207.008 48.0547L207.153 47.0653ZM204.2 46.772C203.575 46.772 203.161 47.2727 202.889 47.8164L203.784 48.2636C204.024 47.7833 204.186 47.772 204.2 47.772V46.772ZM202.878 47.8396C202.614 48.4431 202.5 49.2427 202.5 50.2H203.5C203.5 49.3013 203.61 48.6609 203.794 48.2404L202.878 47.8396ZM202.5 50.2C202.5 51.5152 202.968 52.663 203.888 53.6188L204.608 52.9252C203.865 52.153 203.5 51.2528 203.5 50.2H202.5ZM203.895 53.6256C204.77 54.5005 206.027 55.4056 207.645 56.3445L208.147 55.4795C206.566 54.5624 205.391 53.7075 204.602 52.9184L203.895 53.6256ZM207.653 56.3491L208.517 56.8291L209.003 55.9549L208.139 55.4749L207.653 56.3491ZM208.508 56.8239C210.034 57.714 211.229 58.5009 212.099 59.1852L212.717 58.3988C211.796 57.6751 210.558 56.862 209.012 55.9601L208.508 56.8239ZM212.115 59.197C212.988 59.8292 213.729 60.6287 214.336 61.601L215.184 61.071C214.512 59.9953 213.685 59.0988 212.702 58.387L212.115 59.197ZM214.346 61.6164C214.954 62.5138 215.268 63.5967 215.268 64.888H216.268C216.268 63.4273 215.91 62.1422 215.174 61.0556L214.346 61.6164ZM215.268 64.888C215.268 65.6477 215.177 66.426 214.993 67.2236L215.968 67.4484C216.167 66.582 216.268 65.7283 216.268 64.888H215.268ZM215.033 67.1124C214.659 67.8601 213.947 68.7052 212.851 69.6444L213.502 70.4036C214.646 69.4228 215.469 68.4759 215.928 67.5596L215.033 67.1124ZM212.846 69.6491C211.782 70.5877 210.674 71.3833 209.522 72.0372L210.015 72.9068C211.231 72.2167 212.395 71.3802 213.507 70.3989L212.846 69.6491ZM209.522 72.0372C208.35 72.7019 207.519 72.98 206.984 72.98V73.98C207.794 73.98 208.818 73.5861 210.015 72.9068L209.522 72.0372ZM220.771 72.76L220.428 73.1241L220.439 73.1344L220.451 73.1441L220.771 72.76ZM219.955 54.664H220.455V54.3238L220.138 54.1989L219.955 54.664ZM218.131 53.944H217.631V54.2842L217.947 54.4091L218.131 53.944ZM218.131 51.64L218.048 51.1469L217.631 51.2171V51.64H218.131ZM224.755 51.544L224.39 51.886L224.396 51.8919L224.401 51.8976L224.755 51.544ZM225.475 53.992H224.975V55.0629L225.796 54.3753L225.475 53.992ZM233.827 51.544L233.614 51.9965L233.625 52.0015L233.827 51.544ZM236.227 53.992L235.77 54.1951L236.045 54.8151L236.556 54.3683L236.227 53.992ZM238.675 51.88L238.357 51.4936L238.351 51.4994L238.675 51.88ZM246.067 52.504L245.737 52.8798L245.742 52.8843L246.067 52.504ZM248.035 69.544H247.535V69.8808L247.847 70.0074L248.035 69.544ZM249.811 70.264H250.311V69.9272L249.999 69.8006L249.811 70.264ZM249.811 72.568L249.899 73.0602L250.311 72.9863V72.568H249.811ZM243.139 72.76L242.807 73.1337L242.813 73.139L242.819 73.1441L243.139 72.76ZM236.851 56.536L236.605 56.1004L236.351 56.2439V56.536H236.851ZM236.851 69.544H236.351V69.8773L236.659 70.0055L236.851 69.544ZM238.579 70.264H239.079V69.9307L238.771 69.8025L238.579 70.264ZM238.579 72.568L238.668 73.06L239.079 72.9856V72.568H238.579ZM231.955 72.76L231.623 73.1337L231.629 73.139L231.635 73.1441L231.955 72.76ZM225.715 56.536L225.476 56.0968L225.215 56.2388V56.536H225.715ZM225.715 69.544H225.215V69.8737L225.518 70.0036L225.715 69.544ZM227.395 70.264H227.895V69.9343L227.592 69.8044L227.395 70.264ZM227.395 72.568L227.485 73.0599L227.895 72.9849V72.568H227.395ZM221.875 72.98C221.943 72.98 221.968 73.0005 221.923 72.9798C221.888 72.9641 221.832 72.9337 221.752 72.8812C221.592 72.7767 221.373 72.6108 221.091 72.3759L220.451 73.1441C220.745 73.3892 220.998 73.5833 221.206 73.7188C221.309 73.7863 221.411 73.8459 221.509 73.8902C221.596 73.9295 221.727 73.98 221.875 73.98V72.98ZM221.113 72.3959C220.848 72.146 220.663 71.9518 220.547 71.8094C220.489 71.7378 220.458 71.6906 220.444 71.6646C220.424 71.6276 220.455 71.6659 220.455 71.752H219.455C219.455 71.9181 219.52 72.0584 219.567 72.1454C219.621 72.2434 219.692 72.3422 219.77 72.4386C219.927 72.6322 220.15 72.862 220.428 73.1241L221.113 72.3959ZM220.455 71.752V54.664H219.455V71.752H220.455ZM220.138 54.1989L218.314 53.4789L217.947 54.4091L219.771 55.1291L220.138 54.1989ZM218.631 53.944V51.64H217.631V53.944H218.631ZM218.214 52.1331C219.925 51.8452 221.25 51.6297 222.19 51.4863C222.661 51.4145 223.032 51.3612 223.307 51.3259C223.594 51.289 223.745 51.276 223.795 51.276V50.276C223.669 50.276 223.452 50.299 223.179 50.3341C222.893 50.3708 222.513 50.4255 222.039 50.4977C221.092 50.6423 219.761 50.8588 218.048 51.1469L218.214 52.1331ZM223.795 51.276C223.714 51.276 223.678 51.2482 223.71 51.2652C223.732 51.2774 223.776 51.3051 223.842 51.3584C223.975 51.4647 224.157 51.637 224.39 51.886L225.12 51.202C224.873 50.939 224.654 50.7273 224.467 50.5776C224.374 50.5029 224.277 50.4346 224.18 50.3828C224.092 50.3358 223.956 50.276 223.795 50.276V51.276ZM224.401 51.8976C224.634 52.1306 224.795 52.3115 224.895 52.444C224.945 52.5105 224.971 52.554 224.983 52.5776C224.998 52.6093 224.975 52.5773 224.975 52.504H225.975C225.975 52.3507 225.921 52.2187 225.877 52.1304C225.829 52.034 225.765 51.9375 225.695 51.844C225.554 51.6565 225.355 51.4374 225.108 51.1904L224.401 51.8976ZM224.975 52.504V53.992H225.975V52.504H224.975ZM225.796 54.3753C227.074 53.3048 228.059 52.5067 228.754 51.9778C229.102 51.7126 229.37 51.5208 229.562 51.3973C229.658 51.3351 229.726 51.2963 229.77 51.2748C229.839 51.2409 229.795 51.276 229.699 51.276V50.276C229.539 50.276 229.395 50.3446 229.328 50.3777C229.235 50.4232 229.131 50.4849 229.02 50.5567C228.796 50.7012 228.504 50.9114 228.148 51.1822C227.435 51.7253 226.436 52.5352 225.154 53.6087L225.796 54.3753ZM229.699 51.276C231.316 51.276 232.613 51.5254 233.614 51.9964L234.04 51.0916C232.865 50.5386 231.41 50.276 229.699 50.276V51.276ZM233.625 52.0015C234.592 52.4281 235.305 53.1492 235.77 54.1951L236.684 53.7889C236.125 52.5308 235.238 51.6199 234.029 51.0865L233.625 52.0015ZM236.556 54.3683C237.322 53.6979 238.137 52.9953 238.999 52.2606L238.351 51.4994C237.485 52.2367 236.667 52.9421 235.898 53.6157L236.556 54.3683ZM238.992 52.2664C239.438 51.8999 239.779 51.6301 240.017 51.4535C240.137 51.3645 240.223 51.3049 240.28 51.2696C240.309 51.2516 240.321 51.2456 240.321 51.2459C240.32 51.246 240.309 51.2513 240.29 51.2572C240.276 51.2617 240.229 51.276 240.163 51.276V50.276C240.03 50.276 239.923 50.3276 239.896 50.3406C239.846 50.3639 239.797 50.3924 239.752 50.4204C239.661 50.4771 239.549 50.5555 239.421 50.6504C239.163 50.8419 238.807 51.1241 238.357 51.4936L238.992 52.2664ZM240.163 51.276C242.725 51.276 244.552 51.8397 245.737 52.8797L246.397 52.1283C244.957 50.8643 242.849 50.276 240.163 50.276V51.276ZM245.742 52.8843C246.889 53.8631 247.535 55.6478 247.535 58.408H248.535C248.535 55.5362 247.869 53.3849 246.391 52.1237L245.742 52.8843ZM247.535 58.408V69.544H248.535V58.408H247.535ZM247.847 70.0074L249.623 70.7274L249.999 69.8006L248.223 69.0806L247.847 70.0074ZM249.311 70.264V72.568H250.311V70.264H249.311ZM249.723 72.0758C248.027 72.3797 246.718 72.6072 245.794 72.7586C245.332 72.8343 244.968 72.8906 244.702 72.9278C244.42 72.9671 244.281 72.98 244.243 72.98V73.98C244.364 73.98 244.577 73.9549 244.84 73.9182C245.118 73.8794 245.49 73.8217 245.956 73.7454C246.887 73.5928 248.202 73.3643 249.899 73.0602L249.723 72.0758ZM244.243 72.98C244.311 72.98 244.336 73.0005 244.291 72.9798C244.256 72.9641 244.2 72.9337 244.12 72.8812C243.96 72.7767 243.741 72.6108 243.459 72.3759L242.819 73.1441C243.113 73.3892 243.366 73.5833 243.574 73.7188C243.677 73.7863 243.779 73.8459 243.877 73.8902C243.964 73.9295 244.095 73.98 244.243 73.98V72.98ZM243.471 72.3863C243.189 72.1361 242.993 71.9414 242.87 71.7986C242.809 71.7267 242.776 71.6795 242.761 71.6539C242.739 71.6163 242.775 71.6587 242.775 71.752H241.775C241.775 71.9253 241.846 72.0697 241.896 72.1561C241.954 72.2545 242.029 72.3533 242.111 72.4494C242.277 72.6426 242.512 72.8719 242.807 73.1337L243.471 72.3863ZM242.775 71.752V58.456H241.775V71.752H242.775ZM242.775 58.456C242.775 57.2752 242.565 56.2996 242.069 55.6083C241.55 54.8864 240.773 54.548 239.827 54.548V55.548C240.513 55.548 240.959 55.7776 241.257 56.1917C241.576 56.6364 241.775 57.3648 241.775 58.456H242.775ZM239.827 54.548C239.724 54.548 239.628 54.5731 239.564 54.5921C239.491 54.6139 239.41 54.6437 239.326 54.678C239.157 54.747 238.944 54.8464 238.691 54.9728C238.184 55.2263 237.488 55.6031 236.605 56.1004L237.096 56.9716C237.974 56.4769 238.654 56.1097 239.138 55.8672C239.382 55.7456 239.569 55.659 239.704 55.604C239.771 55.5763 239.819 55.5596 239.85 55.5504C239.89 55.5384 239.874 55.548 239.827 55.548V54.548ZM236.351 56.536V69.544H237.351V56.536H236.351ZM236.659 70.0055L238.387 70.7255L238.771 69.8025L237.043 69.0825L236.659 70.0055ZM238.079 70.264V72.568H239.079V70.264H238.079ZM238.49 72.076C236.811 72.3799 235.517 72.6074 234.609 72.7588C234.154 72.8346 233.798 72.8909 233.54 72.9281C233.41 72.9467 233.308 72.9602 233.231 72.9689C233.192 72.9733 233.162 72.9762 233.139 72.978C233.115 72.9799 233.106 72.98 233.107 72.98V73.98C233.222 73.98 233.429 73.9543 233.682 73.9179C233.951 73.8791 234.316 73.8214 234.773 73.7452C235.688 73.5926 236.987 73.3641 238.668 73.06L238.49 72.076ZM233.107 72.98C233.153 72.98 233.164 72.992 233.119 72.9735C233.081 72.9575 233.022 72.9274 232.94 72.876C232.775 72.7733 232.555 72.6094 232.275 72.3759L231.635 73.1441C231.93 73.3906 232.19 73.5867 232.41 73.724C232.52 73.7926 232.629 73.8525 232.735 73.8965C232.834 73.938 232.964 73.98 233.107 73.98V72.98ZM232.287 72.3863C232.005 72.1361 231.809 71.9414 231.686 71.7986C231.625 71.7267 231.592 71.6795 231.577 71.6539C231.555 71.6163 231.591 71.6587 231.591 71.752H230.591C230.591 71.9253 230.662 72.0697 230.712 72.1561C230.77 72.2545 230.845 72.3533 230.927 72.4494C231.093 72.6426 231.328 72.8719 231.623 73.1337L232.287 72.3863ZM231.591 71.752V58.456H230.591V71.752H231.591ZM231.591 58.456C231.591 57.2807 231.399 56.312 230.944 55.624C230.464 54.8998 229.734 54.548 228.835 54.548V55.548C229.44 55.548 229.837 55.7642 230.11 56.176C230.406 56.624 230.591 57.3593 230.591 58.456H231.591ZM228.835 54.548C228.735 54.548 228.64 54.5698 228.57 54.5891C228.492 54.6104 228.407 54.6397 228.317 54.674C228.137 54.7428 227.913 54.8422 227.648 54.9687C227.116 55.2224 226.391 55.5993 225.476 56.0968L225.954 56.9752C226.863 56.4807 227.57 56.1136 228.078 55.8713C228.333 55.7498 228.53 55.6632 228.675 55.608C228.747 55.5803 228.799 55.5631 228.834 55.5534C228.877 55.5417 228.87 55.548 228.835 55.548V54.548ZM225.215 56.536V69.544H226.215V56.536H225.215ZM225.518 70.0036L227.198 70.7236L227.592 69.8044L225.912 69.0844L225.518 70.0036ZM226.895 70.264V72.568H227.895V70.264H226.895ZM227.305 72.0761C225.642 72.38 224.353 72.6074 223.437 72.7587C222.979 72.8344 222.617 72.8906 222.349 72.9277C222.068 72.9667 221.922 72.98 221.875 72.98V73.98C222.003 73.98 222.219 73.9553 222.486 73.9183C222.767 73.8794 223.139 73.8216 223.6 73.7453C224.524 73.5926 225.82 73.364 227.485 73.0599L227.305 72.0761ZM254.704 70.792L254.311 71.1019L254.317 71.1094L254.704 70.792ZM252.88 58.84L253.373 58.9241L253.373 58.9222L252.88 58.84ZM253.744 55.72L253.35 55.4118L253.316 55.4549L253.293 55.5043L253.744 55.72ZM257.584 52.696L257.855 53.1161L257.857 53.1151L257.584 52.696ZM265.456 51.256L265.379 51.7502L265.387 51.7512L265.456 51.256ZM270.592 52.024H271.092V51.6024L270.676 51.5312L270.592 52.024ZM270.592 69.592H270.092V69.9288L270.404 70.0554L270.592 69.592ZM272.368 70.312H272.868V69.9752L272.556 69.8486L272.368 70.312ZM272.368 72.616L272.452 73.1088L272.868 73.0376V72.616H272.368ZM265.792 72.76L265.438 73.1136L265.444 73.1193L265.45 73.1248L265.792 72.76ZM265.024 70.168H265.524V69.1214L264.71 69.779L265.024 70.168ZM262.192 72.328L261.898 71.9236L261.892 71.928L262.192 72.328ZM264.832 67.624L265.055 68.0712L265.332 67.933V67.624H264.832ZM264.832 55.048H265.332V54.7247L265.037 54.592L264.832 55.048ZM262.48 54.232L262.327 54.708L262.337 54.7112L262.347 54.714L262.48 54.232ZM259.072 55.768L258.586 55.6495L258.583 55.6608L259.072 55.768ZM259.024 66.184L258.539 66.3053L258.541 66.3144L258.544 66.3234L259.024 66.184ZM260.08 68.488L259.683 68.7917L259.687 68.7976L259.692 68.8033L260.08 68.488ZM260.416 72.98C258.228 72.98 256.466 72.15 255.09 70.4746L254.317 71.1094C255.885 73.018 257.931 73.98 260.416 73.98V72.98ZM255.096 70.4822C253.751 68.7782 253.044 66.3122 253.044 63.016H252.044C252.044 66.4398 252.777 69.1578 254.311 71.1018L255.096 70.4822ZM253.044 63.016C253.044 61.5693 253.154 60.2056 253.373 58.9241L252.387 58.7559C252.158 60.0984 252.044 61.5187 252.044 63.016H253.044ZM253.373 58.9222C253.594 57.598 253.872 56.6106 254.195 55.9357L253.293 55.5043C252.911 56.3014 252.614 57.394 252.387 58.7578L253.373 58.9222ZM254.138 56.0282C254.655 55.3664 255.867 54.3983 257.855 53.1161L257.313 52.2759C255.332 53.5537 253.984 54.6016 253.35 55.4118L254.138 56.0282ZM257.857 53.1151C258.857 52.4638 259.672 51.9832 260.303 51.6672C260.619 51.5092 260.882 51.3965 261.093 51.3241C261.311 51.2497 261.447 51.228 261.52 51.228V50.228C261.288 50.228 261.032 50.2883 260.77 50.3779C260.502 50.4695 260.196 50.6028 259.856 50.7728C259.176 51.1128 258.326 51.6162 257.311 52.2769L257.857 53.1151ZM261.52 51.228C261.655 51.228 262.034 51.2661 262.701 51.3556C263.352 51.4429 264.245 51.5743 265.379 51.7501L265.532 50.7619C264.395 50.5857 263.495 50.4531 262.834 50.3644C262.189 50.2779 261.736 50.228 261.52 50.228V51.228ZM265.387 51.7512C267.69 52.0711 269.396 52.3262 270.507 52.5168L270.676 51.5312C269.548 51.3378 267.83 51.0809 265.525 50.7608L265.387 51.7512ZM270.092 52.024V69.592H271.092V52.024H270.092ZM270.404 70.0554L272.18 70.7754L272.556 69.8486L270.78 69.1286L270.404 70.0554ZM271.868 70.312V72.616H272.868V70.312H271.868ZM272.283 72.1232C270.604 72.411 269.3 72.6265 268.368 72.7698C267.412 72.9168 266.896 72.98 266.752 72.98V73.98C266.992 73.98 267.603 73.8992 268.52 73.7582C269.46 73.6135 270.771 73.397 272.452 73.1088L272.283 72.1232ZM266.752 72.98C266.85 72.98 266.898 73.0166 266.856 72.9943C266.831 72.981 266.786 72.9524 266.716 72.9C266.577 72.7962 266.385 72.6305 266.134 72.3952L265.45 73.1248C265.711 73.3695 265.934 73.5638 266.116 73.7C266.206 73.7676 266.297 73.829 266.384 73.8757C266.454 73.9134 266.59 73.98 266.752 73.98V72.98ZM266.145 72.4064C265.896 72.1568 265.722 71.963 265.614 71.821C265.559 71.7497 265.53 71.7023 265.516 71.6757C265.497 71.6391 265.524 71.6732 265.524 71.752H264.524C264.524 71.9108 264.582 72.0469 264.628 72.1343C264.678 72.2317 264.744 72.3303 264.818 72.427C264.966 72.621 265.176 72.8512 265.438 73.1136L266.145 72.4064ZM265.524 71.752V70.168H264.524V71.752H265.524ZM264.71 69.779C263.885 70.4447 262.948 71.1596 261.898 71.9236L262.486 72.7324C263.547 71.9604 264.498 71.2353 265.338 70.557L264.71 69.779ZM261.892 71.928C261.383 72.3097 260.989 72.5898 260.708 72.7725C260.566 72.8645 260.461 72.926 260.389 72.9627C260.353 72.9811 260.334 72.989 260.327 72.9913C260.313 72.9966 260.35 72.98 260.416 72.98V73.98C260.522 73.98 260.612 73.9514 260.665 73.9327C260.725 73.911 260.786 73.8829 260.844 73.8533C260.96 73.794 261.098 73.7115 261.252 73.6115C261.562 73.4102 261.977 73.1143 262.492 72.728L261.892 71.928ZM261.232 69.756C261.336 69.756 261.438 69.7291 261.501 69.7106C261.578 69.6883 261.666 69.6576 261.761 69.6211C261.953 69.5478 262.203 69.441 262.506 69.3034C263.115 69.0275 263.966 68.6161 265.055 68.0712L264.608 67.1768C263.522 67.7199 262.685 68.1245 262.093 68.3926C261.797 68.527 261.569 68.6242 261.404 68.6869C261.322 68.7184 261.262 68.7387 261.222 68.7504C261.169 68.7659 261.184 68.756 261.232 68.756V69.756ZM265.332 67.624V55.048H264.332V67.624H265.332ZM265.037 54.592C264.367 54.2905 263.557 54.0105 262.613 53.75L262.347 54.714C263.259 54.9655 264.017 55.2295 264.627 55.504L265.037 54.592ZM262.633 53.756C261.729 53.4656 260.995 53.3 260.464 53.3V54.3C260.829 54.3 261.438 54.4224 262.327 54.708L262.633 53.756ZM260.464 53.3C259.948 53.3 259.544 53.5896 259.252 54.0033C258.967 54.406 258.752 54.9683 258.586 55.6495L259.558 55.8865C259.711 55.2557 259.889 54.834 260.068 54.5807C260.239 54.3384 260.372 54.3 260.464 54.3V53.3ZM258.583 55.6608C258.283 57.0313 258.14 59.3521 258.14 62.584H259.14C259.14 59.3519 259.285 57.1287 259.56 55.8752L258.583 55.6608ZM258.14 62.584C258.14 63.9893 258.27 65.2317 258.539 66.3053L259.509 66.0627C259.265 65.0883 259.14 63.9307 259.14 62.584H258.14ZM258.544 66.3234C258.841 67.3476 259.215 68.1802 259.683 68.7917L260.477 68.1843C260.113 67.7078 259.783 67.0044 259.504 66.0446L258.544 66.3234ZM259.692 68.8033C260.126 69.3376 260.639 69.756 261.232 69.756V68.756C261.12 68.756 260.866 68.6624 260.468 68.1727L259.692 68.8033ZM277.156 72.76L276.813 73.1241L276.824 73.1344L276.836 73.1441L277.156 72.76ZM276.34 45.544H276.84V45.1954L276.513 45.0748L276.34 45.544ZM274.516 44.872H274.016V45.2206L274.343 45.3412L274.516 44.872ZM274.516 42.568L274.431 42.0752L274.016 42.1463V42.568H274.516ZM281.332 42.424L280.967 42.766L280.978 42.7777L280.99 42.7888L281.332 42.424ZM282.1 69.544H281.6V69.8808L281.912 70.0074L282.1 69.544ZM283.876 70.264H284.376V69.9272L284.064 69.8006L283.876 70.264ZM283.876 72.568L283.964 73.0602L284.376 72.9863V72.568H283.876ZM278.26 72.98C278.328 72.98 278.353 73.0005 278.308 72.9798C278.273 72.9641 278.217 72.9337 278.137 72.8812C277.977 72.7767 277.758 72.6108 277.476 72.3759L276.836 73.1441C277.13 73.3892 277.383 73.5833 277.591 73.7188C277.694 73.7863 277.796 73.8459 277.894 73.8902C277.981 73.9295 278.112 73.98 278.26 73.98V72.98ZM277.498 72.3959C277.233 72.146 277.048 71.9518 276.932 71.8094C276.874 71.7378 276.843 71.6906 276.829 71.6646C276.809 71.6276 276.84 71.6659 276.84 71.752H275.84C275.84 71.9181 275.905 72.0584 275.952 72.1454C276.006 72.2434 276.077 72.3422 276.155 72.4386C276.312 72.6322 276.535 72.862 276.813 73.1241L277.498 72.3959ZM276.84 71.752V45.544H275.84V71.752H276.84ZM276.513 45.0748L274.689 44.4028L274.343 45.3412L276.167 46.0132L276.513 45.0748ZM275.016 44.872V42.568H274.016V44.872H275.016ZM274.6 43.0608C276.375 42.757 277.748 42.5295 278.721 42.378C279.207 42.3023 279.591 42.246 279.873 42.2087C280.169 42.1697 280.323 42.156 280.372 42.156V41.156C280.245 41.156 280.023 41.1803 279.742 41.2173C279.449 41.256 279.056 41.3137 278.567 41.39C277.587 41.5425 276.208 41.771 274.431 42.0752L274.6 43.0608ZM280.372 42.156C280.291 42.156 280.255 42.1282 280.287 42.1452C280.309 42.1574 280.353 42.1851 280.419 42.2384C280.552 42.3447 280.734 42.517 280.967 42.766L281.697 42.082C281.45 41.819 281.231 41.6073 281.044 41.4576C280.951 41.3829 280.854 41.3146 280.757 41.2628C280.669 41.2158 280.533 41.156 280.372 41.156V42.156ZM280.99 42.7888C281.237 43.0204 281.406 43.2028 281.51 43.339C281.562 43.407 281.589 43.453 281.602 43.4791C281.617 43.5097 281.6 43.4889 281.6 43.432H282.6C282.6 43.2791 282.551 43.1443 282.502 43.0429C282.45 42.937 282.382 42.833 282.306 42.733C282.153 42.5332 281.939 42.3076 281.674 42.0592L280.99 42.7888ZM281.6 43.432V69.544H282.6V43.432H281.6ZM281.912 70.0074L283.688 70.7274L284.064 69.8006L282.288 69.0806L281.912 70.0074ZM283.376 70.264V72.568H284.376V70.264H283.376ZM283.788 72.0758C282.092 72.3797 280.78 72.6071 279.848 72.7585C279.381 72.8342 279.013 72.8904 278.741 72.9276C278.456 72.9666 278.308 72.98 278.26 72.98V73.98C278.388 73.98 278.606 73.9554 278.877 73.9184C279.161 73.8796 279.538 73.8218 280.008 73.7455C280.948 73.5929 282.267 73.3643 283.964 73.0602L283.788 72.0758ZM288.734 72.76L288.391 73.1241L288.402 73.1344L288.414 73.1441L288.734 72.76ZM287.918 45.544H288.418V45.1954L288.091 45.0748L287.918 45.544ZM286.094 44.872H285.594V45.2206L285.921 45.3412L286.094 44.872ZM286.094 42.568L286.01 42.0752L285.594 42.1463V42.568H286.094ZM292.91 42.424L292.545 42.766L292.556 42.7777L292.568 42.7888L292.91 42.424ZM293.678 69.544H293.178V69.8808L293.49 70.0074L293.678 69.544ZM295.454 70.264H295.954V69.9272L295.642 69.8006L295.454 70.264ZM295.454 72.568L295.542 73.0602L295.954 72.9863V72.568H295.454ZM289.838 72.98C289.906 72.98 289.931 73.0005 289.886 72.9798C289.851 72.9641 289.796 72.9337 289.715 72.8812C289.555 72.7767 289.336 72.6108 289.054 72.3759L288.414 73.1441C288.708 73.3892 288.961 73.5833 289.169 73.7188C289.272 73.7863 289.375 73.8459 289.472 73.8902C289.559 73.9295 289.69 73.98 289.838 73.98V72.98ZM289.077 72.3959C288.811 72.146 288.626 71.9518 288.511 71.8094C288.453 71.7378 288.422 71.6906 288.407 71.6646C288.387 71.6276 288.418 71.6659 288.418 71.752H287.418C287.418 71.9181 287.483 72.0584 287.531 72.1454C287.584 72.2434 287.655 72.3422 287.733 72.4386C287.89 72.6322 288.113 72.862 288.391 73.1241L289.077 72.3959ZM288.418 71.752V45.544H287.418V71.752H288.418ZM288.091 45.0748L286.267 44.4028L285.921 45.3412L287.745 46.0132L288.091 45.0748ZM286.594 44.872V42.568H285.594V44.872H286.594ZM286.178 43.0608C287.953 42.757 289.327 42.5295 290.299 42.378C290.785 42.3023 291.169 42.246 291.451 42.2087C291.747 42.1697 291.901 42.156 291.95 42.156V41.156C291.823 41.156 291.601 41.1803 291.321 41.2173C291.027 41.256 290.635 41.3137 290.145 41.39C289.165 41.5425 287.786 41.771 286.01 42.0752L286.178 43.0608ZM291.95 42.156C291.869 42.156 291.833 42.1282 291.865 42.1452C291.888 42.1574 291.931 42.1851 291.998 42.2384C292.13 42.3447 292.312 42.517 292.545 42.766L293.275 42.082C293.028 41.819 292.809 41.6073 292.622 41.4576C292.529 41.3829 292.432 41.3146 292.335 41.2628C292.247 41.2158 292.111 41.156 291.95 41.156V42.156ZM292.568 42.7888C292.815 43.0204 292.984 43.2028 293.088 43.339C293.14 43.407 293.167 43.453 293.18 43.4791C293.195 43.5097 293.178 43.4889 293.178 43.432H294.178C294.178 43.2791 294.129 43.1443 294.08 43.0429C294.029 42.937 293.96 42.833 293.884 42.733C293.731 42.5332 293.517 42.3076 293.252 42.0592L292.568 42.7888ZM293.178 43.432V69.544H294.178V43.432H293.178ZM293.49 70.0074L295.266 70.7274L295.642 69.8006L293.866 69.0806L293.49 70.0074ZM294.954 70.264V72.568H295.954V70.264H294.954ZM295.366 72.0758C293.671 72.3797 292.358 72.6071 291.426 72.7585C290.96 72.8342 290.591 72.8904 290.319 72.9276C290.034 72.9666 289.886 72.98 289.838 72.98V73.98C289.966 73.98 290.184 73.9554 290.455 73.9184C290.739 73.8796 291.116 73.8218 291.586 73.7455C292.526 73.5929 293.845 73.3643 295.542 73.0602L295.366 72.0758Z" fill="black" mask="url(#path-22-outside-1_1_2128)"/>
</g>
</g>
<rect x="10" y="10" width="339" height="92" rx="18" stroke="#5A0923" stroke-width="4"/>
<defs>
<filter id="filter0_i_1_2128" x="43" y="64" width="8" height="6" filterUnits="userSpaceOnUse" color-interpolation-filters="sRGB">
<feFlood flood-opacity="0" result="BackgroundImageFix"/>
<feBlend mode="normal" in="SourceGraphic" in2="BackgroundImageFix" result="shape"/>
<feColorMatrix in="SourceAlpha" type="matrix" values="0 0 0 0 0 0 0 0 0 0 0 0 0 0 0 0 0 0 127 0" result="hardAlpha"/>
<feOffset dy="1"/>
<feGaussianBlur stdDeviation="2"/>
<feComposite in2="hardAlpha" operator="arithmetic" k2="-1" k3="1"/>
<feColorMatrix type="matrix" values="0 0 0 0 0 0 0 0 0 0 0 0 0 0 0 0 0 0 0.25 0"/>
<feBlend mode="normal" in2="shape" result="effect1_innerShadow_1_2128"/>
</filter>
<filter id="filter1_i_1_2128" x="302" y="46" width="8" height="6" filterUnits="userSpaceOnUse" color-interpolation-filters="sRGB">
<feFlood flood-opacity="0" result="BackgroundImageFix"/>
<feBlend mode="normal" in="SourceGraphic" in2="BackgroundImageFix" result="shape"/>
<feColorMatrix in="SourceAlpha" type="matrix" values="0 0 0 0 0 0 0 0 0 0 0 0 0 0 0 0 0 0 127 0" result="hardAlpha"/>
<feOffset dy="1"/>
<feGaussianBlur stdDeviation="2"/>
<feComposite in2="hardAlpha" operator="arithmetic" k2="-1" k3="1"/>
<feColorMatrix type="matrix" values="0 0 0 0 0 0 0 0 0 0 0 0 0 0 0 0 0 0 0.25 0"/>
<feBlend mode="normal" in2="shape" result="effect1_innerShadow_1_2128"/>
</filter>
<filter id="filter2_i_1_2128" x="94" y="20" width="7" height="5" filterUnits="userSpaceOnUse" color-interpolation-filters="sRGB">
<feFlood flood-opacity="0" result="BackgroundImageFix"/>
<feBlend mode="normal" in="SourceGraphic" in2="BackgroundImageFix" result="shape"/>
<feColorMatrix in="SourceAlpha" type="matrix" values="0 0 0 0 0 0 0 0 0 0 0 0 0 0 0 0 0 0 127 0" result="hardAlpha"/>
<feOffset dy="1"/>
<feGaussianBlur stdDeviation="2"/>
<feComposite in2="hardAlpha" operator="arithmetic" k2="-1" k3="1"/>
<feColorMatrix type="matrix" values="0 0 0 0 0 0 0 0 0 0 0 0 0 0 0 0 0 0 0.25 0"/>
<feBlend mode="normal" in2="shape" result="effect1_innerShadow_1_2128"/>
</filter>
<filter id="filter3_i_1_2128" x="273" y="90" width="8" height="5" filterUnits="userSpaceOnUse" color-interpolation-filters="sRGB">
<feFlood flood-opacity="0" result="BackgroundImageFix"/>
<feBlend mode="normal" in="SourceGraphic" in2="BackgroundImageFix" result="shape"/>
<feColorMatrix in="SourceAlpha" type="matrix" values="0 0 0 0 0 0 0 0 0 0 0 0 0 0 0 0 0 0 127 0" result="hardAlpha"/>
<feOffset dy="1"/>
<feGaussianBlur stdDeviation="2"/>
<feComposite in2="hardAlpha" operator="arithmetic" k2="-1" k3="1"/>
<feColorMatrix type="matrix" values="0 0 0 0 0 0 0 0 0 0 0 0 0 0 0 0 0 0 0.25 0"/>
<feBlend mode="normal" in2="shape" result="effect1_innerShadow_1_2128"/>
</filter>
<filter id="filter4_d_1_2128" x="59.4679" y="41.156" width="240.486" height="40.824" filterUnits="userSpaceOnUse" color-interpolation-filters="sRGB">
<feFlood flood-opacity="0" result="BackgroundImageFix"/>
<feColorMatrix in="SourceAlpha" type="matrix" values="0 0 0 0 0 0 0 0 0 0 0 0 0 0 0 0 0 0 127 0" result="hardAlpha"/>
<feOffset dy="4"/>
<feGaussianBlur stdDeviation="2"/>
<feComposite in2="hardAlpha" operator="out"/>
<feColorMatrix type="matrix" values="0 0 0 0 0 0 0 0 0 0 0 0 0 0 0 0 0 0 0.25 0"/>
<feBlend mode="normal" in2="BackgroundImageFix" result="effect1_dropShadow_1_2128"/>
<feBlend mode="normal" in="SourceGraphic" in2="effect1_dropShadow_1_2128" result="shape"/>
</filter>
<linearGradient id="paint0_linear_1_2128" x1="179.5" y1="0" x2="179.5" y2="112" gradientUnits="userSpaceOnUse">
<stop stop-color="#B6A187"/>
<stop offset="1" stop-color="#8D7559"/>
</linearGradient>
<linearGradient id="paint1_linear_1_2128" x1="12" y1="33" x2="347" y2="33" gradientUnits="userSpaceOnUse">
<stop stop-color="#FF83A9"/>
<stop offset="0.28" stop-color="#FF83A9"/>
<stop offset="0.380455" stop-color="#FF83A9" stop-opacity="0"/>
<stop offset="0.475" stop-color="#FF83A9"/>
<stop offset="0.713573" stop-color="#FF83A9"/>
<stop offset="0.767221" stop-color="#FF83A9" stop-opacity="0"/>
<stop offset="0.822117" stop-color="#FF83A9"/>
<stop offset="1" stop-color="#FF83A9"/>
</linearGradient>
<linearGradient id="paint2_linear_1_2128" x1="335" y1="1" x2="0" y2="1" gradientUnits="userSpaceOnUse">
<stop stop-color="#DB2C5A"/>
<stop offset="0.318428" stop-color="#DB2C5A"/>
<stop offset="0.351009" stop-color="#DB2C5A" stop-opacity="0"/>
<stop offset="0.388034" stop-color="#DB2C5A"/>
<stop offset="0.654611" stop-color="#DB2C5A"/>
<stop offset="0.713109" stop-color="#DB2C5A" stop-opacity="0"/>
<stop offset="0.772349" stop-color="#DB2C5A"/>
<stop offset="1" stop-color="#DB2C5A"/>
</linearGradient>
<linearGradient id="paint3_linear_1_2128" x1="29" y1="45" x2="29" y2="58" gradientUnits="userSpaceOnUse">
<stop stop-color="#FF83A9"/>
<stop offset="1" stop-color="#FF83A9" stop-opacity="0"/>
</linearGradient>
<linearGradient id="paint4_linear_1_2128" x1="330" y1="45" x2="330" y2="48" gradientUnits="userSpaceOnUse">
<stop stop-color="#FF83A9"/>
<stop offset="1" stop-color="#FF83A9" stop-opacity="0"/>
</linearGradient>
<linearGradient id="paint5_linear_1_2128" x1="29" y1="67" x2="29" y2="64" gradientUnits="userSpaceOnUse">
<stop stop-color="#DB2C5A"/>
<stop offset="1" stop-color="#DB2C5A" stop-opacity="0"/>
</linearGradient>
<linearGradient id="paint6_linear_1_2128" x1="330" y1="66.5" x2="330" y2="54" gradientUnits="userSpaceOnUse">
<stop stop-color="#DB2C5A"/>
<stop offset="1" stop-color="#DB2C5A" stop-opacity="0.352941"/>
</linearGradient>
<clipPath id="clip0_1_2128">
<rect x="12" y="12" width="335" height="88" rx="16" fill="white"/>
</clipPath>
<clipPath id="clip1_1_2128">
<rect width="13" height="16" fill="white" transform="matrix(-1 0 0 1 331 32)"/>
</clipPath>
<clipPath id="clip2_1_2128">
<rect width="13" height="16" fill="white" transform="matrix(1 0 0 -1 28 80)"/>
</clipPath>
<clipPath id="clip3_1_2128">
<rect width="13" height="26" fill="white" transform="matrix(-1 0 0 -1 331 80)"/>
</clipPath>
</defs>
</svg>
