<svg width="359" height="112" viewBox="0 0 359 112" fill="none" xmlns="http://www.w3.org/2000/svg">
<path d="M0 24C0 10.7452 10.7452 0 24 0H335C348.255 0 359 10.7452 359 24V88C359 101.255 348.255 112 335 112H24C10.7452 112 0 101.255 0 88V24Z" fill="url(#paint0_linear_1_2128)"/>
<g clip-path="url(#clip0_1_2128)">
<rect x="12" y="12" width="335" height="88" rx="16" fill="#9E1838"/>
<rect x="12" y="32" width="335" height="2" fill="url(#paint1_linear_1_2128)"/>
<rect width="335" height="2" transform="matrix(1 0 0 -1 12 80)" fill="url(#paint2_linear_1_2128)"/>
<path d="M12 12H347V32H12V12Z" fill="#E03459"/>
<path d="M347 100H12V80H347V100Z" fill="#720D2E"/>
<path d="M331 32L347 12V100L331 80V32Z" fill="#8E1031"/>
<path d="M28 32H30V57C30 57.5523 29.5523 58 29 58C28.4477 58 28 57.5523 28 57V32Z" fill="url(#paint3_linear_1_2128)"/>
<path fill-rule="evenodd" clip-rule="evenodd" d="M41 32H28V45H30.0117C30.0039 44.8343 30 44.6676 30 44.5C30 38.701 34.701 34 40.5 34C40.6676 34 40.8343 34.0039 41 34.0117V32Z" fill="#FF83A9"/>
<g clip-path="url(#clip1_1_2128)">
<path d="M331 32H329V47C329 47.5523 329.448 48 330 48C330.552 48 331 47.5523 331 47V32Z" fill="url(#paint4_linear_1_2128)"/>
<path fill-rule="evenodd" clip-rule="evenodd" d="M318 32H331V45H328.988C328.996 44.8343 329 44.6676 329 44.5C329 38.701 324.299 34 318.5 34C318.332 34 318.166 34.0039 318 34.0117V32Z" fill="#FF83A9"/>
</g>
<path d="M28 32L12 12V100L28 80V32Z" fill="#B21844"/>
<g clip-path="url(#clip2_1_2128)">
<path d="M28 80H30V65C30 64.4477 29.5523 64 29 64C28.4477 64 28 64.4477 28 65V80Z" fill="url(#paint5_linear_1_2128)"/>
<path fill-rule="evenodd" clip-rule="evenodd" d="M41 80H28V67H30.0117C30.0039 67.1657 30 67.3324 30 67.5C30 73.299 34.701 78 40.5 78C40.6676 78 40.8343 77.9961 41 77.9883V80Z" fill="#DB2C5A"/>
</g>
<g clip-path="url(#clip3_1_2128)">
<path d="M331 80H329V55C329 54.4477 329.448 54 330 54C330.552 54 331 54.4477 331 55V80Z" fill="url(#paint6_linear_1_2128)"/>
<path fill-rule="evenodd" clip-rule="evenodd" d="M318 80H331V67H328.988C328.996 67.1657 329 67.3324 329 67.5C329 73.299 324.299 78 318.5 78C318.332 78 318.166 77.9961 318 77.9883V80Z" fill="#DB2C5A"/>
</g>
<g filter="url(#filter0_i_1_2128)">
<path d="M48.3451 69H45.6549C44.1681 69 43 67.8667 43 66.5C43 65.1 44.2035 64 45.6549 64H48.3451C49.8319 64 51 65.1333 51 66.5C51 67.9 49.7965 69 48.3451 69Z" fill="#9E1838"/>
</g>
<g filter="url(#filter1_i_1_2128)">
<path d="M307.345 51H304.655C303.168 51 302 49.8667 302 48.5C302 47.1 303.204 46 304.655 46H307.345C308.832 46 310 47.1333 310 48.5C310 49.9 308.796 51 307.345 51Z" fill="#9E1838"/>
</g>
<g filter="url(#filter2_i_1_2128)">
<path d="M98.677 24H96.323C95.0221 24 94 23.0933 94 22C94 20.88 95.0531 20 96.323 20H98.677C99.9779 20 101 20.9067 101 22C101 23.12 99.9469 24 98.677 24Z" fill="#E03459"/>
</g>
<g filter="url(#filter3_i_1_2128)">
<path d="M278.345 94H275.655C274.168 94 273 93.0933 273 92C273 90.88 274.204 90 275.655 90H278.345C279.832 90 281 90.9067 281 92C281 93.12 279.796 94 278.345 94Z" fill="#720D2E"/>
</g>
<g filter="url(#filter4_d_1_2128)">
<mask id="path-22-outside-1_1_2128" maskUnits="userSpaceOnUse" x="73" y="41" width="212" height="34" fill="black">
<rect fill="white" x="73" y="41" width="212" height="34"/>
<path d="M74.0851 70.6L77.0611 69.544V47.368L74.0851 46.312V43.912H95.0611L94.4371 52.648H91.2691L90.6931 46.936L83.1571 47.608V56.2L89.9731 56.44V59.464L83.1571 59.752V69.208L91.1251 69.976L91.9411 64.072H95.1091L95.3011 73H74.0851V70.6ZM101.633 73.48C101.473 73.48 101.105 73.24 100.529 72.76C99.9846 72.248 99.7126 71.912 99.7126 71.752V54.664L97.8886 53.944V51.64C101.313 51.064 103.201 50.776 103.553 50.776C103.713 50.776 104.033 51.032 104.513 51.544C104.993 52.024 105.233 52.344 105.233 52.504V53.992C108.145 51.848 109.729 50.776 109.985 50.776C112.385 50.776 114.177 51.352 115.361 52.504C116.577 53.624 117.185 55.592 117.185 58.408V69.544L119.009 70.264V72.568C115.585 73.176 113.713 73.48 113.393 73.48C113.233 73.48 112.865 73.24 112.289 72.76C111.713 72.248 111.425 71.912 111.425 71.752V58.456C111.425 56.184 110.673 55.048 109.169 55.048C108.913 55.048 107.681 55.544 105.473 56.536V69.544L107.249 70.264V72.568C103.857 73.176 101.985 73.48 101.633 73.48ZM127.947 73.576C127.851 73.576 127.579 73.416 127.131 73.096L122.091 54.616L120.171 54.04V51.592C123.435 51.08 125.227 50.824 125.547 50.824C125.707 50.824 126.059 51.032 126.603 51.448C127.179 51.864 127.499 52.184 127.563 52.408L130.155 63.688L130.875 67.768H131.403L134.859 54.376L131.931 53.992V51.256L138.699 50.824C138.859 50.824 139.131 51.096 139.515 51.64C139.931 52.152 140.139 52.52 140.139 52.744L133.851 72.664C130.171 73.272 128.203 73.576 127.947 73.576ZM145.84 73.48C145.648 73.48 145.248 73.224 144.64 72.712C144.032 72.168 143.728 71.8 143.728 71.608V54.52L141.904 53.944V51.64C145.296 51.064 147.168 50.776 147.52 50.776C147.712 50.776 148.08 51.032 148.624 51.544C149.168 52.056 149.44 52.424 149.44 52.648V69.688L151.264 70.264V72.568C148 73.176 146.192 73.48 145.84 73.48ZM143.344 41.848L148.144 41.56L149.056 42.76L148.72 47.224H143.728L143.344 41.848ZM161.877 73.48C159.541 73.48 157.637 72.584 156.165 70.792C154.725 68.968 154.005 66.376 154.005 63.016C154.005 61.544 154.117 60.152 154.341 58.84C154.565 57.496 154.853 56.456 155.205 55.72C155.781 54.984 157.061 53.976 159.045 52.696C161.061 51.384 162.373 50.728 162.981 50.728C163.333 50.728 164.645 50.904 166.917 51.256C169.221 51.576 170.933 51.832 172.053 52.024V69.592L173.829 70.312V72.616C170.469 73.192 168.597 73.48 168.213 73.48C168.085 73.48 167.765 73.24 167.253 72.76C166.741 72.248 166.485 71.912 166.485 71.752V70.168C165.653 70.84 164.709 71.56 163.653 72.328C162.629 73.096 162.037 73.48 161.877 73.48ZM162.693 69.256C162.917 69.256 164.117 68.712 166.293 67.624V55.048C165.653 54.76 164.869 54.488 163.941 54.232C163.045 53.944 162.373 53.8 161.925 53.8C161.317 53.8 160.853 54.456 160.533 55.768C160.245 57.08 160.101 59.352 160.101 62.584C160.101 63.96 160.229 65.16 160.485 66.184C160.773 67.176 161.125 67.944 161.541 68.488C161.957 69 162.341 69.256 162.693 69.256ZM179.961 73.48C179.801 73.48 179.433 73.24 178.857 72.76C178.313 72.248 178.041 71.912 178.041 71.752V54.568L176.217 53.944V51.64C179.513 51.064 181.353 50.776 181.737 50.776C181.897 50.776 182.249 51.048 182.793 51.592C183.369 52.136 183.657 52.472 183.657 52.6L183.561 54.52L184.281 53.704C186.201 51.592 187.257 50.536 187.449 50.536C187.993 50.536 188.665 50.648 189.465 50.872C190.265 51.096 190.729 51.224 190.857 51.256C190.889 51.352 190.969 51.624 191.097 52.072C191.225 52.52 191.289 52.888 191.289 53.176C191.289 53.496 191.033 54.168 190.521 55.192C190.009 56.216 189.673 56.76 189.513 56.824C189.417 56.792 189.049 56.632 188.409 56.344C187.769 56.056 187.209 55.912 186.729 55.912C186.537 55.912 186.121 56.056 185.481 56.344C184.841 56.6 184.281 56.872 183.801 57.16V69.208L186.585 70.024V72.52C182.553 73.16 180.345 73.48 179.961 73.48ZM210.392 73.432C210.264 73.432 209.96 73.272 209.48 72.952L202.424 47.272L199.448 46.312V43.912H211.976V46.6L208.856 47.512L211.88 59.896C212.232 61.368 212.76 63.816 213.464 67.24H213.992L215.144 62.344C216.968 54.696 218.104 49.752 218.552 47.512L215.288 46.6V43.912H226.856V46.312L223.88 47.272C220.552 59.592 218.232 68.056 216.92 72.664C215.928 72.792 214.744 72.936 213.368 73.096C212.024 73.256 211.032 73.368 210.392 73.432ZM237.458 73.48C233.938 73.48 231.282 72.632 229.49 70.936C227.698 69.208 226.802 66.568 226.802 63.016C226.802 61.576 226.914 60.184 227.138 58.84C227.362 57.464 227.65 56.44 228.002 55.768C228.354 55.288 229.09 54.632 230.21 53.8C231.362 52.968 232.498 52.232 233.618 51.592C234.77 50.952 235.554 50.632 235.97 50.632C239.426 50.632 242.034 51.512 243.794 53.272C245.586 55.032 246.482 57.592 246.482 60.952C246.482 62.456 246.37 63.88 246.146 65.224C245.922 66.568 245.65 67.672 245.33 68.536C244.754 69.24 243.458 70.248 241.442 71.56C239.426 72.84 238.098 73.48 237.458 73.48ZM237.602 70.36C237.794 70.296 238.482 69.96 239.666 69.352C240.114 67.112 240.338 64.536 240.338 61.624C240.338 59.256 239.954 57.368 239.186 55.96C238.45 54.52 237.314 53.8 235.778 53.8C235.17 53.8 234.674 53.896 234.29 54.088C233.874 54.28 233.538 55.112 233.282 56.584C233.026 58.024 232.898 59.928 232.898 62.296C232.898 65.272 233.346 67.368 234.242 68.584C235.17 69.768 236.29 70.36 237.602 70.36ZM255.056 73.48C254.704 73.48 254.224 73.224 253.616 72.712C253.04 72.2 252.512 71.624 252.032 70.984C251.584 70.312 251.36 69.768 251.36 69.352V54.376H248.096V52.312L251.36 50.872L254.96 46.648C255.216 46.552 255.936 46.776 257.12 47.32V51.256H261.872V54.52H257.12V67.288C257.12 68.152 257.2 68.744 257.36 69.064C257.52 69.352 257.808 69.496 258.224 69.496L262.352 69.688V72.568C261.008 72.792 259.552 73 257.984 73.192C256.416 73.384 255.44 73.48 255.056 73.48ZM275.005 73.48C271.485 73.48 268.829 72.632 267.037 70.936C265.245 69.208 264.349 66.568 264.349 63.016C264.349 61.576 264.461 60.184 264.685 58.84C264.909 57.464 265.197 56.44 265.549 55.768C265.901 55.288 266.637 54.632 267.757 53.8C268.909 52.968 270.045 52.232 271.165 51.592C272.317 50.952 273.101 50.632 273.517 50.632C276.973 50.632 279.581 51.512 281.341 53.272C283.133 55.032 284.029 57.592 284.029 60.952C284.029 62.456 283.917 63.88 283.693 65.224C283.469 66.568 283.197 67.672 282.877 68.536C282.301 69.24 281.005 70.248 278.989 71.56C276.973 72.84 275.645 73.48 275.005 73.48ZM275.148 70.36C275.341 70.296 276.029 69.96 277.213 69.352C277.661 67.112 277.885 64.536 277.885 61.624C277.885 59.256 277.501 57.368 276.733 55.96C275.997 54.52 274.861 53.8 273.325 53.8C272.717 53.8 272.221 53.896 271.837 54.088C271.421 54.28 271.085 55.112 270.829 56.584C270.573 58.024 270.445 59.928 270.445 62.296C270.445 65.272 270.893 67.368 271.789 68.584C272.717 69.768 273.837 70.36 275.148 70.36Z"/>
</mask>
<path d="M74.0851 70.6L77.0611 69.544V47.368L74.0851 46.312V43.912H95.0611L94.4371 52.648H91.2691L90.6931 46.936L83.1571 47.608V56.2L89.9731 56.44V59.464L83.1571 59.752V69.208L91.1251 69.976L91.9411 64.072H95.1091L95.3011 73H74.0851V70.6ZM101.633 73.48C101.473 73.48 101.105 73.24 100.529 72.76C99.9846 72.248 99.7126 71.912 99.7126 71.752V54.664L97.8886 53.944V51.64C101.313 51.064 103.201 50.776 103.553 50.776C103.713 50.776 104.033 51.032 104.513 51.544C104.993 52.024 105.233 52.344 105.233 52.504V53.992C108.145 51.848 109.729 50.776 109.985 50.776C112.385 50.776 114.177 51.352 115.361 52.504C116.577 53.624 117.185 55.592 117.185 58.408V69.544L119.009 70.264V72.568C115.585 73.176 113.713 73.48 113.393 73.48C113.233 73.48 112.865 73.24 112.289 72.76C111.713 72.248 111.425 71.912 111.425 71.752V58.456C111.425 56.184 110.673 55.048 109.169 55.048C108.913 55.048 107.681 55.544 105.473 56.536V69.544L107.249 70.264V72.568C103.857 73.176 101.985 73.48 101.633 73.48ZM127.947 73.576C127.851 73.576 127.579 73.416 127.131 73.096L122.091 54.616L120.171 54.04V51.592C123.435 51.08 125.227 50.824 125.547 50.824C125.707 50.824 126.059 51.032 126.603 51.448C127.179 51.864 127.499 52.184 127.563 52.408L130.155 63.688L130.875 67.768H131.403L134.859 54.376L131.931 53.992V51.256L138.699 50.824C138.859 50.824 139.131 51.096 139.515 51.64C139.931 52.152 140.139 52.52 140.139 52.744L133.851 72.664C130.171 73.272 128.203 73.576 127.947 73.576ZM145.84 73.48C145.648 73.48 145.248 73.224 144.64 72.712C144.032 72.168 143.728 71.8 143.728 71.608V54.52L141.904 53.944V51.64C145.296 51.064 147.168 50.776 147.52 50.776C147.712 50.776 148.08 51.032 148.624 51.544C149.168 52.056 149.44 52.424 149.44 52.648V69.688L151.264 70.264V72.568C148 73.176 146.192 73.48 145.84 73.48ZM143.344 41.848L148.144 41.56L149.056 42.76L148.72 47.224H143.728L143.344 41.848ZM161.877 73.48C159.541 73.48 157.637 72.584 156.165 70.792C154.725 68.968 154.005 66.376 154.005 63.016C154.005 61.544 154.117 60.152 154.341 58.84C154.565 57.496 154.853 56.456 155.205 55.72C155.781 54.984 157.061 53.976 159.045 52.696C161.061 51.384 162.373 50.728 162.981 50.728C163.333 50.728 164.645 50.904 166.917 51.256C169.221 51.576 170.933 51.832 172.053 52.024V69.592L173.829 70.312V72.616C170.469 73.192 168.597 73.48 168.213 73.48C168.085 73.48 167.765 73.24 167.253 72.76C166.741 72.248 166.485 71.912 166.485 71.752V70.168C165.653 70.84 164.709 71.56 163.653 72.328C162.629 73.096 162.037 73.48 161.877 73.48ZM162.693 69.256C162.917 69.256 164.117 68.712 166.293 67.624V55.048C165.653 54.76 164.869 54.488 163.941 54.232C163.045 53.944 162.373 53.8 161.925 53.8C161.317 53.8 160.853 54.456 160.533 55.768C160.245 57.08 160.101 59.352 160.101 62.584C160.101 63.96 160.229 65.16 160.485 66.184C160.773 67.176 161.125 67.944 161.541 68.488C161.957 69 162.341 69.256 162.693 69.256ZM179.961 73.48C179.801 73.48 179.433 73.24 178.857 72.76C178.313 72.248 178.041 71.912 178.041 71.752V54.568L176.217 53.944V51.64C179.513 51.064 181.353 50.776 181.737 50.776C181.897 50.776 182.249 51.048 182.793 51.592C183.369 52.136 183.657 52.472 183.657 52.6L183.561 54.52L184.281 53.704C186.201 51.592 187.257 50.536 187.449 50.536C187.993 50.536 188.665 50.648 189.465 50.872C190.265 51.096 190.729 51.224 190.857 51.256C190.889 51.352 190.969 51.624 191.097 52.072C191.225 52.52 191.289 52.888 191.289 53.176C191.289 53.496 191.033 54.168 190.521 55.192C190.009 56.216 189.673 56.76 189.513 56.824C189.417 56.792 189.049 56.632 188.409 56.344C187.769 56.056 187.209 55.912 186.729 55.912C186.537 55.912 186.121 56.056 185.481 56.344C184.841 56.6 184.281 56.872 183.801 57.16V69.208L186.585 70.024V72.52C182.553 73.16 180.345 73.48 179.961 73.48ZM210.392 73.432C210.264 73.432 209.96 73.272 209.48 72.952L202.424 47.272L199.448 46.312V43.912H211.976V46.6L208.856 47.512L211.88 59.896C212.232 61.368 212.76 63.816 213.464 67.24H213.992L215.144 62.344C216.968 54.696 218.104 49.752 218.552 47.512L215.288 46.6V43.912H226.856V46.312L223.88 47.272C220.552 59.592 218.232 68.056 216.92 72.664C215.928 72.792 214.744 72.936 213.368 73.096C212.024 73.256 211.032 73.368 210.392 73.432ZM237.458 73.48C233.938 73.48 231.282 72.632 229.49 70.936C227.698 69.208 226.802 66.568 226.802 63.016C226.802 61.576 226.914 60.184 227.138 58.84C227.362 57.464 227.65 56.44 228.002 55.768C228.354 55.288 229.09 54.632 230.21 53.8C231.362 52.968 232.498 52.232 233.618 51.592C234.77 50.952 235.554 50.632 235.97 50.632C239.426 50.632 242.034 51.512 243.794 53.272C245.586 55.032 246.482 57.592 246.482 60.952C246.482 62.456 246.37 63.88 246.146 65.224C245.922 66.568 245.65 67.672 245.33 68.536C244.754 69.24 243.458 70.248 241.442 71.56C239.426 72.84 238.098 73.48 237.458 73.48ZM237.602 70.36C237.794 70.296 238.482 69.96 239.666 69.352C240.114 67.112 240.338 64.536 240.338 61.624C240.338 59.256 239.954 57.368 239.186 55.96C238.45 54.52 237.314 53.8 235.778 53.8C235.17 53.8 234.674 53.896 234.29 54.088C233.874 54.28 233.538 55.112 233.282 56.584C233.026 58.024 232.898 59.928 232.898 62.296C232.898 65.272 233.346 67.368 234.242 68.584C235.17 69.768 236.29 70.36 237.602 70.36ZM255.056 73.48C254.704 73.48 254.224 73.224 253.616 72.712C253.04 72.2 252.512 71.624 252.032 70.984C251.584 70.312 251.36 69.768 251.36 69.352V54.376H248.096V52.312L251.36 50.872L254.96 46.648C255.216 46.552 255.936 46.776 257.12 47.32V51.256H261.872V54.52H257.12V67.288C257.12 68.152 257.2 68.744 257.36 69.064C257.52 69.352 257.808 69.496 258.224 69.496L262.352 69.688V72.568C261.008 72.792 259.552 73 257.984 73.192C256.416 73.384 255.44 73.48 255.056 73.48ZM275.005 73.48C271.485 73.48 268.829 72.632 267.037 70.936C265.245 69.208 264.349 66.568 264.349 63.016C264.349 61.576 264.461 60.184 264.685 58.84C264.909 57.464 265.197 56.44 265.549 55.768C265.901 55.288 266.637 54.632 267.757 53.8C268.909 52.968 270.045 52.232 271.165 51.592C272.317 50.952 273.101 50.632 273.517 50.632C276.973 50.632 279.581 51.512 281.341 53.272C283.133 55.032 284.029 57.592 284.029 60.952C284.029 62.456 283.917 63.88 283.693 65.224C283.469 66.568 283.197 67.672 282.877 68.536C282.301 69.24 281.005 70.248 278.989 71.56C276.973 72.84 275.645 73.48 275.005 73.48ZM275.148 70.36C275.341 70.296 276.029 69.96 277.213 69.352C277.661 67.112 277.885 64.536 277.885 61.624C277.885 59.256 277.501 57.368 276.733 55.96C275.997 54.52 274.861 53.8 273.325 53.8C272.717 53.8 272.221 53.896 271.837 54.088C271.421 54.28 271.085 55.112 270.829 56.584C270.573 58.024 270.445 59.928 270.445 62.296C270.445 65.272 270.893 67.368 271.789 68.584C272.717 69.768 273.837 70.36 275.148 70.36Z" fill="white"/>
<path d="M74.0851 70.6L73.9179 70.1288L73.5851 70.2469V70.6H74.0851ZM77.0611 69.544L77.2283 70.0152L77.5611 69.8971V69.544H77.0611ZM77.0611 47.368H77.5611V47.0149L77.2283 46.8968L77.0611 47.368ZM74.0851 46.312H73.5851V46.6651L73.9179 46.7832L74.0851 46.312ZM74.0851 43.912V43.412H73.5851V43.912H74.0851ZM95.0611 43.912L95.5599 43.9476L95.5981 43.412H95.0611V43.912ZM94.4371 52.648V53.148H94.9027L94.9359 52.6836L94.4371 52.648ZM91.2691 52.648L90.7716 52.6982L90.817 53.148H91.2691V52.648ZM90.6931 46.936L91.1906 46.8858L91.141 46.3941L90.6487 46.438L90.6931 46.936ZM83.1571 47.608L83.1127 47.11L82.6571 47.1506V47.608H83.1571ZM83.1571 56.2H82.6571V56.6827L83.1395 56.6997L83.1571 56.2ZM89.9731 56.44H90.4731V55.9573L89.9907 55.9403L89.9731 56.44ZM89.9731 59.464L89.9942 59.9636L90.4731 59.9433V59.464H89.9731ZM83.1571 59.752L83.136 59.2524L82.6571 59.2727V59.752H83.1571ZM83.1571 69.208H82.6571V69.6621L83.1092 69.7057L83.1571 69.208ZM91.1251 69.976L91.0772 70.4737L91.5547 70.5197L91.6204 70.0445L91.1251 69.976ZM91.9411 64.072V63.572H91.5055L91.4458 64.0035L91.9411 64.072ZM95.1091 64.072L95.609 64.0612L95.5985 63.572H95.1091V64.072ZM95.3011 73V73.5H95.812L95.801 72.9892L95.3011 73ZM74.0851 73H73.5851V73.5H74.0851V73ZM74.0851 70.6L74.2523 71.0712L77.2283 70.0152L77.0611 69.544L76.8939 69.0728L73.9179 70.1288L74.0851 70.6ZM77.0611 69.544H77.5611V47.368H77.0611H76.5611V69.544H77.0611ZM77.0611 47.368L77.2283 46.8968L74.2523 45.8408L74.0851 46.312L73.9179 46.7832L76.8939 47.8392L77.0611 47.368ZM74.0851 46.312H74.5851V43.912H74.0851H73.5851V46.312H74.0851ZM74.0851 43.912V44.412H95.0611V43.912V43.412H74.0851V43.912ZM95.0611 43.912L94.5624 43.8764L93.9384 52.6124L94.4371 52.648L94.9359 52.6836L95.5599 43.9476L95.0611 43.912ZM94.4371 52.648V52.148H91.2691V52.648V53.148H94.4371V52.648ZM91.2691 52.648L91.7666 52.5978L91.1906 46.8858L90.6931 46.936L90.1956 46.9862L90.7716 52.6982L91.2691 52.648ZM90.6931 46.936L90.6487 46.438L83.1127 47.11L83.1571 47.608L83.2015 48.106L90.7375 47.434L90.6931 46.936ZM83.1571 47.608H82.6571V56.2H83.1571H83.6571V47.608H83.1571ZM83.1571 56.2L83.1395 56.6997L89.9555 56.9397L89.9731 56.44L89.9907 55.9403L83.1747 55.7003L83.1571 56.2ZM89.9731 56.44H89.4731V59.464H89.9731H90.4731V56.44H89.9731ZM89.9731 59.464L89.952 58.9644L83.136 59.2524L83.1571 59.752L83.1782 60.2516L89.9942 59.9636L89.9731 59.464ZM83.1571 59.752H82.6571V69.208H83.1571H83.6571V59.752H83.1571ZM83.1571 69.208L83.1092 69.7057L91.0772 70.4737L91.1251 69.976L91.1731 69.4783L83.2051 68.7103L83.1571 69.208ZM91.1251 69.976L91.6204 70.0445L92.4364 64.1405L91.9411 64.072L91.4458 64.0035L90.6298 69.9075L91.1251 69.976ZM91.9411 64.072V64.572H95.1091V64.072V63.572H91.9411V64.072ZM95.1091 64.072L94.6092 64.0827L94.8012 73.0108L95.3011 73L95.801 72.9892L95.609 64.0612L95.1091 64.072ZM95.3011 73V72.5H74.0851V73V73.5H95.3011V73ZM74.0851 73H74.5851V70.6H74.0851H73.5851V73H74.0851ZM100.529 72.76L100.186 73.1241L100.197 73.1344L100.209 73.1441L100.529 72.76ZM99.7126 54.664H100.213V54.3238L99.8962 54.1989L99.7126 54.664ZM97.8886 53.944H97.3886V54.2842L97.705 54.4091L97.8886 53.944ZM97.8886 51.64L97.8057 51.1469L97.3886 51.2171V51.64H97.8886ZM104.513 51.544L104.148 51.886L104.153 51.8919L104.159 51.8976L104.513 51.544ZM105.233 53.992H104.733V54.981L105.529 54.3946L105.233 53.992ZM115.361 52.504L115.012 52.8625L115.022 52.8718L115.361 52.504ZM117.185 69.544H116.685V69.8842L117.001 70.0091L117.185 69.544ZM119.009 70.264H119.509V69.9238L119.192 69.7989L119.009 70.264ZM119.009 72.568L119.096 73.0603L119.509 72.987V72.568H119.009ZM112.289 72.76L111.956 73.1337L111.962 73.139L111.969 73.1441L112.289 72.76ZM105.473 56.536L105.268 56.0799L104.973 56.2125V56.536H105.473ZM105.473 69.544H104.973V69.8808L105.285 70.0074L105.473 69.544ZM107.249 70.264H107.749V69.9272L107.436 69.8006L107.249 70.264ZM107.249 72.568L107.337 73.0602L107.749 72.9863V72.568H107.249ZM101.633 73.48V72.98C101.7 72.98 101.726 73.0005 101.681 72.9798C101.646 72.9641 101.59 72.9337 101.51 72.8812C101.349 72.7767 101.131 72.6108 100.849 72.3759L100.529 72.76L100.209 73.1441C100.503 73.3892 100.756 73.5833 100.963 73.7188C101.067 73.7863 101.169 73.8459 101.267 73.8902C101.353 73.9295 101.485 73.98 101.633 73.98V73.48ZM100.529 72.76L100.871 72.3959C100.606 72.146 100.42 71.9518 100.305 71.8094C100.247 71.7378 100.216 71.6906 100.202 71.6646C100.182 71.6276 100.213 71.6659 100.213 71.752H99.7126H99.2126C99.2126 71.9181 99.2775 72.0584 99.3252 72.1454C99.379 72.2434 99.4499 72.3422 99.528 72.4386C99.6848 72.6322 99.9075 72.862 100.186 73.1241L100.529 72.76ZM99.7126 71.752H100.213V54.664H99.7126H99.2126V71.752H99.7126ZM99.7126 54.664L99.8962 54.1989L98.0722 53.4789L97.8886 53.944L97.705 54.4091L99.529 55.1291L99.7126 54.664ZM97.8886 53.944H98.3886V51.64H97.8886H97.3886V53.944H97.8886ZM97.8886 51.64L97.9716 52.1331C99.6827 51.8452 101.008 51.6297 101.948 51.4863C102.418 51.4145 102.79 51.3612 103.064 51.3259C103.351 51.289 103.502 51.276 103.553 51.276V50.776V50.276C103.427 50.276 103.21 50.299 102.937 50.3341C102.651 50.3708 102.271 50.4255 101.797 50.4977C100.849 50.6423 99.5185 50.8588 97.8057 51.1469L97.8886 51.64ZM103.553 50.776V51.276C103.472 51.276 103.435 51.2482 103.467 51.2652C103.49 51.2774 103.534 51.3051 103.6 51.3584C103.733 51.4647 103.914 51.637 104.148 51.886L104.513 51.544L104.877 51.202C104.631 50.939 104.412 50.7273 104.225 50.5776C104.132 50.5029 104.035 50.4346 103.938 50.3828C103.85 50.3358 103.713 50.276 103.553 50.276V50.776ZM104.513 51.544L104.159 51.8976C104.392 52.1306 104.553 52.3115 104.653 52.444C104.702 52.5105 104.729 52.554 104.74 52.5776C104.756 52.6093 104.733 52.5773 104.733 52.504H105.233H105.733C105.733 52.3507 105.679 52.2187 105.635 52.1304C105.587 52.034 105.523 51.9375 105.453 51.844C105.312 51.6565 105.113 51.4374 104.866 51.1904L104.513 51.544ZM105.233 52.504H104.733V53.992H105.233H105.733V52.504H105.233ZM105.233 53.992L105.529 54.3946C106.984 53.3238 108.101 52.5244 108.885 51.9941C109.278 51.7283 109.58 51.5346 109.795 51.409C109.904 51.3458 109.982 51.3048 110.034 51.2812C110.046 51.2756 110.056 51.2716 110.063 51.2688C110.07 51.266 110.073 51.265 110.072 51.2651C110.072 51.2652 110.07 51.2657 110.068 51.2665C110.065 51.2672 110.06 51.2684 110.054 51.2697C110.043 51.2718 110.018 51.276 109.985 51.276V50.776V50.276C109.893 50.276 109.815 50.2977 109.77 50.312C109.718 50.3285 109.667 50.3496 109.619 50.3713C109.524 50.4147 109.413 50.4742 109.292 50.545C109.047 50.6874 108.724 50.8957 108.324 51.1659C107.524 51.7076 106.394 52.5162 104.936 53.5894L105.233 53.992ZM109.985 50.776V51.276C112.313 51.276 113.956 51.8352 115.012 52.8624L115.361 52.504L115.709 52.1456C114.397 50.8687 112.456 50.276 109.985 50.276V50.776ZM115.361 52.504L115.022 52.8718C116.082 53.8485 116.685 55.6385 116.685 58.408H117.185H117.685C117.685 55.5455 117.071 53.3995 115.699 52.1362L115.361 52.504ZM117.185 58.408H116.685V69.544H117.185H117.685V58.408H117.185ZM117.185 69.544L117.001 70.0091L118.825 70.7291L119.009 70.264L119.192 69.7989L117.368 69.0789L117.185 69.544ZM119.009 70.264H118.509V72.568H119.009H119.509V70.264H119.009ZM119.009 72.568L118.921 72.0757C117.21 72.3796 115.889 72.6071 114.956 72.7585C114.49 72.8342 114.123 72.8905 113.855 72.9277C113.572 72.967 113.431 72.98 113.393 72.98V73.48V73.98C113.514 73.98 113.728 73.955 113.992 73.9183C114.272 73.8795 114.647 73.8218 115.117 73.7455C116.056 73.5929 117.383 73.3644 119.096 73.0603L119.009 72.568ZM113.393 73.48V72.98C113.46 72.98 113.486 73.0005 113.441 72.9798C113.406 72.9641 113.35 72.9337 113.27 72.8812C113.109 72.7767 112.891 72.6108 112.609 72.3759L112.289 72.76L111.969 73.1441C112.263 73.3892 112.516 73.5833 112.723 73.7188C112.827 73.7863 112.929 73.8459 113.027 73.8902C113.113 73.9295 113.245 73.98 113.393 73.98V73.48ZM112.289 72.76L112.621 72.3863C112.339 72.1361 112.143 71.9414 112.02 71.7986C111.959 71.7267 111.926 71.6795 111.911 71.6539C111.889 71.6163 111.925 71.6587 111.925 71.752H111.425H110.925C110.925 71.9253 110.996 72.0697 111.046 72.1561C111.103 72.2545 111.179 72.3533 111.261 72.4494C111.427 72.6426 111.662 72.8719 111.956 73.1337L112.289 72.76ZM111.425 71.752H111.925V58.456H111.425H110.925V71.752H111.425ZM111.425 58.456H111.925C111.925 57.2807 111.733 56.312 111.278 55.624C110.798 54.8998 110.068 54.548 109.169 54.548V55.048V55.548C109.773 55.548 110.171 55.7642 110.444 56.176C110.74 56.624 110.925 57.3593 110.925 58.456H111.425ZM109.169 55.048V54.548C109.073 54.548 108.977 54.5684 108.907 54.586C108.827 54.6058 108.735 54.6334 108.636 54.6667C108.436 54.7333 108.178 54.8306 107.866 54.9562C107.241 55.2079 106.374 55.583 105.268 56.0799L105.473 56.536L105.678 56.9921C106.78 56.497 107.633 56.1281 108.239 55.8838C108.543 55.7614 108.78 55.6727 108.952 55.6153C109.038 55.5866 109.102 55.5677 109.147 55.5565C109.202 55.5431 109.2 55.548 109.169 55.548V55.048ZM105.473 56.536H104.973V69.544H105.473H105.973V56.536H105.473ZM105.473 69.544L105.285 70.0074L107.061 70.7274L107.249 70.264L107.436 69.8006L105.66 69.0806L105.473 69.544ZM107.249 70.264H106.749V72.568H107.249H107.749V70.264H107.249ZM107.249 72.568L107.16 72.0758C105.465 72.3797 104.152 72.6071 103.22 72.7585C102.754 72.8342 102.386 72.8904 102.114 72.9276C101.829 72.9666 101.68 72.98 101.633 72.98V73.48V73.98C101.761 73.98 101.979 73.9554 102.249 73.9184C102.533 73.8796 102.911 73.8218 103.381 73.7455C104.321 73.5929 105.64 73.3643 107.337 73.0602L107.249 72.568ZM127.131 73.096L126.648 73.2276L126.695 73.3994L126.84 73.5029L127.131 73.096ZM122.091 54.616L122.573 54.4844L122.5 54.2168L122.234 54.1371L122.091 54.616ZM120.171 54.04H119.671V54.412L120.027 54.5189L120.171 54.04ZM120.171 51.592L120.093 51.098L119.671 51.1643V51.592H120.171ZM126.603 51.448L126.299 51.8453L126.31 51.8533L126.603 51.448ZM127.563 52.408L128.05 52.296L128.047 52.2832L128.044 52.2706L127.563 52.408ZM130.155 63.688L130.647 63.6011L130.645 63.5885L130.642 63.576L130.155 63.688ZM130.875 67.768L130.382 67.8549L130.455 68.268H130.875V67.768ZM131.403 67.768V68.268H131.79L131.887 67.8929L131.403 67.768ZM134.859 54.376L135.343 54.5009L135.484 53.9537L134.924 53.8802L134.859 54.376ZM131.931 53.992H131.431V54.4307L131.866 54.4878L131.931 53.992ZM131.931 51.256L131.899 50.757L131.431 50.7869V51.256H131.931ZM138.699 50.824V50.324H138.683L138.667 50.325L138.699 50.824ZM139.515 51.64L139.106 51.9283L139.116 51.9422L139.127 51.9553L139.515 51.64ZM140.139 52.744L140.616 52.8945L140.639 52.821V52.744H140.139ZM133.851 72.664L133.932 73.1573L134.235 73.1073L134.328 72.8145L133.851 72.664ZM127.947 73.576V73.076C128.032 73.076 128.078 73.1035 128.041 73.0875C128.021 73.0788 127.983 73.0599 127.924 73.025C127.807 72.956 127.641 72.8458 127.421 72.6891L127.131 73.096L126.84 73.5029C127.069 73.6662 127.263 73.796 127.417 73.887C127.494 73.9321 127.57 73.9732 127.642 74.0045C127.698 74.0285 127.813 74.076 127.947 74.076V73.576ZM127.131 73.096L127.613 72.9644L122.573 54.4844L122.091 54.616L121.608 54.7476L126.648 73.2276L127.131 73.096ZM122.091 54.616L122.234 54.1371L120.314 53.5611L120.171 54.04L120.027 54.5189L121.947 55.0949L122.091 54.616ZM120.171 54.04H120.671V51.592H120.171H119.671V54.04H120.171ZM120.171 51.592L120.248 52.086C121.879 51.8301 123.141 51.6385 124.033 51.511C124.95 51.38 125.432 51.324 125.547 51.324V50.824V50.324C125.342 50.324 124.767 50.396 123.892 50.521C122.993 50.6495 121.726 50.8419 120.093 51.098L120.171 51.592ZM125.547 50.824V51.324C125.492 51.324 125.473 51.3094 125.515 51.3262C125.548 51.3397 125.601 51.3657 125.676 51.4105C125.828 51.4999 126.034 51.6424 126.299 51.8452L126.603 51.448L126.906 51.0508C126.628 50.8376 126.386 50.6681 126.185 50.5495C126.085 50.4903 125.986 50.4383 125.891 50.3998C125.804 50.3646 125.682 50.324 125.547 50.324V50.824ZM126.603 51.448L126.31 51.8533C126.587 52.0535 126.788 52.2199 126.921 52.3536C127.068 52.5002 127.086 52.5611 127.082 52.5454L127.563 52.408L128.044 52.2706C127.975 52.0309 127.802 51.8198 127.628 51.6464C127.442 51.4601 127.194 51.2585 126.895 51.0427L126.603 51.448ZM127.563 52.408L127.075 52.52L129.667 63.8L130.155 63.688L130.642 63.576L128.05 52.296L127.563 52.408ZM130.155 63.688L129.662 63.7749L130.382 67.8549L130.875 67.768L131.367 67.6811L130.647 63.6011L130.155 63.688ZM130.875 67.768V68.268H131.403V67.768V67.268H130.875V67.768ZM131.403 67.768L131.887 67.8929L135.343 54.5009L134.859 54.376L134.375 54.2511L130.919 67.6431L131.403 67.768ZM134.859 54.376L134.924 53.8802L131.996 53.4962L131.931 53.992L131.866 54.4878L134.794 54.8718L134.859 54.376ZM131.931 53.992H132.431V51.256H131.931H131.431V53.992H131.931ZM131.931 51.256L131.963 51.755L138.731 51.323L138.699 50.824L138.667 50.325L131.899 50.757L131.931 51.256ZM138.699 50.824V51.324C138.604 51.324 138.556 51.2871 138.573 51.2981C138.584 51.305 138.616 51.3281 138.669 51.3816C138.776 51.488 138.921 51.6654 139.106 51.9283L139.515 51.64L139.923 51.3517C139.725 51.0706 139.542 50.84 139.376 50.6744C139.294 50.5919 139.203 50.513 139.106 50.4519C139.016 50.3949 138.874 50.324 138.699 50.324V50.824ZM139.515 51.64L139.127 51.9553C139.326 52.2002 139.463 52.396 139.547 52.546C139.641 52.7107 139.639 52.7652 139.639 52.744H140.139H140.639C140.639 52.4988 140.533 52.2573 140.418 52.054C140.295 51.836 140.12 51.5918 139.903 51.3247L139.515 51.64ZM140.139 52.744L139.662 52.5935L133.374 72.5135L133.851 72.664L134.328 72.8145L140.616 52.8945L140.139 52.744ZM133.851 72.664L133.769 72.1707C131.93 72.4746 130.52 72.7023 129.538 72.8539C129.047 72.9297 128.666 72.9862 128.392 73.0236C128.255 73.0423 128.147 73.056 128.068 73.0648C128.028 73.0692 127.997 73.0722 127.975 73.0741C127.949 73.0761 127.943 73.076 127.947 73.076V73.576V74.076C128.053 74.076 128.264 74.0504 128.527 74.0144C128.81 73.9758 129.198 73.9183 129.691 73.8421C130.678 73.6897 132.092 73.4614 133.932 73.1573L133.851 72.664ZM144.64 72.712L144.307 73.0846L144.312 73.0896L144.318 73.0945L144.64 72.712ZM143.728 54.52H144.228V54.1536L143.879 54.0432L143.728 54.52ZM141.904 53.944H141.404V54.3104L141.754 54.4208L141.904 53.944ZM141.904 51.64L141.821 51.1471L141.404 51.2177V51.64H141.904ZM149.44 69.688H148.94V70.0544L149.29 70.1648L149.44 69.688ZM151.264 70.264H151.764V69.8976L151.415 69.7872L151.264 70.264ZM151.264 72.568L151.356 73.0595L151.764 72.9835V72.568H151.264ZM143.344 41.848L143.314 41.3489L142.809 41.3792L142.846 41.8836L143.344 41.848ZM148.144 41.56L148.542 41.2575L148.381 41.0449L148.114 41.0609L148.144 41.56ZM149.056 42.76L149.555 42.7975L149.569 42.6084L149.454 42.4575L149.056 42.76ZM148.72 47.224V47.724H149.184L149.219 47.2615L148.72 47.224ZM143.728 47.224L143.23 47.2596L143.263 47.724H143.728V47.224ZM145.84 73.48V72.98C145.892 72.98 145.904 72.9939 145.856 72.9731C145.815 72.9554 145.753 72.9225 145.666 72.8669C145.492 72.7558 145.259 72.5795 144.962 72.3295L144.64 72.712L144.318 73.0945C144.629 73.3565 144.9 73.5642 145.127 73.7091C145.24 73.7815 145.352 73.8446 145.459 73.8909C145.559 73.9341 145.693 73.98 145.84 73.98V73.48ZM144.64 72.712L144.974 72.3394C144.677 72.0742 144.47 71.8654 144.342 71.7096C144.277 71.6314 144.242 71.5779 144.225 71.5465C144.203 71.507 144.228 71.5348 144.228 71.608H143.728H143.228C143.228 71.7772 143.291 71.923 143.346 72.0235C143.405 72.1321 143.483 72.2406 143.571 72.3464C143.746 72.5586 143.995 72.8058 144.307 73.0846L144.64 72.712ZM143.728 71.608H144.228V54.52H143.728H143.228V71.608H143.728ZM143.728 54.52L143.879 54.0432L142.055 53.4672L141.904 53.944L141.754 54.4208L143.578 54.9968L143.728 54.52ZM141.904 53.944H142.404V51.64H141.904H141.404V53.944H141.904ZM141.904 51.64L141.988 52.1329C143.683 51.8451 144.996 51.6296 145.928 51.4862C146.395 51.4144 146.763 51.3611 147.035 51.3259C147.32 51.289 147.47 51.276 147.52 51.276V50.776V50.276C147.394 50.276 147.178 50.299 146.907 50.3341C146.623 50.3709 146.246 50.4256 145.776 50.4978C144.836 50.6424 143.517 50.8589 141.821 51.1471L141.904 51.64ZM147.52 50.776V51.276C147.466 51.276 147.45 51.2606 147.489 51.2787C147.523 51.2941 147.577 51.3245 147.655 51.3785C147.81 51.4863 148.017 51.6594 148.282 51.9081L148.624 51.544L148.967 51.1799C148.687 50.9166 148.439 50.7057 148.226 50.5575C148.119 50.4835 148.011 50.4179 147.905 50.3693C147.805 50.3234 147.67 50.276 147.52 50.276V50.776ZM148.624 51.544L148.282 51.9081C148.544 52.1547 148.723 52.3514 148.834 52.5012C148.961 52.6733 148.94 52.7083 148.94 52.648H149.44H149.94C149.94 52.3637 149.783 52.1027 149.638 51.9068C149.477 51.6886 149.249 51.4453 148.967 51.1799L148.624 51.544ZM149.44 52.648H148.94V69.688H149.44H149.94V52.648H149.44ZM149.44 69.688L149.29 70.1648L151.114 70.7408L151.264 70.264L151.415 69.7872L149.591 69.2112L149.44 69.688ZM151.264 70.264H150.764V72.568H151.264H151.764V70.264H151.264ZM151.264 72.568L151.173 72.0765C149.542 72.3803 148.277 72.6076 147.377 72.7589C146.927 72.8346 146.571 72.8908 146.308 72.9279C146.031 72.9668 145.887 72.98 145.84 72.98V73.48V73.98C145.969 73.98 146.184 73.9552 146.447 73.9181C146.723 73.8792 147.089 73.8214 147.543 73.7451C148.451 73.5924 149.723 73.3637 151.356 73.0595L151.264 72.568ZM143.344 41.848L143.374 42.3471L148.174 42.0591L148.144 41.56L148.114 41.0609L143.314 41.3489L143.344 41.848ZM148.144 41.56L147.746 41.8625L148.658 43.0625L149.056 42.76L149.454 42.4575L148.542 41.2575L148.144 41.56ZM149.056 42.76L148.558 42.7225L148.222 47.1865L148.72 47.224L149.219 47.2615L149.555 42.7975L149.056 42.76ZM148.72 47.224V46.724H143.728V47.224V47.724H148.72V47.224ZM143.728 47.224L144.227 47.1884L143.843 41.8124L143.344 41.848L142.846 41.8836L143.23 47.2596L143.728 47.224ZM156.165 70.792L155.772 71.1019L155.778 71.1094L156.165 70.792ZM154.341 58.84L154.834 58.9241L154.834 58.9222L154.341 58.84ZM155.205 55.72L154.811 55.4118L154.777 55.4549L154.754 55.5043L155.205 55.72ZM159.045 52.696L159.316 53.1162L159.317 53.1151L159.045 52.696ZM166.917 51.256L166.84 51.7502L166.848 51.7512L166.917 51.256ZM172.053 52.024H172.553V51.6024L172.137 51.5312L172.053 52.024ZM172.053 69.592H171.553V69.9288L171.865 70.0554L172.053 69.592ZM173.829 70.312H174.329V69.9752L174.017 69.8486L173.829 70.312ZM173.829 72.616L173.913 73.1088L174.329 73.0376V72.616H173.829ZM167.253 72.76L166.899 73.1136L166.905 73.1193L166.911 73.1248L167.253 72.76ZM166.485 70.168H166.985V69.1214L166.171 69.779L166.485 70.168ZM163.653 72.328L163.359 71.9236L163.353 71.928L163.653 72.328ZM166.293 67.624L166.516 68.0712L166.793 67.933V67.624H166.293ZM166.293 55.048H166.793V54.7247L166.498 54.592L166.293 55.048ZM163.941 54.232L163.788 54.708L163.798 54.7112L163.808 54.714L163.941 54.232ZM160.533 55.768L160.047 55.6495L160.044 55.6608L160.533 55.768ZM160.485 66.184L160 66.3053L160.002 66.3144L160.005 66.3234L160.485 66.184ZM161.541 68.488L161.144 68.7917L161.148 68.7976L161.153 68.8033L161.541 68.488ZM161.877 73.48V72.98C159.689 72.98 157.927 72.15 156.551 70.4746L156.165 70.792L155.778 71.1094C157.346 73.018 159.392 73.98 161.877 73.98V73.48ZM156.165 70.792L156.557 70.4822C155.212 68.7782 154.505 66.3122 154.505 63.016H154.005H153.505C153.505 66.4398 154.238 69.1578 155.772 71.1018L156.165 70.792ZM154.005 63.016H154.505C154.505 61.5693 154.615 60.2056 154.834 58.9241L154.341 58.84L153.848 58.7559C153.619 60.0984 153.505 61.5187 153.505 63.016H154.005ZM154.341 58.84L154.834 58.9222C155.055 57.598 155.333 56.6106 155.656 55.9357L155.205 55.72L154.754 55.5043C154.372 56.3014 154.075 57.394 153.848 58.7578L154.341 58.84ZM155.205 55.72L155.599 56.0282C156.116 55.3664 157.328 54.3983 159.316 53.1161L159.045 52.696L158.774 52.2759C156.793 53.5537 155.445 54.6016 154.811 55.4118L155.205 55.72ZM159.045 52.696L159.317 53.1151C160.318 52.4638 161.132 51.9832 161.764 51.6672C162.08 51.5092 162.343 51.3965 162.554 51.3241C162.772 51.2497 162.908 51.228 162.981 51.228V50.728V50.228C162.749 50.228 162.493 50.2883 162.231 50.3779C161.963 50.4695 161.657 50.6028 161.317 50.7728C160.637 51.1128 159.787 51.6162 158.772 52.2769L159.045 52.696ZM162.981 50.728V51.228C163.116 51.228 163.495 51.2661 164.162 51.3556C164.813 51.4429 165.706 51.5743 166.84 51.7501L166.917 51.256L166.993 50.7619C165.856 50.5857 164.956 50.4531 164.295 50.3644C163.65 50.2779 163.197 50.228 162.981 50.228V50.728ZM166.917 51.256L166.848 51.7512C169.151 52.0711 170.856 52.3262 171.968 52.5168L172.053 52.024L172.137 51.5312C171.009 51.3378 169.291 51.0809 166.986 50.7608L166.917 51.256ZM172.053 52.024H171.553V69.592H172.053H172.553V52.024H172.053ZM172.053 69.592L171.865 70.0554L173.641 70.7754L173.829 70.312L174.017 69.8486L172.241 69.1286L172.053 69.592ZM173.829 70.312H173.329V72.616H173.829H174.329V70.312H173.829ZM173.829 72.616L173.744 72.1232C172.065 72.411 170.761 72.6265 169.829 72.7698C168.873 72.9168 168.357 72.98 168.213 72.98V73.48V73.98C168.453 73.98 169.064 73.8992 169.981 73.7582C170.921 73.6135 172.232 73.397 173.913 73.1088L173.829 72.616ZM168.213 73.48V72.98C168.311 72.98 168.358 73.0166 168.317 72.9943C168.292 72.981 168.247 72.9524 168.177 72.9C168.038 72.7962 167.846 72.6305 167.595 72.3952L167.253 72.76L166.911 73.1248C167.172 73.3695 167.395 73.5638 167.577 73.7C167.667 73.7676 167.757 73.829 167.845 73.8757C167.915 73.9134 168.051 73.98 168.213 73.98V73.48ZM167.253 72.76L167.606 72.4064C167.357 72.1568 167.183 71.963 167.074 71.821C167.02 71.7497 166.991 71.7023 166.977 71.6757C166.958 71.6391 166.985 71.6732 166.985 71.752H166.485H165.985C165.985 71.9108 166.043 72.0469 166.088 72.1343C166.139 72.2317 166.205 72.3303 166.279 72.427C166.427 72.621 166.637 72.8512 166.899 73.1136L167.253 72.76ZM166.485 71.752H166.985V70.168H166.485H165.985V71.752H166.485ZM166.485 70.168L166.171 69.779C165.346 70.4447 164.409 71.1596 163.359 71.9236L163.653 72.328L163.947 72.7324C165.008 71.9604 165.959 71.2353 166.799 70.557L166.485 70.168ZM163.653 72.328L163.353 71.928C162.844 72.3097 162.45 72.5898 162.169 72.7725C162.027 72.8645 161.922 72.926 161.85 72.9627C161.814 72.9811 161.795 72.989 161.788 72.9913C161.774 72.9966 161.811 72.98 161.877 72.98V73.48V73.98C161.983 73.98 162.073 73.9514 162.126 73.9327C162.186 73.911 162.247 73.8829 162.305 73.8533C162.421 73.794 162.559 73.7115 162.713 73.6115C163.023 73.4102 163.438 73.1143 163.953 72.728L163.653 72.328ZM162.693 69.256V69.756C162.797 69.756 162.899 69.7291 162.962 69.7106C163.039 69.6883 163.127 69.6576 163.222 69.6211C163.414 69.5478 163.664 69.441 163.967 69.3034C164.576 69.0274 165.427 68.6161 166.516 68.0712L166.293 67.624L166.069 67.1768C164.983 67.7199 164.146 68.1246 163.554 68.3926C163.258 68.527 163.029 68.6242 162.865 68.6869C162.783 68.7184 162.723 68.7387 162.683 68.7504C162.629 68.7659 162.645 68.756 162.693 68.756V69.256ZM166.293 67.624H166.793V55.048H166.293H165.793V67.624H166.293ZM166.293 55.048L166.498 54.592C165.828 54.2905 165.018 54.0105 164.074 53.75L163.941 54.232L163.808 54.714C164.719 54.9655 165.478 55.2295 166.088 55.504L166.293 55.048ZM163.941 54.232L164.094 53.756C163.19 53.4656 162.456 53.3 161.925 53.3V53.8V54.3C162.29 54.3 162.899 54.4224 163.788 54.708L163.941 54.232ZM161.925 53.8V53.3C161.408 53.3 161.005 53.5896 160.713 54.0033C160.428 54.406 160.213 54.9683 160.047 55.6495L160.533 55.768L161.019 55.8865C161.172 55.2557 161.35 54.834 161.529 54.5807C161.7 54.3384 161.833 54.3 161.925 54.3V53.8ZM160.533 55.768L160.044 55.6608C159.744 57.0313 159.601 59.3521 159.601 62.584H160.101H160.601C160.601 59.3519 160.746 57.1287 161.021 55.8752L160.533 55.768ZM160.101 62.584H159.601C159.601 63.9893 159.731 65.2317 160 66.3053L160.485 66.184L160.97 66.0627C160.726 65.0883 160.601 63.9307 160.601 62.584H160.101ZM160.485 66.184L160.005 66.3234C160.302 67.3476 160.676 68.1802 161.144 68.7917L161.541 68.488L161.938 68.1843C161.574 67.7078 161.244 67.0044 160.965 66.0446L160.485 66.184ZM161.541 68.488L161.153 68.8033C161.587 69.3376 162.1 69.756 162.693 69.756V69.256V68.756C162.581 68.756 162.327 68.6624 161.929 68.1727L161.541 68.488ZM178.857 72.76L178.514 73.1241L178.525 73.1344L178.537 73.1441L178.857 72.76ZM178.041 54.568H178.541V54.2106L178.203 54.0949L178.041 54.568ZM176.217 53.944H175.717V54.3014L176.055 54.4171L176.217 53.944ZM176.217 51.64L176.131 51.1475L175.717 51.2198V51.64H176.217ZM182.793 51.592L182.439 51.9456L182.444 51.9506L182.449 51.9555L182.793 51.592ZM183.657 52.6L184.156 52.625L184.157 52.6125V52.6H183.657ZM183.561 54.52L183.061 54.495L182.99 55.9226L183.936 54.8508L183.561 54.52ZM184.281 53.704L183.911 53.3676L183.906 53.3732L184.281 53.704ZM190.857 51.256L191.331 51.0979L191.244 50.8375L190.978 50.7709L190.857 51.256ZM191.097 52.072L191.578 51.9346L191.578 51.9346L191.097 52.072ZM190.521 55.192L190.074 54.9684L190.074 54.9684L190.521 55.192ZM189.513 56.824L189.355 57.2983L189.528 57.3563L189.698 57.2882L189.513 56.824ZM188.409 56.344L188.204 56.8L188.204 56.8L188.409 56.344ZM185.481 56.344L185.666 56.8082L185.676 56.8043L185.686 56.8L185.481 56.344ZM183.801 57.16L183.544 56.7313L183.301 56.8769V57.16H183.801ZM183.801 69.208H183.301V69.5825L183.66 69.6878L183.801 69.208ZM186.585 70.024H187.085V69.6495L186.725 69.5442L186.585 70.024ZM186.585 72.52L186.663 73.0138L187.085 72.9469V72.52H186.585ZM179.961 73.48V72.98C180.029 72.98 180.054 73.0005 180.009 72.9798C179.974 72.9641 179.918 72.9337 179.838 72.8812C179.678 72.7767 179.459 72.6108 179.177 72.3759L178.857 72.76L178.537 73.1441C178.831 73.3892 179.084 73.5833 179.292 73.7188C179.395 73.7863 179.497 73.8459 179.595 73.8902C179.681 73.9295 179.813 73.98 179.961 73.98V73.48ZM178.857 72.76L179.199 72.3959C178.934 72.146 178.749 71.9518 178.633 71.8094C178.575 71.7378 178.544 71.6906 178.53 71.6646C178.51 71.6276 178.541 71.6659 178.541 71.752H178.041H177.541C177.541 71.9181 177.606 72.0584 177.653 72.1454C177.707 72.2434 177.778 72.3422 177.856 72.4386C178.013 72.6322 178.236 72.862 178.514 73.1241L178.857 72.76ZM178.041 71.752H178.541V54.568H178.041H177.541V71.752H178.041ZM178.041 54.568L178.203 54.0949L176.379 53.4709L176.217 53.944L176.055 54.4171L177.879 55.0411L178.041 54.568ZM176.217 53.944H176.717V51.64H176.217H175.717V53.944H176.217ZM176.217 51.64L176.303 52.1325C177.95 51.8447 179.23 51.6293 180.146 51.486C181.085 51.339 181.594 51.276 181.737 51.276V50.776V50.276C181.496 50.276 180.892 50.357 179.991 50.498C179.067 50.6427 177.78 50.8593 176.131 51.1475L176.217 51.64ZM181.737 50.776V51.276C181.653 51.276 181.617 51.2465 181.658 51.2686C181.688 51.2843 181.739 51.3168 181.815 51.3756C181.966 51.4926 182.173 51.6794 182.439 51.9456L182.793 51.592L183.146 51.2384C182.868 50.9605 182.627 50.7394 182.426 50.5844C182.327 50.5072 182.226 50.4377 182.127 50.3854C182.041 50.3395 181.901 50.276 181.737 50.276V50.776ZM182.793 51.592L182.449 51.9555C182.733 52.2233 182.934 52.4292 183.061 52.5774C183.125 52.6523 183.161 52.7015 183.178 52.7287C183.209 52.7788 183.157 52.7195 183.157 52.6H183.657H184.157C184.157 52.4165 184.068 52.2672 184.028 52.2013C183.972 52.1125 183.9 52.0197 183.82 51.9266C183.659 51.7388 183.429 51.5047 183.136 51.2285L182.793 51.592ZM183.657 52.6L183.157 52.575L183.061 54.495L183.561 54.52L184.06 54.545L184.156 52.625L183.657 52.6ZM183.561 54.52L183.936 54.8508L184.656 54.0348L184.281 53.704L183.906 53.3732L183.186 54.1892L183.561 54.52ZM184.281 53.704L184.651 54.0403C185.609 52.986 186.347 52.201 186.866 51.6816C187.127 51.4208 187.326 51.2343 187.466 51.1157C187.537 51.0555 187.583 51.0215 187.608 51.0053C187.621 50.9971 187.618 50.9998 187.604 51.006C187.598 51.0087 187.539 51.036 187.449 51.036V50.536V50.036C187.335 50.036 187.245 50.0716 187.201 50.0907C187.15 50.1135 187.103 50.1409 187.065 50.1657C186.988 50.2155 186.905 50.2804 186.82 50.3523C186.648 50.4977 186.426 50.7072 186.159 50.9744C185.623 51.511 184.872 52.31 183.911 53.3677L184.281 53.704ZM187.449 50.536V51.036C187.93 51.036 188.553 51.136 189.33 51.3535L189.465 50.872L189.6 50.3905C188.776 50.16 188.056 50.036 187.449 50.036V50.536ZM189.465 50.872L189.33 51.3535C190.126 51.5762 190.599 51.7069 190.735 51.7411L190.857 51.256L190.978 50.7709C190.859 50.7411 190.404 50.6157 189.6 50.3905L189.465 50.872ZM190.857 51.256L190.382 51.4141C190.41 51.4972 190.487 51.7565 190.616 52.2094L191.097 52.072L191.578 51.9346C191.451 51.4915 191.367 51.2068 191.331 51.0979L190.857 51.256ZM191.097 52.072L190.616 52.2094C190.738 52.6366 190.789 52.9541 190.789 53.176H191.289H191.789C191.789 52.8219 191.711 52.4034 191.578 51.9346L191.097 52.072ZM191.289 53.176H190.789C190.789 53.2365 190.756 53.4096 190.63 53.742C190.51 54.0562 190.326 54.4637 190.074 54.9684L190.521 55.192L190.968 55.4156C191.228 54.8963 191.428 54.4558 191.564 54.098C191.693 53.7584 191.789 53.4355 191.789 53.176H191.289ZM190.521 55.192L190.074 54.9684C189.82 55.4757 189.616 55.8522 189.459 56.1053C189.381 56.2327 189.321 56.318 189.278 56.3699C189.218 56.4441 189.237 56.3959 189.327 56.3598L189.513 56.824L189.698 57.2882C189.869 57.2201 189.99 57.0799 190.053 57.0021C190.135 56.902 190.221 56.7753 190.31 56.6307C190.49 56.3398 190.71 55.9323 190.968 55.4156L190.521 55.192ZM189.513 56.824L189.671 56.3497C189.671 56.3498 189.67 56.3492 189.665 56.3475C189.66 56.3457 189.654 56.3434 189.646 56.3402C189.629 56.3338 189.608 56.3252 189.581 56.314C189.527 56.2916 189.455 56.2609 189.364 56.2215C189.183 56.1427 188.933 56.0317 188.614 55.888L188.409 56.344L188.204 56.8C188.827 57.0806 189.228 57.256 189.355 57.2983L189.513 56.824ZM188.409 56.344L188.614 55.888C187.937 55.5833 187.304 55.412 186.729 55.412V55.912V56.412C187.113 56.412 187.601 56.5287 188.204 56.8L188.409 56.344ZM186.729 55.912V55.412C186.541 55.412 186.319 55.4747 186.109 55.5475C185.881 55.6264 185.602 55.741 185.276 55.888L185.481 56.344L185.686 56.8C185.999 56.659 186.248 56.5576 186.436 56.4925C186.53 56.46 186.603 56.4385 186.658 56.4255C186.717 56.4117 186.736 56.412 186.729 56.412V55.912ZM185.481 56.344L185.295 55.8798C184.636 56.1435 184.051 56.4268 183.544 56.7313L183.801 57.16L184.058 57.5887C184.511 57.3172 185.046 57.0565 185.666 56.8082L185.481 56.344ZM183.801 57.16H183.301V69.208H183.801H184.301V57.16H183.801ZM183.801 69.208L183.66 69.6878L186.444 70.5038L186.585 70.024L186.725 69.5442L183.941 68.7282L183.801 69.208ZM186.585 70.024H186.085V72.52H186.585H187.085V70.024H186.585ZM186.585 72.52L186.506 72.0262C184.491 72.3461 182.934 72.5857 181.833 72.7452C181.282 72.825 180.848 72.8844 180.529 72.9238C180.198 72.9648 180.02 72.98 179.961 72.98V73.48V73.98C180.094 73.98 180.336 73.9552 180.652 73.9162C180.981 73.8756 181.423 73.815 181.976 73.7348C183.084 73.5743 184.646 73.3339 186.663 73.0138L186.585 72.52ZM210.392 73.432V73.932H210.417L210.441 73.9295L210.392 73.432ZM209.48 72.952L208.997 73.0845L209.047 73.2645L209.202 73.368L209.48 72.952ZM202.424 47.272L202.906 47.1395L202.834 46.8791L202.577 46.7961L202.424 47.272ZM199.448 46.312H198.948V46.6761L199.294 46.7879L199.448 46.312ZM199.448 43.912V43.412H198.948V43.912H199.448ZM211.976 43.912H212.476V43.412H211.976V43.912ZM211.976 46.6L212.116 47.0799L212.476 46.9748V46.6H211.976ZM208.856 47.512L208.715 47.0321L208.256 47.1662L208.37 47.6306L208.856 47.512ZM211.88 59.896L212.366 59.7797L212.365 59.7774L211.88 59.896ZM213.464 67.24L212.974 67.3407L213.056 67.74H213.464V67.24ZM213.992 67.24V67.74H214.388L214.478 67.3545L213.992 67.24ZM215.144 62.344L214.657 62.228L214.657 62.2295L215.144 62.344ZM218.552 47.512L219.042 47.6101L219.133 47.1553L218.686 47.0304L218.552 47.512ZM215.288 46.6H214.788V46.9794L215.153 47.0816L215.288 46.6ZM215.288 43.912V43.412H214.788V43.912H215.288ZM226.856 43.912H227.356V43.412H226.856V43.912ZM226.856 46.312L227.009 46.7879L227.356 46.6761V46.312H226.856ZM223.88 47.272L223.726 46.7961L223.468 46.8795L223.397 47.1416L223.88 47.272ZM216.92 72.664L216.984 73.1599L217.31 73.1177L217.401 72.8009L216.92 72.664ZM213.368 73.096L213.31 72.5993L213.309 72.5995L213.368 73.096ZM210.392 73.432V72.932C210.449 72.932 210.472 72.9463 210.436 72.9331C210.41 72.9233 210.366 72.9038 210.3 72.8695C210.171 72.8011 209.991 72.6919 209.757 72.536L209.48 72.952L209.202 73.368C209.448 73.5321 209.661 73.6629 209.835 73.7545C209.922 73.8002 210.007 73.8407 210.089 73.8709C210.161 73.8977 210.271 73.932 210.392 73.932V73.432ZM209.48 72.952L209.962 72.8195L202.906 47.1395L202.424 47.272L201.941 47.4045L208.997 73.0845L209.48 72.952ZM202.424 47.272L202.577 46.7961L199.601 45.8361L199.448 46.312L199.294 46.7879L202.27 47.7479L202.424 47.272ZM199.448 46.312H199.948V43.912H199.448H198.948V46.312H199.448ZM199.448 43.912V44.412H211.976V43.912V43.412H199.448V43.912ZM211.976 43.912H211.476V46.6H211.976H212.476V43.912H211.976ZM211.976 46.6L211.835 46.1201L208.715 47.0321L208.856 47.512L208.996 47.9919L212.116 47.0799L211.976 46.6ZM208.856 47.512L208.37 47.6306L211.394 60.0146L211.88 59.896L212.365 59.7774L209.341 47.3934L208.856 47.512ZM211.88 59.896L211.393 60.0123C211.743 61.4758 212.27 63.917 212.974 67.3407L213.464 67.24L213.953 67.1393C213.249 63.715 212.72 61.2602 212.366 59.7797L211.88 59.896ZM213.464 67.24V67.74H213.992V67.24V66.74H213.464V67.24ZM213.992 67.24L214.478 67.3545L215.63 62.4585L215.144 62.344L214.657 62.2295L213.505 67.1255L213.992 67.24ZM215.144 62.344L215.63 62.46C217.453 54.8144 218.592 49.8608 219.042 47.6101L218.552 47.512L218.061 47.4139C217.615 49.6432 216.482 54.5776 214.657 62.228L215.144 62.344ZM218.552 47.512L218.686 47.0304L215.422 46.1184L215.288 46.6L215.153 47.0816L218.417 47.9936L218.552 47.512ZM215.288 46.6H215.788V43.912H215.288H214.788V46.6H215.288ZM215.288 43.912V44.412H226.856V43.912V43.412H215.288V43.912ZM226.856 43.912H226.356V46.312H226.856H227.356V43.912H226.856ZM226.856 46.312L226.702 45.8361L223.726 46.7961L223.88 47.272L224.033 47.7479L227.009 46.7879L226.856 46.312ZM223.88 47.272L223.397 47.1416C220.069 59.4619 217.75 67.9228 216.439 72.5271L216.92 72.664L217.401 72.8009C218.714 68.1892 221.034 59.7221 224.362 47.4024L223.88 47.272ZM216.92 72.664L216.856 72.1681C215.866 72.2958 214.685 72.4395 213.31 72.5993L213.368 73.096L213.425 73.5927C214.803 73.4325 215.989 73.2882 216.984 73.1599L216.92 72.664ZM213.368 73.096L213.309 72.5995C211.965 72.7594 210.977 72.871 210.342 72.9345L210.392 73.432L210.441 73.9295C211.086 73.865 212.082 73.7526 213.427 73.5925L213.368 73.096ZM229.49 70.936L229.143 71.2959L229.146 71.2991L229.49 70.936ZM227.138 58.84L227.631 58.9222L227.631 58.9203L227.138 58.84ZM228.002 55.768L227.598 55.4723L227.576 55.5027L227.559 55.536L228.002 55.768ZM230.21 53.8L229.917 53.3946L229.911 53.3986L230.21 53.8ZM233.618 51.592L233.375 51.1549L233.37 51.1579L233.618 51.592ZM243.794 53.272L243.44 53.6256L243.443 53.6287L243.794 53.272ZM246.146 65.224L246.639 65.3062L246.639 65.3062L246.146 65.224ZM245.33 68.536L245.717 68.8526L245.769 68.788L245.798 68.7097L245.33 68.536ZM241.442 71.56L241.71 71.9821L241.714 71.9791L241.442 71.56ZM237.602 70.36V70.86H237.683L237.76 70.8343L237.602 70.36ZM239.666 69.352L239.894 69.7968L240.109 69.6866L240.156 69.4501L239.666 69.352ZM239.186 55.96L238.74 56.1876L238.747 56.1994L239.186 55.96ZM234.29 54.088L234.499 54.542L234.506 54.5387L234.513 54.5352L234.29 54.088ZM233.282 56.584L233.774 56.6715L233.774 56.6697L233.282 56.584ZM234.242 68.584L233.839 68.8806L233.844 68.8866L233.848 68.8924L234.242 68.584ZM237.458 73.48V72.98C234.011 72.98 231.499 72.1496 229.833 70.5729L229.49 70.936L229.146 71.2991C231.064 73.1144 233.864 73.98 237.458 73.98V73.48ZM229.49 70.936L229.837 70.5761C228.178 68.9765 227.302 66.491 227.302 63.016H226.802H226.302C226.302 66.645 227.217 69.4395 229.143 71.2959L229.49 70.936ZM226.802 63.016H227.302C227.302 61.602 227.412 60.2375 227.631 58.9222L227.138 58.84L226.644 58.7578C226.416 60.1305 226.302 61.55 226.302 63.016H226.802ZM227.138 58.84L227.631 58.9203C227.852 57.5607 228.13 56.6001 228.445 56L228.002 55.768L227.559 55.536C227.169 56.2799 226.871 57.3673 226.644 58.7597L227.138 58.84ZM228.002 55.768L228.405 56.0637C228.708 55.6502 229.389 55.0328 230.508 54.2014L230.21 53.8L229.911 53.3986C228.791 54.2312 227.999 54.9258 227.598 55.4723L228.002 55.768ZM230.21 53.8L230.502 54.2053C231.641 53.3827 232.763 52.6565 233.866 52.0261L233.618 51.592L233.37 51.1579C232.233 51.8075 231.082 52.5533 229.917 53.3947L230.21 53.8ZM233.618 51.592L233.86 52.0291C234.427 51.7141 234.892 51.4845 235.259 51.3349C235.64 51.1793 235.864 51.132 235.97 51.132V50.632V50.132C235.659 50.132 235.283 50.2447 234.881 50.4091C234.463 50.5795 233.96 50.8299 233.375 51.1549L233.618 51.592ZM235.97 50.632V51.132C239.345 51.132 241.805 51.9908 243.44 53.6256L243.794 53.272L244.147 52.9184C242.262 51.0332 239.506 50.132 235.97 50.132V50.632ZM243.794 53.272L243.443 53.6287C245.111 55.2663 245.982 57.6793 245.982 60.952H246.482H246.982C246.982 57.5047 246.061 54.7977 244.144 52.9153L243.794 53.272ZM246.482 60.952H245.982C245.982 62.4313 245.871 63.8276 245.652 65.1418L246.146 65.224L246.639 65.3062C246.868 63.9324 246.982 62.4807 246.982 60.952H246.482ZM246.146 65.224L245.652 65.1418C245.431 66.4679 245.166 67.5384 244.861 68.3623L245.33 68.536L245.798 68.7097C246.133 67.8056 246.412 66.6681 246.639 65.3062L246.146 65.224ZM245.33 68.536L244.943 68.2194C244.422 68.8553 243.19 69.8255 241.169 71.1409L241.442 71.56L241.714 71.9791C243.725 70.6705 245.085 69.6247 245.717 68.8526L245.33 68.536ZM241.442 71.56L241.174 71.1379C240.173 71.773 239.356 72.2415 238.717 72.5496C238.054 72.8688 237.653 72.98 237.458 72.98V73.48V73.98C237.902 73.98 238.485 73.7712 239.151 73.4504C239.84 73.1185 240.694 72.627 241.71 71.9821L241.442 71.56ZM237.602 70.36L237.76 70.8343C237.894 70.7896 238.147 70.6724 238.481 70.5093C238.829 70.3391 239.301 70.1014 239.894 69.7968L239.666 69.352L239.437 68.9072C238.846 69.2106 238.382 69.4449 238.042 69.6107C237.688 69.7836 237.501 69.8664 237.444 69.8857L237.602 70.36ZM239.666 69.352L240.156 69.4501C240.612 67.1704 240.838 64.5604 240.838 61.624H240.338H239.838C239.838 64.5116 239.615 67.0536 239.175 69.2539L239.666 69.352ZM240.338 61.624H240.838C240.838 59.2093 240.447 57.2288 239.625 55.7206L239.186 55.96L238.747 56.1994C239.46 57.5072 239.838 59.3027 239.838 61.624H240.338ZM239.186 55.96L239.631 55.7324C239.23 54.949 238.707 54.3344 238.049 53.9177C237.39 53.5 236.627 53.3 235.778 53.3V53.8V54.3C236.465 54.3 237.037 54.46 237.514 54.7623C237.992 55.0656 238.405 55.531 238.74 56.1876L239.186 55.96ZM235.778 53.8V53.3C235.122 53.3 234.542 53.4027 234.066 53.6408L234.29 54.088L234.513 54.5352C234.805 54.3893 235.217 54.3 235.778 54.3V53.8ZM234.29 54.088L234.08 53.634C233.687 53.8154 233.438 54.2331 233.262 54.6688C233.075 55.1319 232.92 55.7472 232.789 56.4983L233.282 56.584L233.774 56.6697C233.9 55.9488 234.04 55.4121 234.189 55.0432C234.349 54.6469 234.476 54.5526 234.499 54.542L234.29 54.088ZM233.282 56.584L232.789 56.4965C232.526 57.9775 232.398 59.9143 232.398 62.296H232.898H233.398C233.398 59.9417 233.525 58.0705 233.774 56.6715L233.282 56.584ZM232.898 62.296H232.398C232.398 65.2916 232.843 67.5282 233.839 68.8806L234.242 68.584L234.644 68.2874C233.849 67.2078 233.398 65.2524 233.398 62.296H232.898ZM234.242 68.584L233.848 68.8924C234.855 70.1773 236.112 70.86 237.602 70.86V70.36V69.86C236.467 69.86 235.484 69.3587 234.635 68.2756L234.242 68.584ZM253.616 72.712L253.284 73.0858L253.294 73.0945L253.616 72.712ZM252.032 70.984L251.616 71.2614L251.624 71.2729L251.632 71.284L252.032 70.984ZM251.36 54.376H251.86V53.876H251.36V54.376ZM248.096 54.376H247.596V54.876H248.096V54.376ZM248.096 52.312L247.894 51.8545L247.596 51.9861V52.312H248.096ZM251.36 50.872L251.562 51.3295L251.666 51.2833L251.741 51.1963L251.36 50.872ZM254.96 46.648L254.784 46.1798L254.663 46.2252L254.579 46.3237L254.96 46.648ZM257.12 47.32H257.62V46.9995L257.329 46.8657L257.12 47.32ZM257.12 51.256H256.62V51.756H257.12V51.256ZM261.872 51.256H262.372V50.756H261.872V51.256ZM261.872 54.52V55.02H262.372V54.52H261.872ZM257.12 54.52V54.02H256.62V54.52H257.12ZM257.36 69.064L256.913 69.2876L256.918 69.2973L256.923 69.3068L257.36 69.064ZM258.224 69.496L258.247 68.9965L258.236 68.996H258.224V69.496ZM262.352 69.688H262.852V69.2107L262.375 69.1885L262.352 69.688ZM262.352 72.568L262.434 73.0612L262.852 72.9916V72.568H262.352ZM257.984 73.192L257.923 72.6957L257.984 73.192ZM255.056 73.48V72.98C254.995 72.98 254.871 72.9554 254.667 72.8468C254.469 72.7409 254.226 72.5723 253.938 72.3295L253.616 72.712L253.294 73.0945C253.614 73.3637 253.915 73.5791 254.197 73.7292C254.473 73.8766 254.765 73.98 255.056 73.98V73.48ZM253.616 72.712L253.948 72.3383C253.398 71.8494 252.893 71.2982 252.432 70.684L252.032 70.984L251.632 71.284C252.131 71.9498 252.682 72.5506 253.284 73.0857L253.616 72.712ZM252.032 70.984L252.448 70.7066C252.012 70.052 251.86 69.6128 251.86 69.352H251.36H250.86C250.86 69.9232 251.156 70.572 251.616 71.2614L252.032 70.984ZM251.36 69.352H251.86V54.376H251.36H250.86V69.352H251.36ZM251.36 54.376V53.876H248.096V54.376V54.876H251.36V54.376ZM248.096 54.376H248.596V52.312H248.096H247.596V54.376H248.096ZM248.096 52.312L248.298 52.7695L251.562 51.3295L251.36 50.872L251.158 50.4145L247.894 51.8545L248.096 52.312ZM251.36 50.872L251.741 51.1963L255.341 46.9723L254.96 46.648L254.579 46.3237L250.979 50.5477L251.36 50.872ZM254.96 46.648L255.136 47.1162C255.084 47.1356 255.078 47.1191 255.174 47.1318C255.257 47.1426 255.378 47.1699 255.543 47.2214C255.873 47.3241 256.327 47.5059 256.911 47.7743L257.12 47.32L257.329 46.8657C256.729 46.5901 256.231 46.3879 255.841 46.2666C255.646 46.206 255.465 46.1614 255.304 46.1402C255.156 46.1209 254.964 46.1123 254.784 46.1798L254.96 46.648ZM257.12 47.32H256.62V51.256H257.12H257.62V47.32H257.12ZM257.12 51.256V51.756H261.872V51.256V50.756H257.12V51.256ZM261.872 51.256H261.372V54.52H261.872H262.372V51.256H261.872ZM261.872 54.52V54.02H257.12V54.52V55.02H261.872V54.52ZM257.12 54.52H256.62V67.288H257.12H257.62V54.52H257.12ZM257.12 67.288H256.62C256.62 67.7334 256.641 68.1214 256.685 68.447C256.728 68.7661 256.797 69.0564 256.913 69.2876L257.36 69.064L257.807 68.8404C257.763 68.7516 257.712 68.5859 257.675 68.313C257.639 68.0466 257.62 67.7066 257.62 67.288H257.12ZM257.36 69.064L256.923 69.3068C257.195 69.797 257.682 69.996 258.224 69.996V69.496V68.996C257.934 68.996 257.845 68.907 257.797 68.8212L257.36 69.064ZM258.224 69.496L258.201 69.9955L262.329 70.1875L262.352 69.688L262.375 69.1885L258.247 68.9965L258.224 69.496ZM262.352 69.688H261.852V72.568H262.352H262.852V69.688H262.352ZM262.352 72.568L262.27 72.0748C260.934 72.2974 259.485 72.5044 257.923 72.6957L257.984 73.192L258.045 73.6883C259.619 73.4956 261.082 73.2866 262.434 73.0612L262.352 72.568ZM257.984 73.192L257.923 72.6957C256.343 72.8892 255.402 72.98 255.056 72.98V73.48V73.98C255.478 73.98 256.489 73.8788 258.045 73.6883L257.984 73.192ZM267.037 70.936L266.689 71.2959L266.693 71.2991L267.037 70.936ZM264.685 58.84L265.178 58.9222L265.178 58.9203L264.685 58.84ZM265.549 55.768L265.145 55.4723L265.123 55.5027L265.106 55.536L265.549 55.768ZM267.757 53.8L267.464 53.3946L267.458 53.3986L267.757 53.8ZM271.165 51.592L270.922 51.1549L270.916 51.1579L271.165 51.592ZM281.341 53.272L280.987 53.6256L280.99 53.6287L281.341 53.272ZM283.693 65.224L284.186 65.3062L284.186 65.3062L283.693 65.224ZM282.877 68.536L283.263 68.8526L283.316 68.788L283.345 68.7097L282.877 68.536ZM278.989 71.56L279.257 71.9821L279.261 71.9791L278.989 71.56ZM275.148 70.36V70.86H275.23L275.307 70.8343L275.148 70.36ZM277.213 69.352L277.441 69.7968L277.655 69.6866L277.703 69.4501L277.213 69.352ZM276.733 55.96L276.287 56.1876L276.294 56.1994L276.733 55.96ZM271.837 54.088L272.046 54.542L272.053 54.5387L272.06 54.5352L271.837 54.088ZM270.829 56.584L271.321 56.6715L271.321 56.6697L270.829 56.584ZM271.789 68.584L271.386 68.8806L271.39 68.8866L271.395 68.8924L271.789 68.584ZM275.005 73.48V72.98C271.558 72.98 269.046 72.1496 267.38 70.5729L267.037 70.936L266.693 71.2991C268.611 73.1144 271.411 73.98 275.005 73.98V73.48ZM267.037 70.936L267.384 70.5761C265.725 68.9765 264.849 66.491 264.849 63.016H264.349H263.849C263.849 66.645 264.764 69.4395 266.689 71.2959L267.037 70.936ZM264.349 63.016H264.849C264.849 61.602 264.958 60.2375 265.178 58.9222L264.685 58.84L264.191 58.7578C263.963 60.1305 263.849 61.55 263.849 63.016H264.349ZM264.685 58.84L265.178 58.9203C265.399 57.5607 265.677 56.6001 265.991 56L265.549 55.768L265.106 55.536C264.716 56.2799 264.418 57.3673 264.191 58.7597L264.685 58.84ZM265.549 55.768L265.952 56.0637C266.255 55.6502 266.935 55.0328 268.055 54.2014L267.757 53.8L267.458 53.3986C266.338 54.2312 265.546 54.9258 265.145 55.4723L265.549 55.768ZM267.757 53.8L268.049 54.2053C269.188 53.3827 270.309 52.6565 271.413 52.0261L271.165 51.592L270.916 51.1579C269.78 51.8075 268.629 52.5533 267.464 53.3947L267.757 53.8ZM271.165 51.592L271.407 52.0291C271.974 51.7141 272.439 51.4845 272.805 51.3349C273.187 51.1793 273.411 51.132 273.517 51.132V50.632V50.132C273.206 50.132 272.83 50.2447 272.428 50.4091C272.01 50.5795 271.507 50.8299 270.922 51.1549L271.165 51.592ZM273.517 50.632V51.132C276.892 51.132 279.352 51.9908 280.987 53.6256L281.341 53.272L281.694 52.9184C279.809 51.0332 277.053 50.132 273.517 50.132V50.632ZM281.341 53.272L280.99 53.6287C282.657 55.2663 283.529 57.6793 283.529 60.952H284.029H284.529C284.529 57.5047 283.608 54.7977 281.691 52.9153L281.341 53.272ZM284.029 60.952H283.529C283.529 62.4313 283.418 63.8276 283.199 65.1418L283.693 65.224L284.186 65.3062C284.415 63.9324 284.529 62.4807 284.529 60.952H284.029ZM283.693 65.224L283.199 65.1418C282.978 66.4679 282.713 67.5384 282.408 68.3623L282.877 68.536L283.345 68.7097C283.68 67.8056 283.959 66.6681 284.186 65.3062L283.693 65.224ZM282.877 68.536L282.49 68.2194C281.969 68.8553 280.737 69.8255 278.716 71.1409L278.989 71.56L279.261 71.9791C281.272 70.6705 282.632 69.6247 283.263 68.8526L282.877 68.536ZM278.989 71.56L278.72 71.1379C277.72 71.773 276.903 72.2415 276.263 72.5496C275.601 72.8688 275.2 72.98 275.005 72.98V73.48V73.98C275.449 73.98 276.032 73.7712 276.698 73.4504C277.386 73.1185 278.241 72.627 279.257 71.9821L278.989 71.56ZM275.148 70.36L275.307 70.8343C275.441 70.7896 275.694 70.6724 276.028 70.5093C276.376 70.3391 276.848 70.1014 277.441 69.7968L277.213 69.352L276.984 68.9072C276.393 69.2106 275.929 69.4449 275.589 69.6107C275.235 69.7836 275.048 69.8664 274.99 69.8857L275.148 70.36ZM277.213 69.352L277.703 69.4501C278.159 67.1704 278.385 64.5604 278.385 61.624H277.885H277.385C277.385 64.5116 277.162 67.0536 276.722 69.2539L277.213 69.352ZM277.885 61.624H278.385C278.385 59.2093 277.994 57.2288 277.171 55.7206L276.733 55.96L276.294 56.1994C277.007 57.5072 277.385 59.3027 277.385 61.624H277.885ZM276.733 55.96L277.178 55.7324C276.777 54.949 276.254 54.3344 275.596 53.9177C274.937 53.5 274.173 53.3 273.325 53.3V53.8V54.3C274.012 54.3 274.584 54.46 275.061 54.7623C275.539 55.0656 275.952 55.531 276.287 56.1876L276.733 55.96ZM273.325 53.8V53.3C272.669 53.3 272.089 53.4027 271.613 53.6408L271.837 54.088L272.06 54.5352C272.352 54.3893 272.764 54.3 273.325 54.3V53.8ZM271.837 54.088L271.627 53.634C271.234 53.8154 270.985 54.2331 270.809 54.6688C270.622 55.1319 270.467 55.7472 270.336 56.4983L270.829 56.584L271.321 56.6697C271.446 55.9488 271.587 55.4121 271.736 55.0432C271.896 54.6469 272.023 54.5526 272.046 54.542L271.837 54.088ZM270.829 56.584L270.336 56.4965C270.073 57.9775 269.945 59.9143 269.945 62.296H270.445H270.945C270.945 59.9417 271.072 58.0705 271.321 56.6715L270.829 56.584ZM270.445 62.296H269.945C269.945 65.2916 270.389 67.5282 271.386 68.8806L271.789 68.584L272.191 68.2874C271.396 67.2078 270.945 65.2524 270.945 62.296H270.445ZM271.789 68.584L271.395 68.8924C272.402 70.1773 273.659 70.86 275.148 70.86V70.36V69.86C274.014 69.86 273.031 69.3587 272.182 68.2756L271.789 68.584Z" fill="black" mask="url(#path-22-outside-1_1_2128)"/>
</g>
</g>
<rect x="10" y="10" width="339" height="92" rx="18" stroke="#5A0923" stroke-width="4"/>
<defs>
<filter id="filter0_i_1_2128" x="43" y="64" width="8" height="6" filterUnits="userSpaceOnUse" color-interpolation-filters="sRGB">
<feFlood flood-opacity="0" result="BackgroundImageFix"/>
<feBlend mode="normal" in="SourceGraphic" in2="BackgroundImageFix" result="shape"/>
<feColorMatrix in="SourceAlpha" type="matrix" values="0 0 0 0 0 0 0 0 0 0 0 0 0 0 0 0 0 0 127 0" result="hardAlpha"/>
<feOffset dy="1"/>
<feGaussianBlur stdDeviation="2"/>
<feComposite in2="hardAlpha" operator="arithmetic" k2="-1" k3="1"/>
<feColorMatrix type="matrix" values="0 0 0 0 0 0 0 0 0 0 0 0 0 0 0 0 0 0 0.25 0"/>
<feBlend mode="normal" in2="shape" result="effect1_innerShadow_1_2128"/>
</filter>
<filter id="filter1_i_1_2128" x="302" y="46" width="8" height="6" filterUnits="userSpaceOnUse" color-interpolation-filters="sRGB">
<feFlood flood-opacity="0" result="BackgroundImageFix"/>
<feBlend mode="normal" in="SourceGraphic" in2="BackgroundImageFix" result="shape"/>
<feColorMatrix in="SourceAlpha" type="matrix" values="0 0 0 0 0 0 0 0 0 0 0 0 0 0 0 0 0 0 127 0" result="hardAlpha"/>
<feOffset dy="1"/>
<feGaussianBlur stdDeviation="2"/>
<feComposite in2="hardAlpha" operator="arithmetic" k2="-1" k3="1"/>
<feColorMatrix type="matrix" values="0 0 0 0 0 0 0 0 0 0 0 0 0 0 0 0 0 0 0.25 0"/>
<feBlend mode="normal" in2="shape" result="effect1_innerShadow_1_2128"/>
</filter>
<filter id="filter2_i_1_2128" x="94" y="20" width="7" height="5" filterUnits="userSpaceOnUse" color-interpolation-filters="sRGB">
<feFlood flood-opacity="0" result="BackgroundImageFix"/>
<feBlend mode="normal" in="SourceGraphic" in2="BackgroundImageFix" result="shape"/>
<feColorMatrix in="SourceAlpha" type="matrix" values="0 0 0 0 0 0 0 0 0 0 0 0 0 0 0 0 0 0 127 0" result="hardAlpha"/>
<feOffset dy="1"/>
<feGaussianBlur stdDeviation="2"/>
<feComposite in2="hardAlpha" operator="arithmetic" k2="-1" k3="1"/>
<feColorMatrix type="matrix" values="0 0 0 0 0 0 0 0 0 0 0 0 0 0 0 0 0 0 0.25 0"/>
<feBlend mode="normal" in2="shape" result="effect1_innerShadow_1_2128"/>
</filter>
<filter id="filter3_i_1_2128" x="273" y="90" width="8" height="5" filterUnits="userSpaceOnUse" color-interpolation-filters="sRGB">
<feFlood flood-opacity="0" result="BackgroundImageFix"/>
<feBlend mode="normal" in="SourceGraphic" in2="BackgroundImageFix" result="shape"/>
<feColorMatrix in="SourceAlpha" type="matrix" values="0 0 0 0 0 0 0 0 0 0 0 0 0 0 0 0 0 0 127 0" result="hardAlpha"/>
<feOffset dy="1"/>
<feGaussianBlur stdDeviation="2"/>
<feComposite in2="hardAlpha" operator="arithmetic" k2="-1" k3="1"/>
<feColorMatrix type="matrix" values="0 0 0 0 0 0 0 0 0 0 0 0 0 0 0 0 0 0 0.25 0"/>
<feBlend mode="normal" in2="shape" result="effect1_innerShadow_1_2128"/>
</filter>
<filter id="filter4_d_1_2128" x="69.5851" y="41.0449" width="218.943" height="41.0311" filterUnits="userSpaceOnUse" color-interpolation-filters="sRGB">
<feFlood flood-opacity="0" result="BackgroundImageFix"/>
<feColorMatrix in="SourceAlpha" type="matrix" values="0 0 0 0 0 0 0 0 0 0 0 0 0 0 0 0 0 0 127 0" result="hardAlpha"/>
<feOffset dy="4"/>
<feGaussianBlur stdDeviation="2"/>
<feComposite in2="hardAlpha" operator="out"/>
<feColorMatrix type="matrix" values="0 0 0 0 0 0 0 0 0 0 0 0 0 0 0 0 0 0 0.25 0"/>
<feBlend mode="normal" in2="BackgroundImageFix" result="effect1_dropShadow_1_2128"/>
<feBlend mode="normal" in="SourceGraphic" in2="effect1_dropShadow_1_2128" result="shape"/>
</filter>
<linearGradient id="paint0_linear_1_2128" x1="179.5" y1="0" x2="179.5" y2="112" gradientUnits="userSpaceOnUse">
<stop stop-color="#B6A187"/>
<stop offset="1" stop-color="#8D7559"/>
</linearGradient>
<linearGradient id="paint1_linear_1_2128" x1="12" y1="33" x2="347" y2="33" gradientUnits="userSpaceOnUse">
<stop stop-color="#FF83A9"/>
<stop offset="0.28" stop-color="#FF83A9"/>
<stop offset="0.380455" stop-color="#FF83A9" stop-opacity="0"/>
<stop offset="0.475" stop-color="#FF83A9"/>
<stop offset="0.713573" stop-color="#FF83A9"/>
<stop offset="0.767221" stop-color="#FF83A9" stop-opacity="0"/>
<stop offset="0.822117" stop-color="#FF83A9"/>
<stop offset="1" stop-color="#FF83A9"/>
</linearGradient>
<linearGradient id="paint2_linear_1_2128" x1="335" y1="1" x2="0" y2="1" gradientUnits="userSpaceOnUse">
<stop stop-color="#DB2C5A"/>
<stop offset="0.318428" stop-color="#DB2C5A"/>
<stop offset="0.351009" stop-color="#DB2C5A" stop-opacity="0"/>
<stop offset="0.388034" stop-color="#DB2C5A"/>
<stop offset="0.654611" stop-color="#DB2C5A"/>
<stop offset="0.713109" stop-color="#DB2C5A" stop-opacity="0"/>
<stop offset="0.772349" stop-color="#DB2C5A"/>
<stop offset="1" stop-color="#DB2C5A"/>
</linearGradient>
<linearGradient id="paint3_linear_1_2128" x1="29" y1="45" x2="29" y2="58" gradientUnits="userSpaceOnUse">
<stop stop-color="#FF83A9"/>
<stop offset="1" stop-color="#FF83A9" stop-opacity="0"/>
</linearGradient>
<linearGradient id="paint4_linear_1_2128" x1="330" y1="45" x2="330" y2="48" gradientUnits="userSpaceOnUse">
<stop stop-color="#FF83A9"/>
<stop offset="1" stop-color="#FF83A9" stop-opacity="0"/>
</linearGradient>
<linearGradient id="paint5_linear_1_2128" x1="29" y1="67" x2="29" y2="64" gradientUnits="userSpaceOnUse">
<stop stop-color="#DB2C5A"/>
<stop offset="1" stop-color="#DB2C5A" stop-opacity="0"/>
</linearGradient>
<linearGradient id="paint6_linear_1_2128" x1="330" y1="66.5" x2="330" y2="54" gradientUnits="userSpaceOnUse">
<stop stop-color="#DB2C5A"/>
<stop offset="1" stop-color="#DB2C5A" stop-opacity="0.352941"/>
</linearGradient>
<clipPath id="clip0_1_2128">
<rect x="12" y="12" width="335" height="88" rx="16" fill="white"/>
</clipPath>
<clipPath id="clip1_1_2128">
<rect width="13" height="16" fill="white" transform="matrix(-1 0 0 1 331 32)"/>
</clipPath>
<clipPath id="clip2_1_2128">
<rect width="13" height="16" fill="white" transform="matrix(1 0 0 -1 28 80)"/>
</clipPath>
<clipPath id="clip3_1_2128">
<rect width="13" height="26" fill="white" transform="matrix(-1 0 0 -1 331 80)"/>
</clipPath>
</defs>
</svg>
